<svg width="132" height="13" viewBox="0 0 132 13" fill="none" xmlns="http://www.w3.org/2000/svg">
<path d="M3.34544 9.97184C2.70411 9.97184 2.13644 9.83317 1.64244 9.55584C1.14844 9.26984 0.767106 8.87117 0.498439 8.35984C0.229773 7.8485 0.0954395 7.25917 0.0954395 6.59184C0.0954395 5.9245 0.229773 5.33517 0.498439 4.82384C0.767106 4.3125 1.14844 3.91817 1.64244 3.64084C2.13644 3.35484 2.70411 3.21184 3.34544 3.21184C4.10811 3.21184 4.74511 3.40684 5.25644 3.79684C5.77644 4.17817 6.09711 4.69384 6.21844 5.34384L5.12644 5.56484C5.05711 5.16617 4.86211 4.84117 4.54144 4.58984C4.22077 4.32984 3.83077 4.19984 3.37144 4.19984C2.73011 4.19984 2.21444 4.42084 1.82444 4.86284C1.44311 5.29617 1.25244 5.8725 1.25244 6.59184C1.25244 7.31117 1.44311 7.89184 1.82444 8.33384C2.21444 8.76717 2.73011 8.98384 3.37144 8.98384C3.83944 8.98384 4.22944 8.8625 4.54144 8.61984C4.86211 8.37717 5.06577 8.03917 5.15244 7.60584L6.23144 7.82684C6.09277 8.50284 5.76344 9.0315 5.24344 9.41284C4.73211 9.7855 4.09944 9.97184 3.34544 9.97184ZM11.3122 4.39484C11.0695 4.29084 10.7879 4.23884 10.4672 4.23884C9.91254 4.23884 9.45754 4.5075 9.10221 5.04484C8.75554 5.5735 8.58221 6.34917 8.58221 7.37184V9.86784H7.47721V3.31584H8.58221V4.64184C8.77287 4.22584 9.05887 3.8835 9.44021 3.61484C9.82154 3.34617 10.2159 3.21184 10.6232 3.21184C10.9092 3.21184 11.1605 3.25084 11.3772 3.32884L11.3122 4.39484ZM17.7708 3.31584L14.3388 12.2338H13.2078L14.1568 9.77684L11.5958 3.31584H12.7918L14.7158 8.33384L16.6398 3.31584H17.7708ZM18.7065 3.31584H19.8115V4.26484C19.9935 3.9615 20.2795 3.71017 20.6695 3.51084C21.0681 3.3115 21.5015 3.21184 21.9695 3.21184C22.6281 3.21184 23.1915 3.35917 23.6595 3.65384C24.1275 3.93984 24.4828 4.3385 24.7255 4.84984C24.9768 5.36117 25.1025 5.94184 25.1025 6.59184C25.1025 7.24184 24.9768 7.8225 24.7255 8.33384C24.4741 8.84517 24.1101 9.24817 23.6335 9.54284C23.1655 9.82884 22.6021 9.97184 21.9435 9.97184C21.5275 9.97184 21.1245 9.88084 20.7345 9.69884C20.3445 9.50817 20.0368 9.26117 19.8115 8.95784V12.2338H18.7065V3.31584ZM19.7205 6.59184C19.7205 7.31117 19.9111 7.89184 20.2925 8.33384C20.6825 8.76717 21.1981 8.98384 21.8395 8.98384C22.4895 8.98384 23.0095 8.76717 23.3995 8.33384C23.7895 7.89184 23.9845 7.31117 23.9845 6.59184C23.9845 5.8725 23.7895 5.29617 23.3995 4.86284C23.0095 4.42084 22.4895 4.19984 21.8395 4.19984C21.1981 4.19984 20.6825 4.42084 20.2925 4.86284C19.9111 5.29617 19.7205 5.8725 19.7205 6.59184ZM29.7792 9.81584C29.4932 9.91984 29.1509 9.97184 28.7522 9.97184C28.1629 9.97184 27.6905 9.80284 27.3352 9.46484C26.9885 9.11817 26.8152 8.59817 26.8152 7.90484V4.29084H25.5932V3.31584H26.8152V1.32684H27.9202V3.31584H29.6752V4.29084H27.9202V7.94384C27.9202 8.28184 28.0069 8.5375 28.1802 8.71084C28.3535 8.88417 28.5875 8.97084 28.8822 8.97084C29.2029 8.97084 29.4759 8.9145 29.7012 8.80184L29.7792 9.81584ZM33.7246 9.97184C33.0833 9.97184 32.5069 9.82884 31.9956 9.54284C31.4929 9.24817 31.0986 8.84517 30.8126 8.33384C30.5353 7.8225 30.3966 7.24184 30.3966 6.59184C30.3966 5.94184 30.5353 5.36117 30.8126 4.84984C31.0986 4.3385 31.4929 3.93984 31.9956 3.65384C32.5069 3.35917 33.0833 3.21184 33.7246 3.21184C34.3659 3.21184 34.9379 3.35917 35.4406 3.65384C35.9519 3.93984 36.3506 4.3385 36.6366 4.84984C36.9226 5.36117 37.0656 5.94184 37.0656 6.59184C37.0656 7.24184 36.9226 7.8225 36.6366 8.33384C36.3506 8.84517 35.9519 9.24817 35.4406 9.54284C34.9379 9.82884 34.3659 9.97184 33.7246 9.97184ZM31.5276 6.59184C31.5276 7.29384 31.7313 7.87017 32.1386 8.32084C32.5459 8.76284 33.0746 8.98384 33.7246 8.98384C34.3746 8.98384 34.9033 8.76284 35.3106 8.32084C35.7179 7.87017 35.9216 7.29384 35.9216 6.59184C35.9216 5.88984 35.7179 5.31784 35.3106 4.87584C34.9033 4.42517 34.3746 4.19984 33.7246 4.19984C33.0746 4.19984 32.5459 4.42517 32.1386 4.87584C31.7313 5.31784 31.5276 5.88984 31.5276 6.59184ZM41.3554 9.86784V0.663836H42.4734V5.98084L45.5024 3.31584H46.9714L44.1634 5.90284L47.1924 9.86784H45.8144L43.3444 6.64384L42.4734 7.43684V9.86784H41.3554ZM48.1317 3.31584H49.2367V4.55084C49.4707 4.1435 49.7827 3.8185 50.1727 3.57584C50.5627 3.33317 51.0003 3.21184 51.4857 3.21184C52.1703 3.21184 52.7293 3.42417 53.1627 3.84884C53.6047 4.2735 53.8257 4.8325 53.8257 5.52584V9.86784H52.7207V5.73384C52.7207 5.28317 52.5863 4.91917 52.3177 4.64184C52.049 4.35584 51.6893 4.21284 51.2387 4.21284C50.6233 4.21284 50.1337 4.46417 49.7697 4.96684C49.4143 5.46084 49.2367 6.13684 49.2367 6.99484V9.86784H48.1317V3.31584ZM58.4429 9.97184C57.8016 9.97184 57.2252 9.82884 56.7139 9.54284C56.2112 9.24817 55.8169 8.84517 55.5309 8.33384C55.2536 7.8225 55.1149 7.24184 55.1149 6.59184C55.1149 5.94184 55.2536 5.36117 55.5309 4.84984C55.8169 4.3385 56.2112 3.93984 56.7139 3.65384C57.2252 3.35917 57.8016 3.21184 58.4429 3.21184C59.0842 3.21184 59.6562 3.35917 60.1589 3.65384C60.6702 3.93984 61.0689 4.3385 61.3549 4.84984C61.6409 5.36117 61.7839 5.94184 61.7839 6.59184C61.7839 7.24184 61.6409 7.8225 61.3549 8.33384C61.0689 8.84517 60.6702 9.24817 60.1589 9.54284C59.6562 9.82884 59.0842 9.97184 58.4429 9.97184ZM56.2459 6.59184C56.2459 7.29384 56.4496 7.87017 56.8569 8.32084C57.2642 8.76284 57.7929 8.98384 58.4429 8.98384C59.0929 8.98384 59.6216 8.76284 60.0289 8.32084C60.4362 7.87017 60.6399 7.29384 60.6399 6.59184C60.6399 5.88984 60.4362 5.31784 60.0289 4.87584C59.6216 4.42517 59.0929 4.19984 58.4429 4.19984C57.7929 4.19984 57.2642 4.42517 56.8569 4.87584C56.4496 5.31784 56.2459 5.88984 56.2459 6.59184ZM62.3569 3.31584H63.4879L64.9049 8.32084L66.4389 3.31584H67.5049L69.0389 8.32084L70.4429 3.31584H71.5999L69.5849 9.86784H68.5059L66.9719 4.88884L65.4379 9.86784H64.3589L62.3569 3.31584ZM72.7006 0.663836H73.8056V9.86784H72.7006V0.663836ZM75.0882 6.59184C75.0882 5.96784 75.2138 5.40017 75.4652 4.88884C75.7252 4.36884 76.0935 3.9615 76.5702 3.66684C77.0555 3.3635 77.6188 3.21184 78.2602 3.21184C78.8842 3.21184 79.4345 3.3505 79.9112 3.62784C80.3878 3.8965 80.7518 4.26917 81.0032 4.74584C81.2632 5.21384 81.3932 5.7295 81.3932 6.29284C81.3932 6.47484 81.3845 6.64384 81.3672 6.79984H76.1932C76.2278 7.4585 76.4358 7.9915 76.8172 8.39884C77.2072 8.7975 77.6968 8.99684 78.2862 8.99684C78.7888 8.99684 79.2048 8.88417 79.5342 8.65884C79.8635 8.4335 80.0758 8.11717 80.1712 7.70984L81.2112 7.95684C81.0465 8.5895 80.7042 9.0835 80.1842 9.43884C79.6728 9.79417 79.0402 9.97184 78.2862 9.97184C77.6448 9.97184 77.0815 9.8245 76.5962 9.52984C76.1195 9.2265 75.7468 8.81917 75.4782 8.30784C75.2182 7.78784 75.0882 7.21584 75.0882 6.59184ZM80.2232 5.87684C80.1712 5.35684 79.9718 4.9365 79.6252 4.61584C79.2785 4.29517 78.8235 4.13484 78.2602 4.13484C77.7488 4.13484 77.3155 4.29084 76.9602 4.60284C76.6048 4.90617 76.3708 5.33084 76.2582 5.87684H80.2232ZM85.4678 9.97184C84.8091 9.97184 84.2414 9.82884 83.7648 9.54284C83.2881 9.24817 82.9241 8.84517 82.6728 8.33384C82.4301 7.8225 82.3088 7.24184 82.3088 6.59184C82.3088 5.94184 82.4301 5.36117 82.6728 4.84984C82.9241 4.3385 83.2838 3.93984 83.7518 3.65384C84.2284 3.35917 84.7961 3.21184 85.4548 3.21184C85.8881 3.21184 86.2998 3.30717 86.6898 3.49784C87.0884 3.6885 87.3918 3.93984 87.5998 4.25184V0.663836H88.7048V9.86784H87.5998V8.91884C87.4524 9.22217 87.1794 9.4735 86.7808 9.67284C86.3821 9.87217 85.9444 9.97184 85.4678 9.97184ZM83.4398 6.59184C83.4398 7.31117 83.6348 7.89184 84.0248 8.33384C84.4148 8.76717 84.9304 8.98384 85.5718 8.98384C86.2131 8.98384 86.7288 8.76717 87.1188 8.33384C87.5088 7.89184 87.7038 7.31117 87.7038 6.59184C87.7038 5.8725 87.5088 5.29617 87.1188 4.86284C86.7288 4.42084 86.2131 4.19984 85.5718 4.19984C84.9304 4.19984 84.4148 4.42084 84.0248 4.86284C83.6348 5.29617 83.4398 5.8725 83.4398 6.59184ZM93.1064 9.69884C92.4477 9.69884 91.8844 9.56017 91.4164 9.28284C90.9484 9.0055 90.593 8.62417 90.3504 8.13884C90.1077 7.64484 89.9864 7.08584 89.9864 6.46184C89.9864 5.83784 90.1077 5.27884 90.3504 4.78484C90.593 4.29084 90.944 3.90517 91.4034 3.62784C91.8714 3.3505 92.4304 3.21184 93.0804 3.21184C93.5137 3.21184 93.9254 3.30717 94.3154 3.49784C94.7054 3.67984 95 3.91384 95.1994 4.19984V3.31584H96.2914V9.55584C96.2914 10.1018 96.1614 10.5828 95.9014 10.9988C95.65 11.4235 95.2904 11.7528 94.8224 11.9868C94.363 12.2208 93.8344 12.3378 93.2364 12.3378C92.4737 12.3378 91.8237 12.1515 91.2864 11.7788C90.749 11.4148 90.4327 10.9382 90.3374 10.3488L91.4034 10.1668C91.438 10.5308 91.6244 10.8255 91.9624 11.0508C92.309 11.2848 92.7337 11.4018 93.2364 11.4018C93.817 11.4018 94.2894 11.2415 94.6534 10.9208C95.0174 10.6002 95.1994 10.1842 95.1994 9.67284V8.76284C95.052 9.04017 94.7834 9.2655 94.3934 9.43884C94.0034 9.61217 93.5744 9.69884 93.1064 9.69884ZM91.1174 6.46184C91.1174 7.1465 91.308 7.6925 91.6894 8.09984C92.0707 8.50717 92.5777 8.71084 93.2104 8.71084C93.843 8.71084 94.3457 8.50717 94.7184 8.09984C95.0997 7.6925 95.2904 7.1465 95.2904 6.46184C95.2904 5.77717 95.0997 5.23117 94.7184 4.82384C94.3457 4.40784 93.843 4.19984 93.2104 4.19984C92.569 4.19984 92.0577 4.40784 91.6764 4.82384C91.3037 5.23117 91.1174 5.77717 91.1174 6.46184ZM97.5751 6.59184C97.5751 5.96784 97.7008 5.40017 97.9521 4.88884C98.2121 4.36884 98.5805 3.9615 99.0571 3.66684C99.5425 3.3635 100.106 3.21184 100.747 3.21184C101.371 3.21184 101.921 3.3505 102.398 3.62784C102.875 3.8965 103.239 4.26917 103.49 4.74584C103.75 5.21384 103.88 5.7295 103.88 6.29284C103.88 6.47484 103.871 6.64384 103.854 6.79984H98.6801C98.7148 7.4585 98.9228 7.9915 99.3041 8.39884C99.6941 8.7975 100.184 8.99684 100.773 8.99684C101.276 8.99684 101.692 8.88417 102.021 8.65884C102.35 8.4335 102.563 8.11717 102.658 7.70984L103.698 7.95684C103.533 8.5895 103.191 9.0835 102.671 9.43884C102.16 9.79417 101.527 9.97184 100.773 9.97184C100.132 9.97184 99.5685 9.8245 99.0831 9.52984C98.6065 9.2265 98.2338 8.81917 97.9651 8.30784C97.7051 7.78784 97.5751 7.21584 97.5751 6.59184ZM102.71 5.87684C102.658 5.35684 102.459 4.9365 102.112 4.61584C101.765 4.29517 101.31 4.13484 100.747 4.13484C100.236 4.13484 99.8025 4.29084 99.4471 4.60284C99.0918 4.90617 98.8578 5.33084 98.7451 5.87684H102.71ZM108.41 9.97184C107.933 9.97184 107.495 9.87217 107.097 9.67284C106.698 9.4735 106.425 9.22217 106.278 8.91884V9.86784H105.173V0.663836H106.278V4.25184C106.486 3.93984 106.785 3.6885 107.175 3.49784C107.573 3.30717 107.989 3.21184 108.423 3.21184C109.081 3.21184 109.645 3.35917 110.113 3.65384C110.589 3.93984 110.949 4.3385 111.192 4.84984C111.443 5.36117 111.569 5.94184 111.569 6.59184C111.569 7.24184 111.443 7.8225 111.192 8.33384C110.949 8.84517 110.589 9.24817 110.113 9.54284C109.636 9.82884 109.068 9.97184 108.41 9.97184ZM106.174 6.59184C106.174 7.31117 106.369 7.89184 106.759 8.33384C107.149 8.76717 107.664 8.98384 108.306 8.98384C108.947 8.98384 109.463 8.76717 109.853 8.33384C110.243 7.89184 110.438 7.31117 110.438 6.59184C110.438 5.8725 110.243 5.29617 109.853 4.86284C109.463 4.42084 108.947 4.19984 108.306 4.19984C107.664 4.19984 107.149 4.42084 106.759 4.86284C106.369 5.29617 106.174 5.8725 106.174 6.59184ZM116.83 5.60384C116.83 5.15317 116.683 4.79784 116.388 4.53784C116.102 4.26917 115.716 4.13484 115.231 4.13484C114.78 4.13484 114.408 4.2605 114.113 4.51184C113.818 4.76317 113.649 5.10984 113.606 5.55184L112.579 5.35684C112.674 4.70684 112.965 4.18684 113.45 3.79684C113.944 3.40684 114.538 3.21184 115.231 3.21184C116.037 3.21184 116.687 3.43284 117.181 3.87484C117.675 4.31684 117.922 4.91484 117.922 5.66884V9.86784H116.83V8.74984C116.639 9.1225 116.345 9.4215 115.946 9.64684C115.556 9.8635 115.123 9.97184 114.646 9.97184C113.996 9.97184 113.463 9.79417 113.047 9.43884C112.64 9.07484 112.436 8.60684 112.436 8.03484C112.436 7.41084 112.692 6.92117 113.203 6.56584C113.723 6.2105 114.507 5.98084 115.556 5.87684L116.83 5.73384V5.60384ZM113.541 8.02184C113.541 8.32517 113.658 8.5765 113.892 8.77584C114.135 8.9665 114.442 9.06184 114.815 9.06184C115.448 9.06184 115.942 8.86684 116.297 8.47684C116.652 8.08684 116.83 7.5625 116.83 6.90384V6.59184L115.556 6.73484C114.897 6.80417 114.395 6.9515 114.048 7.17684C113.71 7.3935 113.541 7.67517 113.541 8.02184ZM121.785 9.97184C121.057 9.97184 120.459 9.7855 119.991 9.41284C119.532 9.04017 119.22 8.5895 119.055 8.06084L120.004 7.64484C120.299 8.57217 120.893 9.03584 121.785 9.03584C122.175 9.03584 122.492 8.9405 122.734 8.74984C122.986 8.5505 123.111 8.31217 123.111 8.03484C123.111 7.80084 123.038 7.61017 122.89 7.46284C122.752 7.3155 122.578 7.20284 122.37 7.12484C122.162 7.04684 121.872 6.96017 121.499 6.86484C121.031 6.7435 120.654 6.6265 120.368 6.51384C120.091 6.3925 119.848 6.2105 119.64 5.96784C119.441 5.7165 119.341 5.3785 119.341 4.95384C119.341 4.43384 119.549 4.0135 119.965 3.69284C120.381 3.37217 120.94 3.21184 121.642 3.21184C122.223 3.21184 122.739 3.3635 123.189 3.66684C123.64 3.9615 123.935 4.34717 124.073 4.82384L123.15 5.22684C123.064 4.8975 122.873 4.63317 122.578 4.43384C122.292 4.22584 121.972 4.12184 121.616 4.12184C121.244 4.12184 120.949 4.1955 120.732 4.34284C120.516 4.4815 120.407 4.68084 120.407 4.94084C120.407 5.20084 120.524 5.39584 120.758 5.52584C120.992 5.64717 121.356 5.76417 121.85 5.87684C122.336 5.99817 122.734 6.12384 123.046 6.25384C123.358 6.37517 123.627 6.57884 123.852 6.86484C124.078 7.14217 124.19 7.5235 124.19 8.00884C124.19 8.5895 123.969 9.06184 123.527 9.42584C123.085 9.78984 122.505 9.97184 121.785 9.97184ZM125.036 6.59184C125.036 5.96784 125.161 5.40017 125.413 4.88884C125.673 4.36884 126.041 3.9615 126.518 3.66684C127.003 3.3635 127.566 3.21184 128.208 3.21184C128.832 3.21184 129.382 3.3505 129.859 3.62784C130.335 3.8965 130.699 4.26917 130.951 4.74584C131.211 5.21384 131.341 5.7295 131.341 6.29284C131.341 6.47484 131.332 6.64384 131.315 6.79984H126.141C126.175 7.4585 126.383 7.9915 126.765 8.39884C127.155 8.7975 127.644 8.99684 128.234 8.99684C128.736 8.99684 129.152 8.88417 129.482 8.65884C129.811 8.4335 130.023 8.11717 130.119 7.70984L131.159 7.95684C130.994 8.5895 130.652 9.0835 130.132 9.43884C129.62 9.79417 128.988 9.97184 128.234 9.97184C127.592 9.97184 127.029 9.8245 126.544 9.52984C126.067 9.2265 125.694 8.81917 125.426 8.30784C125.166 7.78784 125.036 7.21584 125.036 6.59184ZM130.171 5.87684C130.119 5.35684 129.919 4.9365 129.573 4.61584C129.226 4.29517 128.771 4.13484 128.208 4.13484C127.696 4.13484 127.263 4.29084 126.908 4.60284C126.552 4.90617 126.318 5.33084 126.206 5.87684H130.171Z" fill="white"/>
</svg>
