<svg width="55" height="56" viewBox="0 0 55 56" fill="none" xmlns="http://www.w3.org/2000/svg">
<g clip-path="url(#clip0_2_8)">
<path d="M53.6707 23.6745C53.6707 23.9334 53.6707 24.2336 53.6398 24.4925C53.6089 24.7514 53.6037 25.0413 53.5831 25.3002C53.5625 25.5591 53.5316 25.8542 53.5007 26.1027C53.4698 26.3512 53.4286 26.6515 53.3925 26.8948C53.3564 27.1382 53.3049 27.4126 53.2585 27.6766C53.2122 27.9407 53.1607 28.1944 53.104 28.4429C53.0473 28.6914 52.9855 28.9607 52.9237 29.204C52.8618 29.4473 52.7897 29.7217 52.7176 29.9495C52.6454 30.1774 52.5733 30.4673 52.496 30.6744C52.4187 30.8815 52.3363 31.1559 52.2487 31.3889C52.1611 31.6218 52.0735 31.8652 51.9859 32.0878L51.7026 32.7661C51.6098 32.9784 51.4965 33.2217 51.3934 33.434C51.2904 33.6462 51.2595 33.7135 51.1874 33.8585V33.8171C51.141 33.5789 51.0895 33.2993 51.0379 33.1078C50.9864 32.9162 50.9246 32.6315 50.8679 32.4037C50.8112 32.1758 50.7391 31.9325 50.6773 31.715C50.6155 31.4976 50.533 31.2646 50.4609 31.0472C50.3888 30.8297 50.3115 30.5967 50.229 30.3844L49.9766 29.7373C49.8941 29.5405 49.7962 29.3127 49.7087 29.116C49.6211 28.9192 49.5129 28.7018 49.4201 28.5102C49.3274 28.3186 49.2244 28.1167 49.1162 27.9148C49.008 27.7129 48.9101 27.5317 48.7967 27.3401C48.6834 27.1485 48.5649 26.957 48.4618 26.7861C48.3588 26.6152 48.23 26.4185 48.1115 26.2684C47.993 26.1182 47.8693 25.9111 47.7508 25.7506C47.6323 25.5901 47.4932 25.4037 47.3799 25.2329L46.9883 24.7462C46.8543 24.5909 46.7101 24.42 46.5967 24.2958L46.303 23.9748C46.303 23.835 46.3391 23.6848 46.3546 23.5451C46.37 23.4053 46.3958 23.1308 46.4112 22.9393C46.4267 22.7477 46.437 22.5251 46.4473 22.318C46.4576 22.1109 46.4473 21.8831 46.4473 21.6915C46.4473 21.5 46.4473 21.2514 46.4473 21.0547C46.4473 20.858 46.4473 20.6198 46.4164 20.4075C46.3855 20.1952 46.3855 19.9571 46.37 19.7603C46.3546 19.5636 46.3185 19.3047 46.2927 19.108C46.267 18.9112 46.2309 18.6524 46.2 18.4504C46.1691 18.2485 46.1227 18.0052 46.0763 17.7826C46.03 17.5599 45.9836 17.3269 45.9372 17.1198C45.8909 16.9127 45.8239 16.6539 45.7672 16.4468C45.7105 16.2397 45.6384 15.986 45.5766 15.7789C45.5147 15.5718 45.4323 15.3129 45.3602 15.1006C45.2881 14.8884 45.2005 14.645 45.118 14.4275C45.0356 14.2101 44.9377 13.9616 44.8501 13.7597C44.7625 13.5577 44.6595 13.3092 44.5564 13.0866C44.5583 13.0729 44.5583 13.0589 44.5564 13.0452L44.9789 13.2626L45.6075 13.6199C45.8033 13.7338 46.03 13.8736 46.2309 14.003C46.4318 14.1324 46.6585 14.2774 46.8543 14.4068L47.4623 14.8366C47.6529 14.9764 47.8745 15.1421 48.0651 15.2922C48.2557 15.4423 48.467 15.6132 48.6576 15.7737C48.8482 15.9342 49.0543 16.1102 49.2398 16.2914L49.8117 16.8092C49.992 16.98 50.193 17.1871 50.3681 17.3632C50.5433 17.5392 50.7391 17.7515 50.9143 17.9379C51.0895 18.1243 51.2801 18.3417 51.4295 18.5384C51.5789 18.7352 51.785 18.9578 51.9447 19.1597C52.1044 19.3617 52.2848 19.5946 52.4599 19.8017C52.6351 20.0088 52.8 20.2574 52.9443 20.4645L53.408 21.1531L53.6553 21.5465C53.6553 21.707 53.6553 21.8675 53.681 22.0125C53.681 22.2766 53.681 22.582 53.681 22.8461C53.681 23.1101 53.681 23.4001 53.681 23.6745H53.6707ZM48.7143 41.8577C48.6731 42.0855 48.6267 42.3443 48.5752 42.5825C48.5237 42.8207 48.467 43.1003 48.4103 43.3073C48.3536 43.5144 48.2867 43.8251 48.2248 44.027C48.163 44.2289 48.0806 44.5447 48.0084 44.7518C47.9363 44.9589 47.8487 45.2696 47.7714 45.4767C47.6941 45.6838 47.5963 45.9944 47.5035 46.2015C47.4108 46.4086 47.3129 46.683 47.215 46.916C47.1171 47.149 46.9986 47.4338 46.8956 47.6305C46.7925 47.8272 46.6637 48.1172 46.5504 48.345C46.437 48.5728 46.303 48.8265 46.1845 49.0491C46.066 49.2717 45.9115 49.5306 45.7827 49.7481C45.6539 49.9655 45.4993 50.2244 45.3653 50.4367C45.2314 50.649 45.0665 50.9026 44.9171 51.1201L44.4431 51.7932L43.9279 52.4507C43.8351 52.5646 43.7424 52.6889 43.6393 52.8079L43.2169 52.9736C42.9696 53.072 42.7016 53.1704 42.444 53.2532C42.1864 53.3361 41.9288 53.4293 41.6712 53.5069C41.4136 53.5846 41.156 53.6674 40.8984 53.7295C40.6408 53.7917 40.3831 53.8693 40.1204 53.9263L39.3475 54.092L38.5696 54.2317C38.3274 54.2732 38.0543 54.3146 37.807 54.3457C37.5597 54.3767 37.2918 54.4078 37.0342 54.4285C36.7766 54.4492 36.519 54.4751 36.2717 54.4906C36.0244 54.5061 35.7564 54.5165 35.5194 54.5217C35.2824 54.5269 35.0403 54.5217 34.7724 54.5217H34.0304L33.2937 54.4803L32.5672 54.413L31.8511 54.3249L31.3667 54.2473L31.4234 54.2162L32.0468 53.8486C32.2375 53.7295 32.459 53.5898 32.6445 53.4655C32.83 53.3412 33.0515 53.1963 33.2319 53.0668C33.4122 52.9374 33.6183 52.7872 33.7934 52.6526C33.9686 52.518 34.1747 52.3575 34.3344 52.2281C34.4941 52.0986 34.6951 51.9278 34.8496 51.7828L35.3649 51.3272C35.5194 51.1822 35.6946 51.0114 35.8389 50.8612C35.9831 50.7111 36.1583 50.5402 36.3026 50.3849C36.4468 50.2296 36.6066 50.0535 36.7405 49.8982C36.8745 49.7429 37.029 49.5565 37.1527 49.3805C37.2763 49.2044 37.4258 49.0439 37.5494 48.8627C37.6731 48.6815 37.8122 48.5158 37.9204 48.345C38.0286 48.1741 38.1574 48.0085 38.2707 47.8272L38.6005 47.3095C38.7035 47.1386 38.8117 46.9471 38.9044 46.7918C38.9972 46.6364 39.0384 46.5588 39.1105 46.419L39.5227 46.3361L40.1101 46.2015L40.6974 46.0462L41.2899 45.8702L41.8876 45.6631L42.4801 45.4405L43.0674 45.1868C43.2632 45.1039 43.4796 45.0055 43.66 44.9175L44.2422 44.6224L44.8295 44.3014C45.015 44.1927 45.2262 44.0684 45.4117 43.9493L45.9888 43.5817C46.1794 43.4523 46.3855 43.3125 46.5555 43.1883C46.7255 43.064 46.9368 42.9087 47.1171 42.7741C47.2974 42.6394 47.5087 42.4686 47.6684 42.334L48.2145 41.868C48.3948 41.7075 48.5906 41.5263 48.7297 41.3503H48.7607C48.7349 41.5159 48.7091 41.6868 48.6834 41.8318L48.7143 41.8577ZM23.1232 54.2939L22.4019 54.3819L21.6754 54.4492L20.9438 54.4906H20.2019C19.9443 54.4906 19.6867 54.4906 19.4496 54.4906C19.2126 54.4906 18.9344 54.4906 18.6923 54.4596C18.4501 54.4285 18.177 54.4233 17.9349 54.3974C17.6927 54.3715 17.4197 54.3457 17.1621 54.3146C16.9044 54.2835 16.6468 54.2421 16.3995 54.2007L15.6215 54.0609C15.3691 54.0091 15.1063 53.9522 14.8436 53.89L14.0707 53.6985L13.2979 53.4759C13.0557 53.3982 12.7827 53.3102 12.5251 53.2221C12.2674 53.1341 12.0098 53.0409 11.7522 52.9477L11.3297 52.7769C11.2267 52.6578 11.1288 52.5335 11.0412 52.4196C10.8815 52.2177 10.7012 51.9744 10.526 51.7518C10.3508 51.5291 10.2014 51.3065 10.052 51.0839C9.90258 50.8613 9.74801 50.6283 9.60375 50.4056L9.18127 49.717C9.05246 49.4996 8.9082 49.2407 8.78454 49.0181C8.66089 48.7954 8.53208 48.5366 8.41873 48.3139C8.30539 48.0913 8.18173 47.8324 8.07354 47.5994C7.96534 47.3665 7.85199 47.1179 7.7541 46.8849C7.65621 46.652 7.54801 46.3931 7.46557 46.1653C7.38314 45.9375 7.2801 45.6786 7.19766 45.4456C7.11522 45.2127 7.03279 44.9279 6.96066 44.726C6.88853 44.524 6.80609 44.2082 6.74426 43.996C6.68244 43.7837 6.61546 43.5093 6.55878 43.2711C6.50211 43.0329 6.44028 42.7792 6.39391 42.5514C6.34754 42.3236 6.29602 42.0337 6.2548 41.8266C6.21358 41.6195 6.20328 41.5108 6.17752 41.3451C6.33724 41.5004 6.53817 41.6765 6.69274 41.8629C6.84731 42.0492 7.0637 42.1838 7.20796 42.3236L7.75925 42.7637C7.94473 42.9087 8.15082 43.0588 8.32599 43.1831C8.50117 43.3074 8.70726 43.4523 8.89274 43.5766L9.46979 43.9493L10.0468 44.291L10.629 44.6121L11.2215 44.9123L11.8141 45.1868L12.4066 45.4353L12.9991 45.6631L13.5916 45.865L14.1789 46.041L14.7714 46.1964L15.3588 46.331L15.771 46.4138L15.9771 46.7866C16.0698 46.9574 16.1831 47.149 16.281 47.3043C16.3789 47.4596 16.5026 47.6616 16.6108 47.8221L16.9611 48.3398C17.0693 48.5003 17.2033 48.6867 17.3321 48.8576C17.4609 49.0284 17.6 49.2096 17.7288 49.3753C17.8576 49.541 18.0019 49.7118 18.141 49.893C18.2801 50.0743 18.445 50.2348 18.5789 50.3797C18.7129 50.5247 18.8932 50.7111 19.0375 50.8561L19.5166 51.322C19.6763 51.4722 19.8618 51.6379 20.0318 51.7776C20.2019 51.9174 20.3822 52.078 20.5471 52.2177C20.7119 52.3575 20.9077 52.5077 21.0623 52.6474C21.2169 52.7872 21.4384 52.9322 21.6239 53.0616C21.8094 53.1911 22.0206 53.3361 22.2112 53.4603C22.4019 53.5846 22.6183 53.7244 22.8141 53.8434C23.0098 53.9625 23.2365 54.0971 23.4375 54.211L23.4941 54.2421L23.0098 54.3198L23.1232 54.2939ZM4.5185 37.752L4.58033 37.8296L4.5185 37.752ZM4.00328 32.4088C3.9466 32.6315 3.87963 32.8903 3.83326 33.113C3.78689 33.3356 3.72506 33.5996 3.68384 33.8274C3.68319 33.8395 3.68319 33.8516 3.68384 33.8637L3.47775 33.434C3.37471 33.2269 3.26651 32.9835 3.17377 32.7712C3.08103 32.559 2.97283 32.3001 2.88525 32.093C2.79766 31.8859 2.69977 31.6167 2.61733 31.394C2.5349 31.1714 2.44731 30.9022 2.37518 30.6796C2.30305 30.4569 2.21546 30.1618 2.14848 29.9495C2.0815 29.7373 2.00937 29.4318 1.94754 29.204C1.88572 28.9762 1.82389 28.6862 1.76722 28.4481C1.71054 28.2099 1.65902 27.9303 1.61265 27.6818C1.56628 27.4333 1.51476 27.1641 1.47869 26.9C1.44262 26.636 1.40141 26.3823 1.37049 26.113C1.33958 25.8438 1.43232 25.5383 1.43232 25.3054C1.43232 25.0724 1.3911 24.7514 1.37565 24.4925C1.36019 24.2336 1.34989 23.9334 1.34473 23.6693C1.33958 23.4053 1.34473 23.0998 1.34473 22.8461C1.34473 22.5924 1.34473 22.2766 1.34473 22.0125C1.34473 21.8624 1.34473 21.707 1.34473 21.5465L1.59204 21.1582C1.74145 20.9304 1.90632 20.6819 2.05574 20.4696C2.20515 20.2574 2.38033 20.0192 2.5349 19.8017L3.05012 19.1546L3.56534 18.5333L4.08056 17.9379C4.25059 17.7515 4.45152 17.5392 4.59579 17.3632C4.74005 17.1871 4.97705 16.9852 5.16253 16.8092C5.34801 16.6332 5.53864 16.4519 5.72927 16.2914L6.30632 15.7737L6.90398 15.2922C7.09462 15.1421 7.31616 14.9764 7.50679 14.8366C7.69743 14.6968 7.91897 14.5415 8.11991 14.4068C8.32085 14.2722 8.53208 14.1273 8.73302 14.003C8.93396 13.8787 9.16581 13.7338 9.36159 13.6199L9.99532 13.2626L10.4126 13.0452V13.0969C10.3148 13.3092 10.2117 13.5526 10.119 13.7649L9.85621 14.4275C9.77377 14.6398 9.68618 14.8884 9.6192 15.1006C9.55223 15.3129 9.46464 15.5614 9.39766 15.7737C9.33068 15.986 9.2637 16.2293 9.20702 16.4416C9.15035 16.6539 9.08853 16.8972 9.037 17.1146L8.89274 17.7877C8.85152 18.0052 8.81031 18.2433 8.77424 18.4504C8.73817 18.6575 8.70726 18.8905 8.6815 19.1132C8.65574 19.3358 8.62483 19.5584 8.60937 19.7603C8.59391 19.9623 8.5733 20.19 8.55785 20.4127C8.54239 20.6353 8.53208 20.8476 8.52693 21.0547C8.52178 21.2618 8.52693 21.4844 8.52693 21.6967C8.52693 21.909 8.52693 22.1161 8.52693 22.318C8.52693 22.5199 8.52693 22.7529 8.563 22.9341C8.59906 23.1153 8.59906 23.3483 8.61967 23.5451C8.64028 23.7418 8.65574 23.8401 8.6712 23.9748L8.38267 24.2906C8.25902 24.4252 8.11476 24.596 7.98595 24.7514C7.85714 24.9067 7.71288 25.0828 7.59953 25.2277C7.48618 25.3727 7.34192 25.5643 7.22342 25.7455C7.10492 25.9267 6.97096 26.0975 6.86276 26.2632C6.75457 26.4289 6.61546 26.636 6.51241 26.781C6.40937 26.9259 6.28056 27.1589 6.17752 27.3349C6.07447 27.5109 5.95597 27.7284 5.85808 27.9148C5.76019 28.1012 5.64169 28.3238 5.5541 28.505C5.46651 28.6862 5.35831 28.9089 5.27073 29.1108C5.18314 29.3127 5.08009 29.5405 4.99766 29.7373C4.91522 29.934 4.81733 30.1825 4.7452 30.3741C4.67307 30.5657 4.58033 30.8349 4.51335 31.0368C4.44637 31.2387 4.36394 31.5028 4.30211 31.7099C4.24028 31.917 4.163 32.1758 4.10633 32.3985L4.00328 32.4088ZM17.059 8.06448L17.5742 7.54673L18.1204 7.06005L18.6923 6.58892C18.8778 6.43877 19.0993 6.27309 19.2848 6.1333C19.4703 5.99351 19.697 5.82781 19.8979 5.68802C20.0988 5.54823 20.3255 5.39293 20.5316 5.26349C20.7377 5.13406 20.9696 4.97872 21.1808 4.85446L21.8506 4.46615L22.5358 4.09857C22.7625 3.97949 23.0253 3.85521 23.2468 3.75166C23.4684 3.64811 23.7621 3.5187 23.9681 3.42033C24.1742 3.32195 24.4834 3.20804 24.7101 3.11484C24.9368 3.02165 25.2253 2.91811 25.4623 2.83009L26.2351 2.57122C26.4876 2.49356 26.7504 2.40553 27.0183 2.33823L27.4562 2.21915L27.8941 2.33823C28.1415 2.40553 28.4094 2.49356 28.6773 2.57122L29.445 2.83009L30.2075 3.11484L30.9494 3.42033L31.6707 3.75166C31.8923 3.85521 32.1499 3.97949 32.3714 4.09857C32.593 4.21765 32.8454 4.34707 33.067 4.46615L33.7316 4.85446L34.3859 5.26349C34.5869 5.39293 34.8187 5.54823 35.0145 5.68802L35.6276 6.12812L36.2201 6.58892C36.4005 6.73389 36.6066 6.90473 36.7869 7.06005L37.3433 7.55192L37.8585 8.06966L38.2089 8.41654H38.1574C37.9255 8.41654 37.6679 8.35958 37.4412 8.34405C37.2145 8.32852 36.9621 8.30264 36.7354 8.29229C36.5087 8.28193 36.2665 8.29229 36.0295 8.29229H35.3855H34.6951L34.0253 8.33372C33.814 8.33372 33.5719 8.37514 33.3503 8.40103C33.1288 8.42691 32.9073 8.45797 32.6909 8.49422L32.0468 8.60292C31.8459 8.63916 31.6089 8.69094 31.408 8.73754L30.7897 8.88771L30.1714 9.05854C29.9756 9.12067 29.7541 9.18797 29.5789 9.2501C29.4037 9.31223 29.1874 9.38473 28.9916 9.4624L28.4248 9.68502L27.8787 9.92835C27.7602 9.98012 27.6262 10.0423 27.4974 10.1096C27.3686 10.0423 27.2347 9.98012 27.1213 9.92835L26.5649 9.68502C26.3794 9.60736 26.1733 9.52452 25.9981 9.4624C25.823 9.40027 25.6066 9.31741 25.4211 9.2501L24.8234 9.05854L24.2103 8.88771C24.0094 8.83593 23.7827 8.77896 23.5869 8.73754C23.3911 8.69612 23.1541 8.63916 22.9532 8.60292L22.304 8.48903L21.6445 8.40103L20.9747 8.33372L20.2998 8.29229H19.6145H18.9087C18.6768 8.29229 18.3934 8.29229 18.208 8.29229C18.0225 8.29229 17.7237 8.32334 17.5021 8.34405C17.2806 8.36476 17.0178 8.39065 16.7808 8.41654H16.7344L17.0899 8.06448H17.059ZM27.2707 54.532L27.4974 54.6149H27.5644L27.482 54.6563L27.2656 54.5579L27.2707 54.532ZM41.6197 10.4254H41.5321H41.6197V10.4565V10.4254ZM48.3588 38.0937C48.2248 38.2542 48.0651 38.4354 47.9208 38.6114L47.4674 39.0877C47.318 39.2327 47.1532 39.3984 47.0037 39.5382L46.5349 39.9627C46.3855 40.0973 46.2103 40.2475 46.0609 40.3717L45.5766 40.7601L45.0614 41.1276C44.9171 41.2312 44.7368 41.3606 44.5461 41.4694C44.3555 41.5781 44.2061 41.6972 44.0309 41.7904C43.8557 41.8836 43.6857 42.0026 43.5157 42.0906C43.3457 42.1786 43.1653 42.2874 43.0005 42.3702L42.4852 42.6291L41.97 42.8672L41.4548 43.0795L40.9396 43.2763C40.7696 43.3332 40.5841 43.4006 40.4244 43.4472L40.2337 43.5041C40.2749 43.3747 40.3162 43.24 40.3471 43.1158C40.378 42.9915 40.445 42.743 40.481 42.598C40.5171 42.4531 40.5635 42.2304 40.5944 42.0803C40.6253 41.9302 40.6614 41.7231 40.6923 41.5626C40.7232 41.4021 40.7438 41.2105 40.7644 41.0448C40.785 40.8791 40.8056 40.7031 40.8211 40.5271C40.8365 40.351 40.8468 40.1854 40.8571 40.0093C40.8674 39.8333 40.8571 39.6676 40.8571 39.4916V38.9997C40.8571 38.8444 40.8571 38.6684 40.8571 38.513C40.8571 38.3577 40.8571 38.1972 40.8262 38.047C40.7953 37.8969 40.7953 37.7313 40.7747 37.5915C40.7541 37.4517 40.7335 37.2756 40.7129 37.141C40.6923 37.0064 40.6614 36.8407 40.6304 36.6957C40.5995 36.5508 40.5686 36.4058 40.5377 36.2816C40.5068 36.1573 40.4656 35.9916 40.4295 35.8674C40.3934 35.7431 40.3471 35.5826 40.3059 35.4635C40.2646 35.3444 40.2183 35.1943 40.1719 35.07C40.1255 34.9458 40.074 34.8112 40.0276 34.7024C39.9813 34.5937 39.9194 34.4487 39.8679 34.3348C39.8688 34.3159 39.8688 34.2969 39.8679 34.2779H39.9091L40.2595 34.076L40.5995 33.8533L40.919 33.6255L41.2539 33.3718C41.3621 33.289 41.4806 33.1906 41.5785 33.1026L41.9082 32.8127L42.2173 32.5124C42.3204 32.4088 42.4389 32.2898 42.5368 32.181C42.6347 32.0723 42.748 31.9532 42.8459 31.8393C42.9438 31.7254 43.0468 31.6011 43.1447 31.4769C43.2426 31.3526 43.3457 31.2232 43.4281 31.1041L43.7166 30.7054L43.9845 30.2964L44.2422 29.8667C44.3246 29.7269 44.4173 29.5664 44.4895 29.4266C44.5616 29.2868 44.6543 29.116 44.7316 28.9555C44.8089 28.795 44.881 28.6396 44.9532 28.4791C45.0253 28.3186 45.1026 28.1478 45.1644 27.9925C45.2262 27.8371 45.2984 27.6507 45.355 27.4747C45.4117 27.2987 45.4478 27.2262 45.489 27.0968L45.6075 27.2521C45.7105 27.3971 45.8187 27.5576 45.9166 27.7025C46.0145 27.8475 46.1279 28.0183 46.2155 28.1581C46.303 28.2979 46.4164 28.4843 46.504 28.6396C46.5916 28.795 46.6998 28.9865 46.7822 29.1574C46.8646 29.3282 46.9677 29.5146 47.045 29.6751C47.1222 29.8356 47.2201 30.0324 47.2974 30.1929C47.3747 30.3534 47.4623 30.5605 47.5293 30.7106L47.756 31.2802L47.9569 31.8497L48.1424 32.4399C48.1991 32.6315 48.2609 32.8541 48.3124 33.0456C48.3639 33.2372 48.4206 33.465 48.4618 33.6618C48.503 33.8585 48.5546 34.0863 48.5958 34.2934C48.637 34.5005 48.6782 34.7335 48.7091 34.9354C48.74 35.1374 48.771 35.3807 48.7967 35.5878C48.8225 35.7949 48.8482 36.033 48.8689 36.2505C48.8895 36.4679 48.9049 36.7165 48.9204 36.9236C48.9204 37.0426 48.9204 37.1617 48.9204 37.2808L48.704 37.5604C48.5649 37.7312 48.4103 37.9176 48.2712 38.0781L48.3588 38.0937ZM22.6492 50.5661C22.4895 50.4471 22.3143 50.3072 22.1752 50.1933L21.7166 49.805C21.5724 49.6808 21.4178 49.5358 21.2787 49.4115L20.8614 49.0025C20.7326 48.8731 20.5883 48.723 20.4646 48.5883C20.341 48.4537 20.2019 48.3036 20.0885 48.169C19.9752 48.0344 19.8361 47.879 19.7279 47.7444C19.6197 47.6098 19.496 47.4545 19.3878 47.3095C19.2796 47.1645 19.1611 47.004 19.0632 46.8643L18.9447 46.6934H19.3415C19.5166 46.6934 19.7124 46.6934 19.8567 46.6623L20.3719 46.6106L20.8871 46.5433L21.4023 46.4552L21.9176 46.3517L22.3967 46.2274C22.5461 46.1912 22.7162 46.1394 22.8656 46.0928L23.3241 45.9427L23.7621 45.7822L24.1948 45.601C24.3288 45.544 24.4782 45.4767 24.6122 45.4094L25.0037 45.2126L25.3953 44.9952L25.7663 44.7726L26.1166 44.5396L26.4515 44.3014L26.7761 44.0477C26.874 43.9649 26.9874 43.8769 27.0852 43.7888L27.3686 43.53L27.4047 43.4937L27.4408 43.53L27.7344 43.794L28.0384 44.0529L28.3527 44.2962L28.6927 44.5344C28.7958 44.6121 28.9297 44.6949 29.0482 44.7726L29.4192 45.0004L29.8005 45.2075L30.2075 45.4146L30.6197 45.6061L31.0473 45.7822L31.4904 45.9427L31.9438 46.0928C32.0932 46.1394 32.2632 46.1912 32.4126 46.2274L32.897 46.3517L33.4122 46.4552L33.9274 46.5433L34.4426 46.6106L34.9578 46.6623L35.4731 46.6934H35.8698L35.7513 46.8694L35.4267 47.3043C35.3185 47.4493 35.2 47.6098 35.0866 47.7444C34.9733 47.879 34.8496 48.0344 34.7311 48.169L34.355 48.5883C34.2262 48.7281 34.082 48.8783 33.948 49.0077L33.5358 49.4115C33.3967 49.5358 33.2422 49.6808 33.0979 49.805C32.9536 49.9293 32.7888 50.0691 32.6393 50.1933L32.1602 50.5713L31.6707 50.9285C31.5162 51.0424 31.3255 51.1719 31.1555 51.2806L30.6403 51.6171C30.4651 51.7259 30.2642 51.8398 30.0941 51.933C29.9087 52.0365 29.7026 52.1504 29.5274 52.2384L28.9504 52.5284C28.7597 52.6164 28.5433 52.7199 28.3475 52.8028L27.7396 53.0616L27.415 53.1859L27.0904 53.0616C26.8998 52.984 26.6731 52.8908 26.4773 52.8028L25.8796 52.5284C25.689 52.4404 25.4778 52.3316 25.2974 52.2384C25.1171 52.1452 24.9265 52.0417 24.7358 51.9278C24.5452 51.8139 24.3649 51.7155 24.2206 51.612C24.0763 51.5084 23.8496 51.379 23.7054 51.2754C23.5611 51.1719 23.3447 51.0373 23.1902 50.9234C23.0356 50.8095 22.845 50.68 22.6749 50.561L22.6492 50.5661ZM6.00234 36.9287C6.00234 36.7165 6.03326 36.4731 6.05387 36.2557C6.07447 36.0382 6.10024 35.7949 6.126 35.5981C6.15176 35.4014 6.18782 35.1374 6.21874 34.9354C6.24965 34.7335 6.28572 34.5057 6.32693 34.2986C6.36815 34.0915 6.41452 33.8689 6.46089 33.6669C6.50726 33.465 6.55878 33.2476 6.61031 33.056C6.66183 32.8644 6.72365 32.6315 6.78033 32.4451C6.837 32.2587 6.90398 32.0516 6.96581 31.8548C7.02763 31.6581 7.10492 31.4665 7.1719 31.2802L7.38829 30.7262C7.46042 30.5501 7.54801 30.3534 7.62529 30.1774C7.70258 30.0013 7.79532 29.8098 7.87775 29.6596C7.96019 29.5095 8.04777 29.3179 8.14051 29.1419C8.23325 28.9658 8.32084 28.8053 8.41873 28.6241C8.51663 28.4429 8.61452 28.2928 8.70726 28.1426C8.8 27.9925 8.9082 27.832 9.00609 27.6818C9.10398 27.5317 9.21218 27.3815 9.31522 27.2366C9.35644 27.19 9.39251 27.133 9.43372 27.0812C9.47494 27.2158 9.52131 27.3453 9.56253 27.454C9.60375 27.5627 9.69649 27.8061 9.75832 27.9718C9.82014 28.1374 9.89742 28.3135 9.96956 28.4636C10.0417 28.6138 10.119 28.795 10.1911 28.9503L10.4281 29.4059C10.5054 29.5509 10.5981 29.7166 10.6806 29.8512C10.763 29.9858 10.8557 30.1463 10.9382 30.2757C11.0206 30.4052 11.1237 30.5605 11.2112 30.6951C11.2988 30.8297 11.4019 30.9643 11.4895 31.0886L11.7831 31.4717L12.082 31.8238L12.3859 32.1655L12.7002 32.4917L13.0197 32.8023L13.3391 33.0819L13.6689 33.3563L13.9986 33.6048C14.1016 33.6877 14.2253 33.7705 14.3335 33.843L14.6735 34.0604L15.0084 34.2623H15.0548V34.3141L14.8951 34.6817C14.8487 34.7956 14.7972 34.9354 14.7508 35.0597C14.7044 35.1839 14.6581 35.3186 14.6169 35.4428C14.5756 35.5671 14.5293 35.7172 14.4932 35.8518C14.4571 35.9864 14.4159 36.1262 14.385 36.2609C14.3541 36.3955 14.318 36.5456 14.2923 36.6906C14.2665 36.8355 14.2356 36.9805 14.2098 37.1255C14.1841 37.2704 14.1635 37.4258 14.148 37.5759C14.1326 37.7261 14.1068 37.8866 14.0965 38.0315C14.0862 38.1765 14.0965 38.3473 14.0604 38.5027C14.0244 38.658 14.0604 38.8289 14.0604 38.979C14.0604 39.1292 14.0604 39.3104 14.0604 39.4657C14.0604 39.621 14.0604 39.8022 14.0604 39.9834C14.0604 40.1646 14.0604 40.3251 14.0965 40.5012C14.1326 40.6772 14.1326 40.8429 14.1532 41.0189C14.1738 41.195 14.1995 41.371 14.2253 41.5367C14.2511 41.7024 14.2871 41.8887 14.3232 42.0544C14.3592 42.2201 14.3953 42.4013 14.4365 42.5722C14.4778 42.743 14.5241 42.9346 14.5705 43.0899C14.6169 43.2452 14.6426 43.3488 14.6838 43.4834L14.4984 43.4212L13.9831 43.2504L13.4679 43.0537L12.9527 42.8414L12.4375 42.6032C12.2778 42.5256 12.0923 42.4324 11.9222 42.3444C11.7522 42.2563 11.5667 42.1579 11.407 42.0647C11.2473 41.9716 11.0618 41.868 10.8918 41.7696C10.7218 41.6713 10.5518 41.5522 10.3766 41.4435C10.2014 41.3347 10.0314 41.2105 9.86136 41.0966L9.3719 40.7393L8.85668 40.3458C8.70211 40.2216 8.53208 40.0714 8.38267 39.9368C8.23326 39.8022 8.05293 39.6417 7.90867 39.5071C7.7644 39.3725 7.59953 39.2068 7.45012 39.0567C7.3007 38.9065 7.13583 38.7357 7.00187 38.5855C6.86792 38.4354 6.69274 38.2438 6.55878 38.0678C6.41967 37.9125 6.26511 37.7261 6.13115 37.55C6.05902 37.462 5.98174 37.3688 5.9096 37.2704C5.83747 37.1721 5.9096 37.0271 5.9096 36.9132L6.00234 36.9287ZM17.0951 10.9742L17.7237 10.9069L18.3471 10.8655H18.9653H19.5733C19.7691 10.8655 19.9855 10.8655 20.1761 10.8655C20.3667 10.8655 20.5831 10.8655 20.7635 10.9017C20.9438 10.938 21.155 10.9379 21.3457 10.9638C21.5363 10.9897 21.7321 11.0104 21.9176 11.0415L22.4843 11.1399L23.0304 11.2486L23.5457 11.3832L24.0609 11.5282L24.5761 11.6939L24.777 11.7612L24.4525 12.0149L24.0454 12.3618C23.9166 12.4705 23.7724 12.5999 23.6436 12.719C23.5148 12.8381 23.3859 12.9675 23.2726 13.0814C23.1592 13.1953 23.0201 13.3351 22.9068 13.4594L22.5667 13.8373L22.2525 14.2153L21.9485 14.6088L21.6651 15.0023C21.5775 15.1317 21.4796 15.2766 21.4075 15.3957L21.1602 15.7996L20.9335 16.1983C20.8665 16.3277 20.7892 16.4778 20.7326 16.6021C20.6759 16.7263 20.5986 16.8765 20.5419 17.0059C20.4852 17.1354 20.4183 17.2803 20.3719 17.4046C20.3255 17.5288 20.2637 17.679 20.2173 17.8084C20.171 17.9379 20.1246 18.0777 20.0834 18.2071C20.0422 18.3365 20.0009 18.4763 19.97 18.5954C19.9391 18.7145 19.8979 18.8698 19.8721 18.9889C19.8464 19.108 19.8103 19.2581 19.7897 19.3824C19.7873 19.3978 19.7873 19.4135 19.7897 19.429H19.7382C19.6145 19.429 19.4754 19.3979 19.3621 19.3927C19.2487 19.3876 19.0838 19.3927 18.9602 19.3668C18.7077 19.3668 18.3934 19.3668 18.141 19.3668H17.7133L17.2857 19.4082L16.8529 19.4652L16.4201 19.5429L15.9667 19.6361C15.8225 19.6671 15.6576 19.7086 15.5185 19.75L15.0651 19.8794L14.6117 20.0295C14.4623 20.0813 14.2974 20.1435 14.148 20.2056L13.6946 20.392L13.2361 20.6042L12.7724 20.8372C12.6281 20.9149 12.4632 21.0029 12.3138 21.0909C12.1644 21.1789 12.0047 21.2721 11.8604 21.3653C11.7162 21.4585 11.5513 21.5621 11.4122 21.6553L11.0876 21.8779V21.6708C11.0876 21.4896 11.0876 21.2928 11.0876 21.122C11.0876 20.9511 11.0876 20.744 11.0876 20.5732C11.0876 20.4023 11.0876 20.1797 11.1288 20.0088C11.17 19.838 11.17 19.6153 11.1906 19.4445C11.2112 19.2736 11.2473 19.0458 11.2782 18.8646C11.3091 18.6834 11.34 18.4763 11.3813 18.2847C11.4225 18.0932 11.4585 17.8913 11.4998 17.7152C11.541 17.5392 11.6028 17.3062 11.6492 17.125C11.6956 16.9438 11.7625 16.716 11.8192 16.5348C11.8759 16.3536 11.948 16.1309 12.0098 15.9445C12.0717 15.7581 12.1489 15.5407 12.2211 15.3595C12.2932 15.1783 12.3756 14.9557 12.4529 14.7693C12.5302 14.5829 12.6281 14.3654 12.7105 14.1842C12.793 14.003 12.9012 13.77 12.9939 13.594C13.0867 13.418 13.1948 13.1901 13.2927 13.0089C13.3906 12.8277 13.5143 12.6103 13.6173 12.4342C13.7204 12.2582 13.8543 12.0408 13.9677 11.8596C14.0244 11.7612 14.0913 11.6628 14.1583 11.5593L14.4932 11.4661L15.1372 11.3056L15.7813 11.1709L16.4201 11.0571L17.0487 10.969L17.0951 10.9742ZM43.8403 21.8779L43.5208 21.6553L43.0674 21.3602L42.6089 21.0858L42.1607 20.8424C42.0164 20.7647 41.8464 20.6767 41.697 20.6094C41.5475 20.5421 41.3827 20.4593 41.2384 20.3972C41.0941 20.335 40.9241 20.2625 40.7747 20.2056C40.6253 20.1486 40.4656 20.0813 40.3213 20.0347L39.8628 19.8794L39.4094 19.75C39.2651 19.7086 39.1054 19.6671 38.9611 19.6361L38.518 19.5429L38.0749 19.4652L37.6422 19.4082L37.2145 19.3668H36.792H36.3799C36.2443 19.3591 36.1084 19.3591 35.9728 19.3668H35.5761L35.1845 19.4082H35.1382C35.1406 19.3911 35.1406 19.3737 35.1382 19.3565C35.1382 19.2374 35.0866 19.0976 35.0557 18.963C35.0248 18.8284 34.9939 18.7041 34.9578 18.5695L34.8445 18.1812L34.7105 17.7826L34.556 17.3839L34.3859 16.98C34.3293 16.8558 34.2623 16.7108 34.1799 16.5451C34.0974 16.3795 34.0511 16.2863 33.9944 16.1879C33.9261 16.0493 33.8504 15.9145 33.7677 15.784C33.6955 15.6546 33.6028 15.5096 33.5204 15.375C33.4379 15.2404 33.3452 15.111 33.2628 14.9815L32.9794 14.588C32.8918 14.4638 32.7785 14.324 32.6806 14.1997C32.5827 14.0755 32.4642 13.9357 32.3251 13.7752L32.0159 13.4335C31.9077 13.3144 31.7789 13.1798 31.6553 13.0607C31.5316 12.9416 31.4028 12.8122 31.2843 12.6983C31.1658 12.5844 31.0164 12.4498 30.8927 12.3462L30.4754 11.9942L30.1508 11.7405L30.3518 11.6731L30.867 11.5075L31.3822 11.3625L31.9232 11.2279L32.4745 11.114L33.0309 11.0208C33.2215 10.9897 33.4276 10.9638 33.608 10.9431C33.7883 10.9224 34.0098 10.8965 34.1902 10.881L34.7827 10.8396H35.3803H35.9883H36.6066L37.23 10.881L37.8585 10.9483L38.5283 11.0415L39.1724 11.1554L39.8112 11.29L40.4553 11.4505L40.7902 11.5437C40.8571 11.6473 40.9241 11.7456 40.9808 11.844C41.0375 11.9424 41.223 12.2323 41.3311 12.4187C41.4393 12.6051 41.5527 12.807 41.6557 12.9934C41.7588 13.1798 41.8618 13.3869 41.9597 13.5836C42.0576 13.7804 42.1452 13.9668 42.2379 14.1635L42.4955 14.7485C42.5677 14.9298 42.6553 15.1472 42.7274 15.3388C42.7995 15.5303 42.8768 15.7426 42.9438 15.9342C43.0108 16.1258 43.0726 16.3277 43.1293 16.5193C43.1859 16.7108 43.2478 16.9231 43.2993 17.1043C43.3508 17.2855 43.4023 17.4978 43.4436 17.6945C43.4848 17.8913 43.5311 18.088 43.5672 18.2744C43.6033 18.4608 43.6445 18.6731 43.6754 18.8543C43.7063 19.0355 43.7321 19.2374 43.7578 19.429C43.7836 19.6205 43.8042 19.8121 43.8197 19.9933C43.8351 20.1745 43.8506 20.3713 43.8609 20.5577C43.8712 20.744 43.8609 20.9304 43.8866 21.1168C43.9124 21.3032 43.8866 21.4792 43.8866 21.6346V21.8365L43.8403 21.8779ZM16.6211 40.2164C16.6211 40.087 16.6211 39.9368 16.5902 39.8074C16.5592 39.678 16.5902 39.5278 16.5902 39.4087V39.0101C16.5902 38.8858 16.5902 38.7512 16.5902 38.627C16.5902 38.5027 16.5902 38.3732 16.5902 38.2542C16.5902 38.1351 16.5902 38.0108 16.6314 37.8814C16.6726 37.752 16.6623 37.6484 16.6829 37.5345C16.7035 37.4206 16.719 37.3015 16.7447 37.1928C16.7705 37.0841 16.7911 36.9702 16.8169 36.8614L16.8993 36.5456C16.8993 36.4472 16.9611 36.3385 16.9972 36.2298C17.0333 36.1211 17.0642 36.033 17.0951 35.9399L17.2033 35.6603C17.2393 35.5722 17.2806 35.479 17.3166 35.4014L17.4351 35.1581L17.6361 35.1995L17.9503 35.2461L18.2595 35.2771C18.359 35.2822 18.4588 35.2822 18.5583 35.2771H18.7592H19.156L19.4393 35.2461L19.7227 35.2098L19.9855 35.1529C20.0707 35.137 20.155 35.1163 20.2379 35.0907L20.5007 35.0079L20.7377 34.9147L21.0108 34.8578L21.222 34.7439L21.4487 34.5989L21.629 34.4694C21.696 34.4177 21.763 34.3555 21.8248 34.2986C21.8867 34.2416 21.9433 34.1899 22 34.1277L22.1546 33.9465L22.2937 33.7498C22.3384 33.6839 22.378 33.6147 22.4122 33.5427C22.454 33.4653 22.4918 33.3858 22.5255 33.3045C22.5255 33.232 22.5822 33.144 22.5977 33.0819C22.6249 32.9973 22.6455 32.9108 22.6595 32.823C22.6595 32.7402 22.6595 32.647 22.6595 32.6056C22.6698 32.5092 22.6698 32.412 22.6595 32.3156C22.6549 32.2322 22.6446 32.1491 22.6286 32.0671C22.6286 31.9843 22.5925 31.8962 22.5667 31.8082C22.5386 31.7237 22.5059 31.6407 22.4689 31.5597C22.4379 31.4924 22.3967 31.4199 22.3503 31.3371C22.304 31.2543 22.2473 31.187 22.1958 31.1197C22.1443 31.0523 22.0824 30.9902 22.0155 30.9281C21.9615 30.8714 21.9029 30.8195 21.8403 30.7727C21.7658 30.7113 21.6865 30.6559 21.6033 30.6071L21.4178 30.5035L21.222 30.4155L20.9696 30.3327L20.7429 30.2809C20.6612 30.2638 20.5786 30.2517 20.4955 30.2447H20.2431H19.9958H19.7794L19.5166 30.2809L19.2693 30.3327L19.022 30.4L18.7696 30.488L18.5119 30.5915L18.2595 30.7158L17.7906 30.985L17.5433 31.1507L17.3012 31.3319L17.0642 31.5338C16.9869 31.596 16.9044 31.6736 16.8323 31.7409L16.4665 32.1189L16.2347 31.9946L15.9925 31.8548L15.7452 31.6892L15.23 31.3267L14.9724 31.1093C14.8951 31.042 14.8023 30.9643 14.7251 30.8867C14.6478 30.809 14.555 30.7262 14.4778 30.6485C14.4005 30.5708 14.3077 30.4828 14.2304 30.3948C14.1532 30.3068 14.0656 30.2136 13.9934 30.1256L13.7513 29.8408L13.5194 29.5353C13.4473 29.437 13.3649 29.3231 13.2927 29.2143C13.2206 29.1056 13.1433 28.9917 13.0763 28.883C13.0094 28.7743 12.9321 28.65 12.86 28.5361L12.659 28.1685C12.592 28.0494 12.5251 27.9148 12.4632 27.7957L12.2778 27.3971L12.1026 26.9932L11.9429 26.5687C11.8913 26.4392 11.8398 26.2787 11.7883 26.1338C11.7368 25.9888 11.6955 25.8335 11.6543 25.6833C11.6131 25.5332 11.5667 25.3727 11.5255 25.2225C11.4843 25.0724 11.4689 24.9895 11.4431 24.8756C11.5307 24.7928 11.6234 24.7152 11.711 24.6427C11.7986 24.5702 11.9583 24.4356 12.082 24.3424L12.4529 24.0628L12.8187 23.8039L13.1948 23.5606C13.3185 23.4829 13.4576 23.4001 13.5813 23.3328C13.7049 23.2655 13.8337 23.1878 13.9625 23.1205L14.3335 22.9341L14.7096 22.7581L15.0754 22.6079L15.4515 22.4681L15.8122 22.3491L16.1728 22.2403L16.5283 22.1523L16.8787 22.0798L17.229 22.0177L17.5691 21.9763C17.6773 21.9763 17.7958 21.9763 17.8988 21.9452H18.2234C18.4295 21.9452 18.6407 21.9452 18.8417 21.9452H19.1354L19.429 21.9763L19.6763 22.0125C19.6763 22.085 19.6763 22.1575 19.6763 22.2144C19.6763 22.2714 19.7124 22.4422 19.733 22.551C19.7536 22.6597 19.7742 22.7581 19.7948 22.8564C19.8155 22.9548 19.8464 23.0583 19.8773 23.1619C19.9082 23.2654 19.934 23.3586 19.9649 23.4518L20.0679 23.7366L20.1761 23.9903C20.2173 24.0731 20.2585 24.1663 20.3049 24.2492C20.3513 24.332 20.3874 24.4097 20.4337 24.4873C20.4801 24.565 20.5316 24.653 20.578 24.7203C20.6244 24.7876 20.681 24.8705 20.7274 24.9326C20.7772 25.0026 20.8305 25.07 20.8871 25.1345L21.0571 25.3261L21.2323 25.5021L21.4333 25.673L21.6239 25.8128C21.6895 25.8607 21.7583 25.904 21.83 25.9422L22.0361 26.0561C22.111 26.0942 22.1885 26.127 22.2679 26.1545L22.4843 26.227L22.7368 26.2839L22.9789 26.315H23.2159H23.4581C23.5469 26.3022 23.6347 26.2832 23.7208 26.258C23.8003 26.2392 23.8779 26.2132 23.9527 26.1804C24.0371 26.1469 24.1197 26.1089 24.2 26.0665C24.2697 26.0258 24.3368 25.9809 24.4009 25.9318C24.4771 25.8805 24.5478 25.8215 24.6122 25.7558C24.676 25.6956 24.7362 25.6316 24.7925 25.5642L24.9419 25.3572C24.9831 25.2847 25.0295 25.2122 25.0656 25.1345C25.1005 25.0603 25.1314 24.9843 25.1583 24.9067C25.1583 24.8291 25.215 24.741 25.2356 24.653C25.2562 24.565 25.2717 24.4873 25.2768 24.4304C25.282 24.3734 25.2768 24.2647 25.2768 24.1715C25.2768 24.0783 25.2768 24.0162 25.2768 23.9334C25.2768 23.8505 25.2768 23.7728 25.2768 23.6952C25.2768 23.6175 25.2768 23.5347 25.2304 23.4518C25.2193 23.3746 25.2021 23.2985 25.1789 23.2241C25.1789 23.1464 25.1274 23.0635 25.0965 22.9755C25.0656 22.8875 25.0398 22.8254 25.0089 22.7529L24.9007 22.5303C24.8646 22.4578 24.8183 22.3801 24.7719 22.2973L24.6276 22.0746C24.5813 22.0073 24.5246 21.9297 24.4782 21.8727C24.4254 21.8006 24.3686 21.7315 24.3082 21.6656C24.2515 21.5983 24.1845 21.5207 24.1227 21.4585L23.9115 21.2514C23.8445 21.1893 23.7724 21.122 23.7002 21.065L23.4684 20.8787L23.2314 20.7026L22.9686 20.5318L22.6955 20.3713L22.4173 20.2263L22.2319 20.1331C22.2319 20.0503 22.2318 19.9571 22.2782 19.8639C22.3246 19.7707 22.3143 19.6671 22.3349 19.5843L22.4122 19.284L22.4946 18.9941C22.5255 18.8957 22.5667 18.7818 22.5977 18.6886C22.6286 18.5954 22.6749 18.4763 22.7162 18.3779C22.7574 18.2796 22.8037 18.1657 22.8501 18.0673C22.8965 17.9689 22.948 17.8498 22.9944 17.7566C23.0407 17.6634 23.1026 17.5392 23.1541 17.4408C23.2056 17.3425 23.2726 17.2182 23.3344 17.1146L23.5302 16.7988L23.7415 16.4778L23.9681 16.162C24.0454 16.0636 24.1279 15.9497 24.2155 15.8462L24.4679 15.5407C24.5555 15.4372 24.6585 15.3233 24.7513 15.2249C24.844 15.1265 24.9471 15.0178 25.045 14.9194L25.3489 14.6243L25.6787 14.3292L26.0239 14.0392L26.3845 13.7597L26.7658 13.4852C26.8895 13.3972 27.0337 13.2989 27.1574 13.2212L27.4459 13.04L27.7396 13.2212L28.1311 13.4852C28.2548 13.5733 28.3888 13.6665 28.5073 13.7597C28.6258 13.8529 28.7546 13.946 28.8679 14.0392C28.9813 14.1324 29.1049 14.236 29.2131 14.324L29.5377 14.6191C29.6407 14.7123 29.7541 14.8262 29.852 14.9246C29.9499 15.023 30.0529 15.1317 30.1457 15.2301C30.2384 15.3284 30.3363 15.4372 30.4187 15.5355L30.6815 15.8513C30.7588 15.9445 30.8464 16.0584 30.9288 16.1723L31.1503 16.483L31.3616 16.7936L31.5574 17.1146C31.6141 17.2182 31.681 17.3321 31.7325 17.4356C31.7841 17.5392 31.8459 17.6479 31.8974 17.7515C31.9489 17.855 32.0005 17.9689 32.0468 18.0673L32.1756 18.3779C32.2169 18.4763 32.2581 18.5851 32.2941 18.6834L32.392 18.9889C32.4229 19.0821 32.4539 19.1856 32.4848 19.2944C32.5157 19.4031 32.5363 19.4859 32.5569 19.5895L32.6187 19.869L32.6651 20.1331L32.4796 20.2211L32.1859 20.3765L31.9232 20.5318L31.6656 20.7026L31.4183 20.8787L31.1864 21.0702L30.9752 21.2566L30.7794 21.4482C30.7116 21.515 30.648 21.5859 30.5888 21.6605C30.5321 21.7278 30.4651 21.8002 30.4136 21.8727L30.2693 22.0695C30.2178 22.1419 30.1663 22.2248 30.1199 22.2973L29.9911 22.5303L29.8829 22.7529C29.852 22.8254 29.8159 22.9134 29.7953 22.9755C29.7747 23.0376 29.7386 23.136 29.7129 23.2241L29.6562 23.4518C29.6562 23.5295 29.6562 23.6123 29.6201 23.6848C29.5841 23.7573 29.6201 23.8505 29.6201 23.9437C29.6201 24.0369 29.6201 24.099 29.6201 24.187C29.6139 24.2646 29.6139 24.3425 29.6201 24.42C29.6301 24.5021 29.6456 24.5834 29.6665 24.6634C29.6848 24.7478 29.7089 24.8308 29.7386 24.9119C29.7386 24.9844 29.8005 25.0672 29.8365 25.1449C29.8726 25.2225 29.9138 25.2898 29.955 25.352C30.0011 25.4282 30.0528 25.5009 30.1096 25.5694C30.1611 25.6264 30.2178 25.6937 30.2848 25.7558C30.3439 25.8144 30.4077 25.868 30.4754 25.9163C30.5482 25.9746 30.6258 26.0265 30.7073 26.0716L30.9494 26.1855L31.1916 26.2632L31.408 26.3098C31.5007 26.3098 31.6037 26.3098 31.6759 26.3098H31.9438L32.1653 26.2787L32.4075 26.2218L32.629 26.1493L32.866 26.0509L33.0721 25.937L33.2731 25.8128L33.4688 25.6626C33.5307 25.616 33.6028 25.5539 33.6595 25.5021L33.845 25.3157L33.9995 25.1397C34.0588 25.0743 34.1139 25.0051 34.1644 24.9326C34.2159 24.8705 34.2674 24.7876 34.319 24.7203L34.4632 24.4873L34.6023 24.2284L34.7157 23.9903C34.7569 23.9075 34.7981 23.8039 34.829 23.7211C34.8599 23.6382 34.9012 23.5295 34.9269 23.4467C34.9527 23.3638 34.9939 23.2499 35.0248 23.1516C35.0557 23.0532 35.0763 22.9496 35.1021 22.8461L35.1639 22.5406C35.1639 22.4423 35.2052 22.3232 35.2206 22.2041C35.2361 22.085 35.2206 22.0746 35.2206 22.0073L35.4731 21.9711L35.7616 21.94H36.0604C36.2562 21.94 36.4778 21.94 36.6787 21.94H37.0033C37.1063 21.94 37.2248 21.94 37.3279 21.9711L37.6679 22.0125L38.0131 22.0746L38.3635 22.1471L38.719 22.2351L39.0848 22.3439L39.4506 22.463L39.8215 22.6028L40.1977 22.7581L40.5686 22.9289L40.9447 23.1205L41.3208 23.3276L41.697 23.5554C41.8155 23.6279 41.9546 23.7159 42.0731 23.7987C42.1916 23.8816 42.3307 23.9748 42.444 24.0576C42.5574 24.1405 42.7016 24.244 42.8201 24.3424C42.9386 24.4407 43.0726 24.5443 43.1859 24.6375L43.4539 24.8705C43.4281 24.9896 43.3972 25.1138 43.3714 25.2174C43.3457 25.3209 43.289 25.5332 43.2478 25.6782C43.2066 25.8231 43.1499 25.994 43.1035 26.1286C43.0571 26.2632 43.0056 26.4289 42.9541 26.5635C42.9026 26.6981 42.8407 26.8586 42.7944 26.988C42.748 27.1175 42.6759 27.2676 42.6192 27.3919C42.5625 27.5161 42.4956 27.6611 42.4286 27.7957C42.3616 27.9303 42.2998 28.0546 42.2379 28.1685L42.037 28.5309C41.97 28.6448 41.8927 28.7743 41.8206 28.883C41.7485 28.9917 41.6712 29.1108 41.6042 29.2092L41.3724 29.5353C41.3002 29.6337 41.2178 29.7424 41.1457 29.8304L40.9035 30.1204C40.8314 30.2084 40.7438 30.3068 40.6614 30.3948L40.4244 30.6433L40.1667 30.8867L39.9143 31.1145L39.6721 31.3164L39.4145 31.5131L39.1621 31.6892L38.8838 31.8652L38.6623 31.9946L38.4459 32.1137L38.3016 31.9635L38.0801 31.7409L37.8379 31.5183L37.6061 31.3267L37.3639 31.1455C37.2867 31.0886 37.1991 31.0316 37.1218 30.985C37.0445 30.9384 36.9569 30.8763 36.8796 30.8349L36.6426 30.7054L36.3799 30.5812L36.1274 30.4828L35.8801 30.3948L35.6379 30.3275L35.3803 30.2757L35.1382 30.2395H34.8909H34.6436H34.4169C34.3373 30.2449 34.2581 30.2553 34.1799 30.2705L33.9222 30.3327L33.6955 30.4103C33.6197 30.4385 33.5458 30.4713 33.474 30.5087C33.4122 30.5398 33.3452 30.576 33.2628 30.6278C33.1803 30.6796 33.1288 30.721 33.0773 30.7572C33.0066 30.8115 32.9395 30.8703 32.8763 30.9332C32.8188 30.9897 32.7655 31.0503 32.7166 31.1145C32.6085 31.246 32.5168 31.3903 32.4436 31.5442C32.4065 31.6269 32.3738 31.7116 32.3457 31.7979C32.3166 31.8845 32.2925 31.9726 32.2735 32.0619L32.2426 32.3156C32.2375 32.4019 32.2375 32.4883 32.2426 32.5745C32.2426 32.647 32.2426 32.735 32.2787 32.8696C32.2787 32.9162 32.2787 32.9939 32.3302 33.0819C32.3521 33.1591 32.3779 33.2351 32.4075 33.3097C32.4384 33.377 32.4745 33.4598 32.5054 33.5168C32.5453 33.5971 32.59 33.6749 32.6393 33.7498C32.6805 33.816 32.7252 33.88 32.7733 33.9413L32.9382 34.1329C32.9874 34.1887 33.0408 34.2406 33.0979 34.2882C33.1569 34.3449 33.2189 34.3985 33.2834 34.4487L33.4792 34.5937L33.7007 34.7335C33.7707 34.7755 33.8429 34.8135 33.9171 34.8474C33.9841 34.8836 34.0665 34.9199 34.2159 34.982L34.3859 35.0493L34.6333 35.127L34.8909 35.1943L35.1691 35.2512L35.4318 35.2875L35.7307 35.3186H36.0192C36.1205 35.3237 36.2219 35.3237 36.3232 35.3186C36.4227 35.3238 36.5225 35.3238 36.622 35.3186L36.9363 35.2875L37.2506 35.2409L37.4515 35.1995C37.4927 35.2771 37.5288 35.36 37.57 35.4428C37.6112 35.5256 37.6473 35.6137 37.6782 35.6965L37.7916 35.9813C37.8225 36.0744 37.8637 36.1832 37.8946 36.2816C37.9255 36.3799 37.9564 36.4887 37.9874 36.587C38.0183 36.6854 38.044 36.8045 38.0698 36.9029L38.1419 37.229C38.1419 37.3378 38.1883 37.462 38.2089 37.5863C38.2295 37.7105 38.245 37.8193 38.2604 37.9332L38.3223 38.6683C38.3223 38.7874 38.3223 38.9272 38.3223 39.0567V39.4398C38.3223 39.5692 38.3223 39.7142 38.3223 39.8488C38.3223 39.9834 38.3222 40.1284 38.2913 40.2526C38.2604 40.3769 38.2656 40.5374 38.245 40.6772C38.2244 40.817 38.2089 40.962 38.1883 41.0966C38.1677 41.2312 38.1368 41.3865 38.1059 41.5263C38.0749 41.6661 38.044 41.8214 38.0131 41.9612C37.9822 42.101 37.941 42.2615 37.8998 42.4013C37.8585 42.5411 37.8173 42.7016 37.771 42.8465C37.7246 42.9915 37.6731 43.152 37.6215 43.2918C37.57 43.4316 37.5133 43.5973 37.4618 43.7319C37.4103 43.8665 37.3742 43.9494 37.3279 44.0633L36.9878 44.0891H36.5138H36.0604H35.6019H35.1536L34.726 44.0477L34.2932 43.9856L33.881 43.9183L33.4792 43.8303L33.0876 43.7371L32.7115 43.6283L32.3508 43.5093L31.985 43.3747L31.6501 43.2349L31.3152 43.0847L31.0009 42.9242L30.7073 42.7585L30.4239 42.5877C30.3363 42.5307 30.2384 42.4686 30.1457 42.4013C30.0529 42.334 29.9705 42.2822 29.8932 42.2252L29.6459 42.0337L29.0122 41.459L29.1152 41.2674C29.1667 41.1691 29.2183 41.0603 29.2595 40.9671C29.3007 40.8739 29.3471 40.7756 29.3831 40.6876C29.4243 40.5929 29.4604 40.4961 29.4913 40.3976C29.5274 40.3044 29.5635 40.1957 29.5892 40.1025C29.615 40.0093 29.6459 39.911 29.6665 39.8229C29.6871 39.7349 29.7129 39.6262 29.7386 39.5175C29.7644 39.4087 29.7696 39.3362 29.7799 39.2586C29.7902 39.1809 29.7799 39.0722 29.8159 38.9738V38.715V38.4509C29.8159 38.3681 29.8159 38.2749 29.8159 38.1765C29.8159 38.0781 29.8159 38.0056 29.785 37.9332C29.7541 37.8607 29.785 37.7623 29.7438 37.6743L29.7696 37.4465C29.7696 37.3636 29.718 37.2705 29.6923 37.198C29.6689 37.1274 29.6413 37.0582 29.6098 36.9909C29.5779 36.9147 29.5418 36.8404 29.5016 36.7682L29.3728 36.5456C29.3316 36.4835 29.2852 36.4162 29.2337 36.3489L29.0843 36.178C29.0228 36.112 28.9574 36.0497 28.8885 35.9916C28.8215 35.9398 28.7546 35.8829 28.703 35.8518C28.6322 35.8006 28.5582 35.7539 28.4815 35.712C28.4044 35.6732 28.3253 35.6386 28.2445 35.6085C28.172 35.5803 28.098 35.5561 28.0229 35.536C27.9331 35.5116 27.842 35.4925 27.7499 35.4791C27.5786 35.4606 27.4059 35.4606 27.2347 35.4791C27.1529 35.4912 27.0721 35.5084 26.9925 35.5308C26.9079 35.5491 26.8251 35.5751 26.7452 35.6085C26.6625 35.6401 26.5816 35.6764 26.503 35.7172C26.4303 35.7564 26.3598 35.7996 26.2918 35.8466C26.23 35.8881 26.1578 35.945 26.096 35.9968C26.0323 36.0498 25.9721 36.1069 25.9157 36.1677C25.8642 36.2246 25.8023 36.2919 25.7508 36.3592C25.704 36.4168 25.661 36.4773 25.622 36.5404C25.5753 36.6088 25.5324 36.6797 25.4932 36.7527L25.3902 36.9598C25.3592 37.0323 25.3283 37.1151 25.2923 37.2083C25.2562 37.3015 25.2407 37.3688 25.2201 37.4413C25.1995 37.5138 25.1789 37.6018 25.1635 37.6898C25.148 37.7778 25.1274 37.8555 25.1171 37.928C25.1068 38.0005 25.1171 38.0988 25.1171 38.1817C25.1115 38.273 25.1115 38.3647 25.1171 38.4561V38.7201L25.2201 39.5433C25.2201 39.6365 25.2614 39.7401 25.282 39.8178C25.3026 39.8954 25.3283 40.0093 25.3799 40.1646L25.5653 40.6824L25.689 40.9723C25.7354 41.0603 25.7869 41.1691 25.8281 41.2571C25.8693 41.3451 25.8951 41.3865 25.9363 41.4486L25.5293 41.8369C25.4623 41.8939 25.3799 41.9664 25.2974 42.0285L25.0656 42.2149L24.7977 42.4065L24.5297 42.5773L24.2412 42.7534L23.9424 42.919L23.6281 43.0795L23.3035 43.2297L22.9583 43.3695L22.608 43.4989L22.2422 43.618L21.8609 43.7319L21.4745 43.8251L21.0674 43.9131L20.6501 43.9804C20.5162 43.9804 20.3616 44.0218 20.2276 44.0374C20.0937 44.0529 19.9288 44.0736 19.7948 44.084H19.3518H18.8984H18.4347H17.9658L17.6206 44.0581L17.4918 43.7319C17.4351 43.5921 17.3785 43.4316 17.3218 43.2815C17.2651 43.1313 17.2239 42.9863 17.1775 42.8362C17.1311 42.686 17.0848 42.5359 17.0487 42.3961C17.0126 42.2563 16.9663 42.0958 16.9354 41.956C16.9044 41.8163 16.8684 41.6609 16.8426 41.5263C16.8169 41.3917 16.7859 41.226 16.7653 41.0914C16.7447 40.9568 16.719 40.8066 16.7035 40.672C16.6881 40.5374 16.6674 40.3821 16.6571 40.2526L16.6211 40.2164ZM55.0155 22.8306C55.0155 22.551 55.0155 22.23 54.9897 21.9556C54.9639 21.6812 54.9897 21.5155 54.9536 21.2877V21.1272L54.8712 20.9925C54.7578 20.8062 54.6342 20.6094 54.5157 20.4282C54.3972 20.247 54.1859 19.9105 54.0262 19.7085C53.8665 19.5066 53.6913 19.2322 53.511 19.0044C53.3307 18.7766 53.1555 18.5385 52.9958 18.3262C52.8361 18.1139 52.63 17.8809 52.4548 17.6738C52.2796 17.4667 52.0787 17.2389 51.8932 17.0422C51.7077 16.8454 51.5016 16.6228 51.3213 16.4312C51.141 16.2397 50.9194 16.0326 50.7288 15.8513C50.5382 15.6701 50.3269 15.4682 50.126 15.2922C49.9251 15.1162 49.7035 14.9194 49.5129 14.7745L48.8843 14.2567C48.6834 14.0962 48.4515 13.9202 48.2454 13.7752C48.0393 13.6302 47.8075 13.4594 47.6014 13.3196C47.3953 13.1798 47.1635 13.0245 46.9471 12.8899C46.7307 12.7552 46.4937 12.6103 46.2824 12.486L45.6126 12.1081L44.9377 11.756L44.2576 11.4298L43.5827 11.1347L41.6197 10.3426L40.3625 8.78933L39.8473 8.22498C39.6927 8.05412 39.5021 7.84702 39.3321 7.66581C39.1621 7.48459 38.9663 7.28785 38.8169 7.14806C38.6674 7.00827 38.4356 6.77528 38.2553 6.63032C38.0749 6.48535 37.8689 6.27825 37.6731 6.11257C37.4773 5.94689 37.2609 5.76051 37.0651 5.59483C36.8693 5.42915 36.6375 5.2583 36.4417 5.11333L35.7925 4.64738C35.5813 4.49723 35.3391 4.33673 35.1279 4.19694C34.9166 4.05715 34.6539 3.89664 34.4375 3.76721C34.2211 3.63777 33.9222 3.47725 33.7316 3.35817C33.541 3.23909 33.2164 3.08897 33 2.96471C32.7836 2.84045 32.4848 2.70582 32.2581 2.5971C32.0314 2.48837 31.7429 2.35377 31.4904 2.25022C31.2379 2.14667 30.9752 2.02759 30.7124 1.92922C30.4496 1.83085 30.1972 1.72729 29.9138 1.62892L29.1049 1.3545L28.2806 1.11117L27.6468 0.940309L27.482 0.89373L27.3171 0.940309L26.6834 1.10599L25.8642 1.3545L25.045 1.62892C24.7822 1.72211 24.4937 1.83085 24.2515 1.92922L23.4735 2.25022C23.2262 2.35894 22.9583 2.48319 22.711 2.5971L21.9588 2.96471L21.2375 3.35302L20.5265 3.76721C20.3101 3.89664 20.0576 4.05715 19.8361 4.19694C19.6145 4.33673 19.3775 4.50241 19.1714 4.64738L18.5222 5.11333L17.8937 5.60001C17.703 5.75016 17.4867 5.93654 17.2909 6.11775L16.7138 6.6355C16.5335 6.80118 16.3274 6.99792 16.1522 7.15324L15.637 7.69687C15.4618 7.88326 15.2763 8.08519 15.1218 8.25604C14.9672 8.4269 14.7817 8.63916 14.6066 8.83073L13.2824 10.384L11.4482 11.1295L10.763 11.4246C10.5466 11.523 10.2993 11.6421 10.0829 11.7508L9.40796 12.1029C9.19157 12.222 8.94426 12.3566 8.73817 12.4809C8.53209 12.6051 8.28993 12.7501 8.07354 12.8847C7.85714 13.0193 7.62014 13.1798 7.42436 13.3144L6.77002 13.77L6.13115 14.2515C5.94052 14.4069 5.70867 14.5932 5.50773 14.7693C5.30679 14.9453 5.0904 15.1213 4.89462 15.287C4.69883 15.4527 4.47213 15.6702 4.29181 15.8462C4.11148 16.0222 3.88478 16.2397 3.6993 16.4312C3.51382 16.6228 3.30773 16.8403 3.1274 17.037C2.94707 17.2337 2.73583 17.4667 2.56581 17.6686C2.39579 17.8706 2.19485 18.1087 2.02483 18.321C1.8548 18.5333 1.66417 18.7818 1.5096 19.0044C1.35504 19.2271 1.1541 19.4859 0.994382 19.7034C0.834663 19.9208 0.659487 20.1849 0.50492 20.4282C0.350353 20.6716 0.262764 20.801 0.149415 20.9874L0.0669798 21.122V21.2825C0.0669798 21.5103 0.0360666 21.7433 0.0309144 21.9504C0.0257622 22.1575 0.00515366 22.551 0.00515366 22.8254C0.00515366 23.0998 0.00515366 23.4104 0.00515366 23.6952C0.00515366 23.9799 0.00515436 24.2854 0.0360677 24.5598C0.0669811 24.8342 0.0721327 25.1449 0.0978939 25.4141C0.123655 25.6833 0.154569 25.9888 0.185483 26.258C0.216396 26.5273 0.257612 26.8327 0.29883 27.0916C0.340048 27.3505 0.391571 27.6456 0.437941 27.9148C0.484311 28.184 0.546137 28.4636 0.602812 28.7276C0.659486 28.9917 0.731617 29.2868 0.793443 29.5198C0.85527 29.7528 0.937707 30.0376 1.00984 30.3068C1.08197 30.576 1.1644 30.8245 1.24684 31.0834C1.32928 31.3423 1.41686 31.6011 1.50445 31.8341C1.59204 32.0671 1.69508 32.3519 1.78782 32.5745C1.88056 32.7971 1.98876 33.0664 2.0918 33.2993C2.19485 33.5323 2.30305 33.7757 2.41124 34.0035C2.51944 34.2313 2.64824 34.485 2.75644 34.6921C2.86464 34.8992 3.00375 35.1529 3.1171 35.3651C3.23044 35.5774 3.36956 35.7949 3.49836 36.0071L4.52881 37.7571L4.68853 39.8281C4.68853 40.0766 4.72974 40.3458 4.7555 40.584C4.78126 40.8222 4.81218 41.1018 4.84824 41.3399C4.88431 41.5781 4.92553 41.8577 4.96675 42.101C5.00796 42.3443 5.06464 42.6187 5.11101 42.8672C5.15738 43.1158 5.22951 43.385 5.28619 43.6283C5.34286 43.8717 5.42014 44.1461 5.48712 44.3998C5.5541 44.6535 5.63138 44.9175 5.71382 45.166C5.79625 45.4146 5.88384 45.6838 5.96628 45.9323C6.04871 46.1808 6.15176 46.45 6.2445 46.6882C6.33724 46.9264 6.44544 47.206 6.55363 47.4493C6.66183 47.6926 6.78033 47.967 6.88852 48.2104C6.99672 48.4537 7.13068 48.7281 7.24918 48.9559C7.36768 49.1837 7.51195 49.4737 7.64075 49.7067C7.76956 49.9396 7.92412 50.2244 8.05808 50.4367C8.19204 50.649 8.35691 50.9544 8.50633 51.1667C8.65574 51.379 8.82576 51.6586 8.97518 51.8812C9.12459 52.1038 9.31522 52.373 9.4904 52.5853C9.66557 52.7976 9.8459 53.0668 10.0056 53.2843C10.1653 53.5017 10.2735 53.626 10.4178 53.802L10.5208 53.9315L10.6754 53.9936L11.2834 54.2369C11.5461 54.3353 11.8398 54.444 12.1026 54.532L12.9166 54.7961C13.1794 54.8789 13.4782 54.9618 13.7307 55.0291C13.9831 55.0964 14.2871 55.174 14.5447 55.231C14.8023 55.2879 15.1012 55.3553 15.3691 55.4122L16.1831 55.5624L16.9972 55.6763C17.2496 55.7125 17.5433 55.7436 17.8061 55.7695C18.0689 55.7953 18.3574 55.8161 18.615 55.8316C18.8726 55.8471 19.1302 55.8627 19.4136 55.8678H20.0628C20.3667 55.8678 20.6965 55.8678 20.9953 55.8678L21.7733 55.8264L22.5461 55.7539L23.3087 55.6607L24.0557 55.5417C24.2927 55.5002 24.571 55.4484 24.7925 55.3967C25.014 55.3449 25.3077 55.2879 25.5138 55.231L27.3841 54.7132L29.445 55.231L30.1714 55.3967C30.4033 55.4433 30.6866 55.5002 30.9082 55.5417L31.6604 55.6607C31.9026 55.697 32.1756 55.728 32.4178 55.7539L33.1906 55.8264L33.9686 55.8678H34.7569H34.9218H35.5658C35.8337 55.8678 36.1274 55.8678 36.3644 55.8316C36.6014 55.7953 36.9157 55.7953 37.1733 55.7695L37.9822 55.6814C38.245 55.6452 38.5438 55.6038 38.7963 55.5572C39.0487 55.5106 39.3527 55.464 39.6103 55.4122C39.8679 55.3604 40.177 55.2931 40.4295 55.2362C40.682 55.1792 40.9859 55.1016 41.2487 55.0291L42.0679 54.7961L42.8768 54.532C43.1344 54.444 43.4333 54.3353 43.6909 54.2369L44.2988 53.9988L44.4585 53.9366L44.5667 53.802L44.9738 53.2843C45.1489 53.0617 45.3396 52.808 45.489 52.5905C45.6384 52.3731 45.829 52.1142 46.0042 51.8864C46.1794 51.6586 46.334 51.3686 46.4782 51.1667C46.6225 50.9648 46.7874 50.649 46.9265 50.4367C47.0656 50.2244 47.215 49.9189 47.3438 49.7015C47.4726 49.484 47.6117 49.1837 47.7354 48.9559C47.859 48.7281 47.9827 48.4382 48.096 48.2104C48.2094 47.9826 48.3227 47.6927 48.4309 47.4545C48.5391 47.2163 48.6525 46.9367 48.74 46.6986C48.8276 46.4604 48.9358 46.1808 49.0234 45.9323C49.111 45.6838 49.1934 45.4146 49.2707 45.166C49.348 44.9175 49.4304 44.6483 49.4974 44.3998C49.5644 44.1513 49.6417 43.882 49.6984 43.6335C49.755 43.385 49.822 43.1158 49.8684 42.8672C49.9147 42.6187 49.9766 42.3495 50.0178 42.101C50.059 41.8525 50.1002 41.5833 50.1363 41.3399C50.1724 41.0966 50.2033 40.8222 50.229 40.584C50.2548 40.3458 50.2806 40.0663 50.296 39.8333L50.4351 37.726L51.5119 36.033C51.6407 35.8208 51.7799 35.5826 51.8932 35.3807C52.0066 35.1788 52.1405 34.925 52.2539 34.7128C52.3672 34.5005 52.4909 34.2468 52.5991 34.0242L52.9237 33.3149C53.0267 33.0819 53.1349 32.7971 53.2225 32.5952C53.3101 32.3933 53.4234 32.0775 53.5059 31.8548C53.5883 31.6322 53.6913 31.3371 53.7635 31.1041C53.8356 30.8711 53.9335 30.5864 54.0005 30.3327C54.0674 30.079 54.155 29.789 54.2169 29.5509C54.2787 29.3127 54.3457 29.0331 54.4075 28.7484C54.4693 28.4636 54.526 28.1892 54.5724 27.9355C54.6187 27.6818 54.6703 27.3712 54.7115 27.1123C54.7527 26.8534 54.7939 26.5531 54.8248 26.2735C54.8557 25.994 54.8867 25.704 54.9124 25.4296C54.9382 25.1552 54.9588 24.8498 54.9742 24.5805C54.9897 24.3113 55 23.9903 55.0051 23.7159C55.0103 23.4415 55.0051 23.1153 55.0051 22.8461" fill="white"/>
</g>
<defs>
<clipPath id="clip0_2_8">
<rect width="55" height="55" fill="white" transform="translate(0 0.857475)"/>
</clipPath>
</defs>
</svg>
