<svg xmlns="http://www.w3.org/2000/svg" viewBox="0 0 172.03 29.13"><defs><style>.cls-1{fill:#fff;}</style></defs><g id="Layer_2" data-name="Layer 2"><g id="Layer_1-2" data-name="Layer 1"><path class="cls-1" d="M0,1.11H8.61a12,12,0,0,1,5.79,1.3A8.7,8.7,0,0,1,18.08,6.2a13.19,13.19,0,0,1,1.28,6.07v0a13.69,13.69,0,0,1-1.27,6.12,8.88,8.88,0,0,1-3.68,3.89,11.7,11.7,0,0,1-5.8,1.35H0ZM8.05,19.75a7,7,0,0,0,3.55-.84,5.44,5.44,0,0,0,2.2-2.5,10,10,0,0,0,.75-4.1v0a9.31,9.31,0,0,0-.77-4,5.43,5.43,0,0,0-2.22-2.46A6.91,6.91,0,0,0,8.05,5H4.72V19.75Z"/><path class="cls-1" d="M25.23,23a7.18,7.18,0,0,1-2.84-3,10,10,0,0,1-1-4.63h0a10.08,10.08,0,0,1,1-4.64,7.35,7.35,0,0,1,2.81-3,8.2,8.2,0,0,1,4.25-1.07,8.37,8.37,0,0,1,4.25,1,7,7,0,0,1,2.76,2.93,9.54,9.54,0,0,1,1,4.42v1.43H23.64v-2.9H35.28l-2.17,2.71V14.42A5.94,5.94,0,0,0,32.66,12a3.4,3.4,0,0,0-1.26-1.49,3.73,3.73,0,0,0-3.75,0A3.41,3.41,0,0,0,26.37,12a5.7,5.7,0,0,0-.46,2.43V16.2a5.46,5.46,0,0,0,.46,2.36,3.31,3.31,0,0,0,1.32,1.51,3.82,3.82,0,0,0,2,.52,4.06,4.06,0,0,0,1.63-.29,3.43,3.43,0,0,0,1.12-.75,2.42,2.42,0,0,0,.6-.93l0-.09H37.3l0,.17a6.25,6.25,0,0,1-.73,1.86A6.61,6.61,0,0,1,35,22.28a7.17,7.17,0,0,1-2.27,1.25,9.5,9.5,0,0,1-3.13.47A8.77,8.77,0,0,1,25.23,23Z"/><path class="cls-1" d="M41,10.34H38.72V6.91H41V5.58a4.71,4.71,0,0,1,1.27-3.64c.85-.78,2.27-1.17,4.25-1.17.41,0,.83,0,1.26,0s.77.08,1,.13V4l-.54-.06-.63,0A2.44,2.44,0,0,0,46,4.37a1.75,1.75,0,0,0-.53,1.36V6.91h3.33v3.43H45.56V23.66H41Z"/><path class="cls-1" d="M51.8,4.05a2.29,2.29,0,0,1-.71-1.67A2.27,2.27,0,0,1,51.8.7,2.4,2.4,0,0,1,53.55,0a2.35,2.35,0,0,1,1.73.7A2.26,2.26,0,0,1,56,2.38a2.28,2.28,0,0,1-.7,1.67,2.33,2.33,0,0,1-1.73.72A2.38,2.38,0,0,1,51.8,4.05Zm-.55,2.86h4.58V23.66H51.25Z"/><path class="cls-1" d="M65.31,1.11h4.57V9.8H70a5.14,5.14,0,0,1,2-2.4,5.75,5.75,0,0,1,3.18-.84,5.85,5.85,0,0,1,3.14.81,5.26,5.26,0,0,1,2,2.27,7.89,7.89,0,0,1,.71,3.5V23.66H76.41V14.08a4.15,4.15,0,0,0-.83-2.74,2.92,2.92,0,0,0-2.39-1,3.11,3.11,0,0,0-1.74.48,3.2,3.2,0,0,0-1.16,1.31,4.25,4.25,0,0,0-.41,1.93v9.6H65.31Z"/><path class="cls-1" d="M87.12,23a7.24,7.24,0,0,1-2.84-3,10,10,0,0,1-1-4.63h0a10.08,10.08,0,0,1,1-4.64,7.35,7.35,0,0,1,2.81-3,8.2,8.2,0,0,1,4.25-1.07,8.37,8.37,0,0,1,4.25,1,7,7,0,0,1,2.76,2.93,9.54,9.54,0,0,1,1,4.42v1.43H85.53v-2.9H97.17L95,16.19V14.42A5.94,5.94,0,0,0,94.55,12a3.33,3.33,0,0,0-1.26-1.49,3.73,3.73,0,0,0-3.75,0A3.41,3.41,0,0,0,88.26,12a5.7,5.7,0,0,0-.46,2.43V16.2a5.46,5.46,0,0,0,.46,2.36,3.31,3.31,0,0,0,1.32,1.51,3.82,3.82,0,0,0,2,.52,4.06,4.06,0,0,0,1.63-.29,3.59,3.59,0,0,0,1.13-.75,2.51,2.51,0,0,0,.59-.93l0-.09h4.19l0,.17a6,6,0,0,1-.73,1.86,6.61,6.61,0,0,1-1.48,1.72,7.17,7.17,0,0,1-2.27,1.25,9.5,9.5,0,0,1-3.13.47A8.77,8.77,0,0,1,87.12,23Z"/><path class="cls-1" d="M101.78,1.11h4.56V23.66h-4.56Z"/><path class="cls-1" d="M109.42,6.91H114V9.83h.11a5.73,5.73,0,0,1,1.2-1.75A5,5,0,0,1,117,7a5.91,5.91,0,0,1,2.18-.39,6.38,6.38,0,0,1,3.66,1,6.61,6.61,0,0,1,2.36,3,12,12,0,0,1,.83,4.68h0a12.15,12.15,0,0,1-.82,4.67,6.61,6.61,0,0,1-2.34,3A6.2,6.2,0,0,1,119.27,24a6.11,6.11,0,0,1-2.21-.39,5.3,5.3,0,0,1-1.76-1.1,5.72,5.72,0,0,1-1.22-1.71H114v8.32h-4.56Zm10.25,12.71A3.83,3.83,0,0,0,121,17.91a7.21,7.21,0,0,0,.44-2.63h0a7,7,0,0,0-.45-2.64,3.84,3.84,0,0,0-1.28-1.69,3.28,3.28,0,0,0-2-.6,3.21,3.21,0,0,0-2,.61,3.89,3.89,0,0,0-1.31,1.71,6.56,6.56,0,0,0-.47,2.62v0a6.54,6.54,0,0,0,.48,2.61,3.89,3.89,0,0,0,1.31,1.71,3.22,3.22,0,0,0,1.94.6A3.27,3.27,0,0,0,119.67,19.62Z"/><path class="cls-1" d="M131.62,23a7.24,7.24,0,0,1-2.84-3,10,10,0,0,1-1-4.63h0a10.08,10.08,0,0,1,1-4.64,7.35,7.35,0,0,1,2.81-3,8.2,8.2,0,0,1,4.25-1.07,8.37,8.37,0,0,1,4.25,1,7,7,0,0,1,2.76,2.93,9.54,9.54,0,0,1,1,4.42v1.43H130v-2.9h11.64l-2.17,2.71V14.42a5.94,5.94,0,0,0-.45-2.46,3.33,3.33,0,0,0-1.26-1.49,3.73,3.73,0,0,0-3.75,0A3.41,3.41,0,0,0,132.76,12a5.7,5.7,0,0,0-.46,2.43V16.2a5.46,5.46,0,0,0,.46,2.36,3.31,3.31,0,0,0,1.32,1.51,3.82,3.82,0,0,0,2,.52,4.06,4.06,0,0,0,1.63-.29,3.59,3.59,0,0,0,1.13-.75,2.51,2.51,0,0,0,.59-.93l0-.09h4.19l-.05.17a6,6,0,0,1-.73,1.86,6.61,6.61,0,0,1-1.48,1.72,7.17,7.17,0,0,1-2.27,1.25A9.5,9.5,0,0,1,136,24,8.77,8.77,0,0,1,131.62,23Z"/><path class="cls-1" d="M146.17,6.91h4.56V9.83h.1a4.51,4.51,0,0,1,1.36-2.41,3.59,3.59,0,0,1,2.45-.86,5.55,5.55,0,0,1,.72.05,3.58,3.58,0,0,1,.59.12v4a2.62,2.62,0,0,0-.72-.2,5.49,5.49,0,0,0-.93-.07,4,4,0,0,0-1.92.44,2.85,2.85,0,0,0-1.22,1.28,4.58,4.58,0,0,0-.43,2.06v9.38h-4.56Z"/><path class="cls-1" d="M160.76,23.33a5.89,5.89,0,0,1-2.54-1.87,5.6,5.6,0,0,1-1.1-2.77v-.14h4.45l0,.14a2.52,2.52,0,0,0,1,1.53,3.63,3.63,0,0,0,2.12.55,4.34,4.34,0,0,0,1.49-.22,2.12,2.12,0,0,0,.94-.6,1.35,1.35,0,0,0,.34-.93v0a1.32,1.32,0,0,0-.49-1.08,4.14,4.14,0,0,0-1.71-.67l-2.85-.61a7.16,7.16,0,0,1-3.67-1.72,4.16,4.16,0,0,1-1.23-3.09v0A4.53,4.53,0,0,1,158.38,9a5.6,5.6,0,0,1,2.46-1.82,9.76,9.76,0,0,1,3.71-.65,9.09,9.09,0,0,1,3.77.71,5.79,5.79,0,0,1,2.39,1.92,4.81,4.81,0,0,1,.88,2.67V12h-4.2v-.13a2.29,2.29,0,0,0-.84-1.49,3,3,0,0,0-2-.6,3.73,3.73,0,0,0-1.36.22,1.9,1.9,0,0,0-.89.6,1.49,1.49,0,0,0-.32.94v0a1.4,1.4,0,0,0,.5,1.08,4.16,4.16,0,0,0,1.77.7l2.84.61a7.71,7.71,0,0,1,3.79,1.64A3.86,3.86,0,0,1,172,18.55h0a4.51,4.51,0,0,1-.94,2.86,6.05,6.05,0,0,1-2.58,1.9,10,10,0,0,1-3.81.68A10.31,10.31,0,0,1,160.76,23.33Z"/></g></g></svg>