<svg xmlns="http://www.w3.org/2000/svg" viewBox="0 0 55.98 24"><defs><style>.cls-1{fill:#fff;}</style></defs><g id="Layer_2" data-name="Layer 2"><g id="Layer_1-2" data-name="Layer 1"><path class="cls-1" d="M0,1.11H8.61a12,12,0,0,1,5.79,1.3A8.7,8.7,0,0,1,18.08,6.2a13.19,13.19,0,0,1,1.28,6.07v0a13.69,13.69,0,0,1-1.27,6.12,8.88,8.88,0,0,1-3.68,3.89,11.7,11.7,0,0,1-5.8,1.35H0ZM8.05,19.75a7,7,0,0,0,3.55-.84,5.44,5.44,0,0,0,2.2-2.5,10,10,0,0,0,.75-4.1v0a9.31,9.31,0,0,0-.77-4,5.43,5.43,0,0,0-2.22-2.46A6.91,6.91,0,0,0,8.05,5H4.72V19.75Z"/><path class="cls-1" d="M25.23,23a7.18,7.18,0,0,1-2.84-3,10,10,0,0,1-1-4.63h0a10.08,10.08,0,0,1,1-4.64,7.35,7.35,0,0,1,2.81-3,8.2,8.2,0,0,1,4.25-1.07,8.37,8.37,0,0,1,4.25,1,7,7,0,0,1,2.76,2.93,9.54,9.54,0,0,1,1,4.42v1.43H23.64v-2.9H35.28l-2.17,2.71V14.42A5.94,5.94,0,0,0,32.66,12a3.4,3.4,0,0,0-1.26-1.49,3.73,3.73,0,0,0-3.75,0A3.41,3.41,0,0,0,26.37,12a5.7,5.7,0,0,0-.46,2.43V16.2a5.46,5.46,0,0,0,.46,2.36,3.31,3.31,0,0,0,1.32,1.51,3.82,3.82,0,0,0,2,.52,4.06,4.06,0,0,0,1.63-.29,3.43,3.43,0,0,0,1.12-.75,2.42,2.42,0,0,0,.6-.93l0-.09H37.3l0,.17a6.25,6.25,0,0,1-.73,1.86A6.61,6.61,0,0,1,35,22.28a7.17,7.17,0,0,1-2.27,1.25,9.5,9.5,0,0,1-3.13.47A8.77,8.77,0,0,1,25.23,23Z"/><path class="cls-1" d="M41,10.34H38.72V6.91H41V5.58a4.71,4.71,0,0,1,1.27-3.64c.85-.78,2.27-1.17,4.25-1.17.41,0,.83,0,1.26,0s.77.08,1,.13V4l-.54-.06-.63,0A2.44,2.44,0,0,0,46,4.37a1.75,1.75,0,0,0-.53,1.36V6.91h3.33v3.43H45.56V23.66H41Z"/><path class="cls-1" d="M51.8,4.05a2.29,2.29,0,0,1-.71-1.67A2.27,2.27,0,0,1,51.8.7,2.4,2.4,0,0,1,53.55,0a2.35,2.35,0,0,1,1.73.7A2.26,2.26,0,0,1,56,2.38a2.28,2.28,0,0,1-.7,1.67,2.33,2.33,0,0,1-1.73.72A2.38,2.38,0,0,1,51.8,4.05Zm-.55,2.86h4.58V23.66H51.25Z"/></g></g></svg>