<svg xmlns="http://www.w3.org/2000/svg" viewBox="0 0 200.55 29.13"><defs><style>.cls-1{fill:#fff;}</style></defs><g id="Layer_2" data-name="Layer 2"><g id="Layer_1-2" data-name="Layer 1"><path class="cls-1" d="M0,1.11H14.77V5h-10v6.05h9.17v3.73H4.72v8.88H0Z"/><path class="cls-1" d="M17.79,4.05a2.25,2.25,0,0,1-.71-1.67A2.23,2.23,0,0,1,17.79.7a2.51,2.51,0,0,1,3.48,0A2.3,2.3,0,0,1,22,2.38a2.32,2.32,0,0,1-.7,1.67,2.46,2.46,0,0,1-3.48,0Zm-.56,2.86h4.58V23.66H17.23Z"/><path class="cls-1" d="M26.9,23.27a4.76,4.76,0,0,1-2.7-4.41v0a4.27,4.27,0,0,1,1.71-3.59,8.83,8.83,0,0,1,4.82-1.51l6.54-.4v2.84l-5.85.39a3.62,3.62,0,0,0-2,.61,1.71,1.71,0,0,0-.69,1.42v0a1.71,1.71,0,0,0,.71,1.45,3.09,3.09,0,0,0,1.89.52,4.15,4.15,0,0,0,1.82-.39,3.14,3.14,0,0,0,1.26-1.1,2.72,2.72,0,0,0,.47-1.55v-5.1a2.25,2.25,0,0,0-.71-1.75,3,3,0,0,0-2.05-.64,3.49,3.49,0,0,0-2,.53,2.15,2.15,0,0,0-.92,1.33l0,.14H25l0-.18a5.3,5.3,0,0,1,1-2.76,6,6,0,0,1,2.5-1.88,9.74,9.74,0,0,1,3.8-.68,9.26,9.26,0,0,1,3.77.7,5.67,5.67,0,0,1,2.47,2,5,5,0,0,1,.89,2.95V23.66H34.88V21.17h-.1a5.56,5.56,0,0,1-1.22,1.47,5,5,0,0,1-1.68.95,6.15,6.15,0,0,1-2,.33A6.3,6.3,0,0,1,26.9,23.27Z"/><path class="cls-1" d="M44.91,22.83A4.87,4.87,0,0,1,43.56,19V10.34H41.23V6.91h2.33V2.81h4.61v4.1h3.06v3.43H48.17v8.13a2.1,2.1,0,0,0,.53,1.63,2.24,2.24,0,0,0,1.55.46l.55,0c.15,0,.3,0,.43-.06v3.35L50.3,24c-.37,0-.79.05-1.27.05A6.14,6.14,0,0,1,44.91,22.83Z"/><path class="cls-1" d="M63.36,23a7.07,7.07,0,0,1-2.88-3,9.92,9.92,0,0,1-1-4.68v0a9.79,9.79,0,0,1,1-4.65,7.27,7.27,0,0,1,2.9-3,8.71,8.71,0,0,1,4.36-1.05,8.87,8.87,0,0,1,4.38,1,7.15,7.15,0,0,1,2.9,3,9.78,9.78,0,0,1,1,4.66v0A10,10,0,0,1,75,20a7.11,7.11,0,0,1-2.88,3,9.83,9.83,0,0,1-8.8,0Zm6.34-3.14A3.84,3.84,0,0,0,71,18.07a7.66,7.66,0,0,0,.45-2.79v0A7.59,7.59,0,0,0,71,12.49a3.83,3.83,0,0,0-1.27-1.75,3.19,3.19,0,0,0-1.93-.6,3.07,3.07,0,0,0-1.91.61,3.91,3.91,0,0,0-1.28,1.75,7.51,7.51,0,0,0-.45,2.75v0a7.89,7.89,0,0,0,.44,2.79,3.8,3.8,0,0,0,1.28,1.75,3.23,3.23,0,0,0,2,.6A3.14,3.14,0,0,0,69.7,19.82Z"/><path class="cls-1" d="M78.41,6.91H83V9.66h.09A5.25,5.25,0,0,1,85,7.39a5.73,5.73,0,0,1,3.17-.83,5.49,5.49,0,0,1,4.28,1.67A6.65,6.65,0,0,1,94,12.84V23.66H89.39V13.8a3.83,3.83,0,0,0-.77-2.55,2.9,2.9,0,0,0-2.31-.91,3.28,3.28,0,0,0-1.76.47,3.21,3.21,0,0,0-1.17,1.3A4.31,4.31,0,0,0,83,14v9.63H78.41Z"/><path class="cls-1" d="M97.36,12.5h10.12v4H97.36Z"/><path class="cls-1" d="M111,6.91h4.57V9.83h.09A4.51,4.51,0,0,1,117,7.42a3.59,3.59,0,0,1,2.45-.86,5.55,5.55,0,0,1,.72.05,3.58,3.58,0,0,1,.59.12v4a2.64,2.64,0,0,0-.71-.2,5.69,5.69,0,0,0-.94-.07,4,4,0,0,0-1.92.44,2.85,2.85,0,0,0-1.22,1.28,4.58,4.58,0,0,0-.42,2.06v9.38H111Z"/><path class="cls-1" d="M124.24,23.27a4.78,4.78,0,0,1-2.69-4.41v0a4.27,4.27,0,0,1,1.71-3.59,8.8,8.8,0,0,1,4.82-1.51l6.53-.4v2.84l-5.84.39a3.57,3.57,0,0,0-2,.61,1.71,1.71,0,0,0-.69,1.42v0a1.7,1.7,0,0,0,.7,1.45,3.09,3.09,0,0,0,1.89.52,4.09,4.09,0,0,0,1.82-.39,3.17,3.17,0,0,0,1.27-1.1,2.79,2.79,0,0,0,.46-1.55v-5.1a2.28,2.28,0,0,0-.7-1.75,3,3,0,0,0-2.05-.64,3.47,3.47,0,0,0-2,.53,2.11,2.11,0,0,0-.92,1.33l0,.14H122.3v-.18a5.38,5.38,0,0,1,1-2.76,6,6,0,0,1,2.5-1.88,9.79,9.79,0,0,1,3.81-.68,9.24,9.24,0,0,1,3.76.7,5.75,5.75,0,0,1,2.48,2,5,5,0,0,1,.88,2.95V23.66h-4.56V21.17h-.1a5.53,5.53,0,0,1-1.21,1.47,5,5,0,0,1-1.68.95,6.15,6.15,0,0,1-2,.33A6.32,6.32,0,0,1,124.24,23.27Z"/><path class="cls-1" d="M139.72,6.91h4.56V9.72h.1a4.61,4.61,0,0,1,1.75-2.3,5.06,5.06,0,0,1,2.93-.86,5.26,5.26,0,0,1,2.11.41,4.22,4.22,0,0,1,1.59,1.17,4.53,4.53,0,0,1,.91,1.88h.1a4.9,4.9,0,0,1,1.13-1.84A5.22,5.22,0,0,1,156.7,7,6,6,0,0,1,159,6.56a5.68,5.68,0,0,1,2.87.71,4.86,4.86,0,0,1,1.93,2,6.26,6.26,0,0,1,.68,3V23.66h-4.56V13.36a3.25,3.25,0,0,0-.7-2.24,2.6,2.6,0,0,0-2-.78,2.86,2.86,0,0,0-1.51.4,2.82,2.82,0,0,0-1,1.1,3.57,3.57,0,0,0-.36,1.64V23.66h-4.39V13.22a3,3,0,0,0-.72-2.12,2.62,2.62,0,0,0-2-.76,2.75,2.75,0,0,0-1.52.42,2.73,2.73,0,0,0-1,1.13,3.53,3.53,0,0,0-.37,1.66V23.66h-4.56Z"/><path class="cls-1" d="M167.34,6.91h4.57V9.83H172a5.7,5.7,0,0,1,1.19-1.75A5.08,5.08,0,0,1,175,7a5.86,5.86,0,0,1,2.17-.39,6.38,6.38,0,0,1,3.66,1,6.61,6.61,0,0,1,2.36,3,12,12,0,0,1,.83,4.68h0a12,12,0,0,1-.82,4.67,6.61,6.61,0,0,1-2.34,3,6.65,6.65,0,0,1-5.83.66,5.4,5.4,0,0,1-1.76-1.1A5.72,5.72,0,0,1,172,20.8h-.09v8.32h-4.57Zm10.25,12.71a3.76,3.76,0,0,0,1.28-1.71,7.21,7.21,0,0,0,.44-2.63h0a7,7,0,0,0-.45-2.64,3.77,3.77,0,0,0-1.28-1.69,3.46,3.46,0,0,0-3.91,0,3.89,3.89,0,0,0-1.31,1.71,6.74,6.74,0,0,0-.47,2.62v0a6.54,6.54,0,0,0,.48,2.61,3.89,3.89,0,0,0,1.31,1.71,3.48,3.48,0,0,0,3.91,0Z"/><path class="cls-1" d="M189.27,23.33a6,6,0,0,1-2.54-1.87,5.68,5.68,0,0,1-1.09-2.77l0-.14h4.46l0,.14a2.47,2.47,0,0,0,1,1.53,3.65,3.65,0,0,0,2.13.55,4.28,4.28,0,0,0,1.48-.22,2.16,2.16,0,0,0,1-.6A1.39,1.39,0,0,0,196,19v0a1.34,1.34,0,0,0-.48-1.08,4.2,4.2,0,0,0-1.72-.67l-2.84-.61a7.12,7.12,0,0,1-3.67-1.72A4.13,4.13,0,0,1,186,11.83v0A4.54,4.54,0,0,1,186.9,9a5.57,5.57,0,0,1,2.45-1.82,9.83,9.83,0,0,1,3.71-.65,9.14,9.14,0,0,1,3.78.71,5.85,5.85,0,0,1,2.39,1.92,4.89,4.89,0,0,1,.88,2.67V12h-4.2l0-.13a2.21,2.21,0,0,0-.84-1.49,3,3,0,0,0-2-.6,3.77,3.77,0,0,0-1.36.22,2,2,0,0,0-.89.6,1.48,1.48,0,0,0-.31.94v0a1.4,1.4,0,0,0,.5,1.08,4,4,0,0,0,1.77.7l2.84.61a7.75,7.75,0,0,1,3.79,1.64,3.89,3.89,0,0,1,1.15,2.94h0a4.57,4.57,0,0,1-.94,2.86,6.15,6.15,0,0,1-2.59,1.9,10,10,0,0,1-3.8.68A10.36,10.36,0,0,1,189.27,23.33Z"/></g></g></svg>