<svg xmlns="http://www.w3.org/2000/svg" viewBox="0 0 63.73 23.16"><defs><style>.cls-1{fill:#fff;}</style></defs><g id="Layer_2" data-name="Layer 2"><g id="Layer_1-2" data-name="Layer 1"><path class="cls-1" d="M0,.34H4.72V22.89H0Z"/><path class="cls-1" d="M8.08,6.14h4.56V8.89h.09a5.31,5.31,0,0,1,1.94-2.27,5.75,5.75,0,0,1,3.17-.82,5.48,5.48,0,0,1,4.28,1.66,6.65,6.65,0,0,1,1.5,4.62V22.89H19.06V13a3.86,3.86,0,0,0-.77-2.55A2.89,2.89,0,0,0,16,9.58a3.15,3.15,0,0,0-2.93,1.76,4.38,4.38,0,0,0-.41,1.93v9.62H8.08Z"/><path class="cls-1" d="M27.73,9.58H25.45V6.14h2.28V4.81A4.72,4.72,0,0,1,29,1.17C29.86.39,31.27,0,33.25,0c.42,0,.84,0,1.27.05s.77.09,1,.14v3L35,3.15l-.62,0a2.4,2.4,0,0,0-1.66.48A1.74,1.74,0,0,0,32.19,5V6.14h3.33V9.58H32.3V22.89H27.73Z"/><path class="cls-1" d="M37.91,6.14h4.56V9.06h.09a4.51,4.51,0,0,1,1.36-2.4,3.59,3.59,0,0,1,2.46-.86A4.22,4.22,0,0,1,47.69,6v4A3.33,3.33,0,0,0,47,9.8,6.91,6.91,0,0,0,46,9.73a4,4,0,0,0-1.92.44,2.91,2.91,0,0,0-1.22,1.28,4.63,4.63,0,0,0-.42,2.07v9.37H37.91Z"/><path class="cls-1" d="M51.2,22.51a4.83,4.83,0,0,1-2-1.8,4.9,4.9,0,0,1-.71-2.62v0a4.25,4.25,0,0,1,1.71-3.58A8.74,8.74,0,0,1,55,13l6.53-.41v2.85l-5.84.39a3.51,3.51,0,0,0-2,.61A1.69,1.69,0,0,0,53,17.83v0a1.71,1.71,0,0,0,.7,1.44,3.09,3.09,0,0,0,1.89.53,4,4,0,0,0,1.83-.4,3.27,3.27,0,0,0,1.26-1.09,2.77,2.77,0,0,0,.46-1.56V11.69a2.25,2.25,0,0,0-.7-1.75,2.93,2.93,0,0,0-2-.64,3.49,3.49,0,0,0-2,.52,2.13,2.13,0,0,0-.92,1.34l0,.14H49.25l0-.19a5.34,5.34,0,0,1,1-2.75,6,6,0,0,1,2.5-1.88,9.61,9.61,0,0,1,3.81-.68,9.47,9.47,0,0,1,3.77.69,5.8,5.8,0,0,1,2.47,2,5,5,0,0,1,.88,3V22.89H59.17V20.41h-.09a5.76,5.76,0,0,1-1.22,1.47,5.34,5.34,0,0,1-1.68.95,6.15,6.15,0,0,1-2,.33A6.4,6.4,0,0,1,51.2,22.51Z"/></g></g></svg>