<svg xmlns="http://www.w3.org/2000/svg" viewBox="0 0 120.16 24"><defs><style>.cls-1{fill:#fff;}</style></defs><g id="Layer_2" data-name="Layer 2"><g id="Layer_1-2" data-name="Layer 1"><path class="cls-1" d="M0,1.11H4.72V23.66H0ZM2.38,12.86H7.91a4.48,4.48,0,0,0,3.15-1,3.8,3.8,0,0,0,1.13-2.94v0a3.81,3.81,0,0,0-1.13-3,4.52,4.52,0,0,0-3.15-1H2.38V1.11H9.06a8.63,8.63,0,0,1,4.16,1A6.86,6.86,0,0,1,16,4.77a8,8,0,0,1,1,4.06v0a8,8,0,0,1-1,4.05,6.9,6.9,0,0,1-2.77,2.69,8.63,8.63,0,0,1-4.16,1H2.38Z"/><path class="cls-1" d="M22.11,23a7.07,7.07,0,0,1-2.88-3,9.92,9.92,0,0,1-1-4.68v0a9.79,9.79,0,0,1,1-4.65,7.27,7.27,0,0,1,2.9-3A8.71,8.71,0,0,1,26.5,6.56a8.87,8.87,0,0,1,4.38,1,7.15,7.15,0,0,1,2.9,3,9.78,9.78,0,0,1,1,4.66v0a10,10,0,0,1-1,4.69,7.11,7.11,0,0,1-2.88,3,8.91,8.91,0,0,1-4.39,1A8.93,8.93,0,0,1,22.11,23Zm6.34-3.14a3.84,3.84,0,0,0,1.26-1.75,7.66,7.66,0,0,0,.45-2.79v0a7.59,7.59,0,0,0-.46-2.76,3.83,3.83,0,0,0-1.27-1.75,3.19,3.19,0,0,0-1.93-.6,3.07,3.07,0,0,0-1.91.61,3.91,3.91,0,0,0-1.28,1.75,7.51,7.51,0,0,0-.45,2.75v0a7.89,7.89,0,0,0,.44,2.79,3.8,3.8,0,0,0,1.28,1.75,3.23,3.23,0,0,0,2,.6A3.14,3.14,0,0,0,28.45,19.82Z"/><path class="cls-1" d="M37.16,6.91h4.56V9.83h.09a4.58,4.58,0,0,1,1.36-2.41,3.63,3.63,0,0,1,2.45-.86,5.43,5.43,0,0,1,.72.05,4,4,0,0,1,.6.12v4a2.84,2.84,0,0,0-.72-.2,5.61,5.61,0,0,0-.94-.07,4,4,0,0,0-1.92.44,2.91,2.91,0,0,0-1.22,1.28,4.58,4.58,0,0,0-.42,2.06v9.38H37.16Z"/><path class="cls-1" d="M51.33,22.83A4.87,4.87,0,0,1,50,19V10.34H47.66V6.91H50V2.81h4.61v4.1h3.07v3.43H54.59v8.13a2.1,2.1,0,0,0,.53,1.63,2.26,2.26,0,0,0,1.55.46l.55,0c.16,0,.3,0,.44-.06v3.35l-.93.12c-.37,0-.8.05-1.28.05A6.14,6.14,0,0,1,51.33,22.83Z"/><path class="cls-1" d="M61.39,10.34H59.11V6.91h2.28V5.58a4.71,4.71,0,0,1,1.27-3.64c.85-.78,2.27-1.17,4.25-1.17.41,0,.83,0,1.26,0s.77.08,1,.13V4l-.54-.06-.63,0a2.39,2.39,0,0,0-1.65.48,1.72,1.72,0,0,0-.54,1.36V6.91h3.33v3.43H66V23.66H61.39Z"/><path class="cls-1" d="M73.67,23a7.07,7.07,0,0,1-2.88-3,10,10,0,0,1-1-4.68v0a9.79,9.79,0,0,1,1-4.65,7.33,7.33,0,0,1,2.9-3,8.74,8.74,0,0,1,4.36-1.05,8.93,8.93,0,0,1,4.39,1,7.13,7.13,0,0,1,2.89,3,9.78,9.78,0,0,1,1,4.66v0a10,10,0,0,1-1,4.69,7.11,7.11,0,0,1-2.88,3,9.83,9.83,0,0,1-8.8,0ZM80,19.82a3.75,3.75,0,0,0,1.25-1.75,7.66,7.66,0,0,0,.45-2.79v0a7.6,7.6,0,0,0-.45-2.76A3.92,3.92,0,0,0,80,10.74a3.17,3.17,0,0,0-1.93-.6,3.09,3.09,0,0,0-1.91.61,3.89,3.89,0,0,0-1.27,1.75,7.29,7.29,0,0,0-.46,2.75v0a7.66,7.66,0,0,0,.45,2.79,3.71,3.71,0,0,0,1.27,1.75,3.23,3.23,0,0,0,2,.6A3.19,3.19,0,0,0,80,19.82Z"/><path class="cls-1" d="M88.83,1.11h4.56V23.66H88.83Z"/><path class="cls-1" d="M97.1,4.05a2.29,2.29,0,0,1-.71-1.67A2.27,2.27,0,0,1,97.1.7,2.39,2.39,0,0,1,98.84,0a2.36,2.36,0,0,1,1.74.7,2.26,2.26,0,0,1,.7,1.68,2.28,2.28,0,0,1-.7,1.67,2.34,2.34,0,0,1-1.74.72A2.37,2.37,0,0,1,97.1,4.05Zm-.55,2.86h4.57V23.66H96.55Z"/><path class="cls-1" d="M107.45,23a7.07,7.07,0,0,1-2.88-3,10,10,0,0,1-1-4.68v0a9.68,9.68,0,0,1,1-4.65,7.25,7.25,0,0,1,2.89-3,8.74,8.74,0,0,1,4.36-1.05,8.93,8.93,0,0,1,4.39,1,7.13,7.13,0,0,1,2.89,3,9.78,9.78,0,0,1,1,4.66v0a10,10,0,0,1-1,4.69,7.11,7.11,0,0,1-2.88,3,9.83,9.83,0,0,1-8.8,0Zm6.35-3.14a3.75,3.75,0,0,0,1.25-1.75,7.66,7.66,0,0,0,.45-2.79v0a7.6,7.6,0,0,0-.45-2.76,3.92,3.92,0,0,0-1.28-1.75,3.17,3.17,0,0,0-1.93-.6,3.09,3.09,0,0,0-1.91.61,3.89,3.89,0,0,0-1.27,1.75,7.29,7.29,0,0,0-.46,2.75v0a7.66,7.66,0,0,0,.45,2.79,3.78,3.78,0,0,0,1.27,1.75,3.24,3.24,0,0,0,2,.6A3.18,3.18,0,0,0,113.8,19.82Z"/></g></g></svg>