<svg xmlns="http://www.w3.org/2000/svg" viewBox="0 0 289.25 29.47"><defs><style>.cls-1{fill:#fff;}</style></defs><g id="Layer_2" data-name="Layer 2"><g id="Layer_1-2" data-name="Layer 1"><path class="cls-1" d="M7.86,1.11H12V5.48H10.59L5,23.66H0ZM5.39,14.66H15.91l1.15,3.53H4.23Zm5.3-9.18V1.11h2.73l7.86,22.55h-5Z"/><path class="cls-1" d="M23.2,6.91h4.57V9.66h.09A5.18,5.18,0,0,1,29.8,7.39,5.73,5.73,0,0,1,33,6.56a5.46,5.46,0,0,1,4.27,1.67,6.6,6.6,0,0,1,1.51,4.61V23.66H34.19V13.8a3.78,3.78,0,0,0-.78-2.55,2.86,2.86,0,0,0-2.3-.91,3.29,3.29,0,0,0-1.77.47,3.18,3.18,0,0,0-1.16,1.3A4.18,4.18,0,0,0,27.77,14v9.63H23.2Z"/><path class="cls-1" d="M43.68,23.27A4.81,4.81,0,0,1,41,18.86v0a4.25,4.25,0,0,1,1.72-3.59,8.8,8.8,0,0,1,4.82-1.51l6.53-.4v2.84l-5.85.39a3.7,3.7,0,0,0-2,.61,1.7,1.7,0,0,0-.68,1.42v0a1.7,1.7,0,0,0,.7,1.45,3.09,3.09,0,0,0,1.89.52,4.12,4.12,0,0,0,1.82-.39,3.17,3.17,0,0,0,1.27-1.1,2.79,2.79,0,0,0,.46-1.55v-5.1A2.25,2.25,0,0,0,51,10.7a3,3,0,0,0-2-.64,3.47,3.47,0,0,0-2,.53A2.17,2.17,0,0,0,46,11.92l0,.14H41.73l0-.18a5.3,5.3,0,0,1,1-2.76,6,6,0,0,1,2.5-1.88,9.74,9.74,0,0,1,3.8-.68,9.26,9.26,0,0,1,3.77.7,5.75,5.75,0,0,1,2.48,2,5.08,5.08,0,0,1,.88,2.95V23.66H51.66V21.17h-.1a5.56,5.56,0,0,1-1.22,1.47,5,5,0,0,1-1.68.95,6.15,6.15,0,0,1-2,.33A6.3,6.3,0,0,1,43.68,23.27Z"/><path class="cls-1" d="M59.27,1.11h4.56V23.66H59.27Z"/><path class="cls-1" d="M68.23,29.11c-.41,0-.76-.09-1-.14V25.58l.64.1a6,6,0,0,0,.89.05,3.27,3.27,0,0,0,1.63-.34,2.12,2.12,0,0,0,.89-1.19l.19-.54L65.53,6.91h5l3.78,14L73.72,20h.86l-.61.91,3.76-14h4.83L76.81,24a8.88,8.88,0,0,1-1.65,3.12,5.39,5.39,0,0,1-2.38,1.63,10.27,10.27,0,0,1-3.25.47C69.08,29.17,68.65,29.15,68.23,29.11Z"/><path class="cls-1" d="M87,23.33a6,6,0,0,1-2.54-1.87,5.68,5.68,0,0,1-1.09-2.77v-.14h4.45l0,.14a2.47,2.47,0,0,0,1,1.53,3.65,3.65,0,0,0,2.13.55,4.28,4.28,0,0,0,1.48-.22,2.16,2.16,0,0,0,1-.6,1.39,1.39,0,0,0,.33-.93v0a1.34,1.34,0,0,0-.48-1.08,4.2,4.2,0,0,0-1.72-.67l-2.84-.61A7.12,7.12,0,0,1,85,14.92a4.13,4.13,0,0,1-1.24-3.09v0A4.54,4.54,0,0,1,84.65,9,5.57,5.57,0,0,1,87.1,7.21a9.83,9.83,0,0,1,3.71-.65,9.14,9.14,0,0,1,3.78.71A5.85,5.85,0,0,1,97,9.19a4.89,4.89,0,0,1,.88,2.67V12h-4.2l0-.13a2.21,2.21,0,0,0-.84-1.49,3,3,0,0,0-2-.6,3.77,3.77,0,0,0-1.36.22,2.09,2.09,0,0,0-.89.6,1.48,1.48,0,0,0-.31.94v0a1.38,1.38,0,0,0,.5,1.08,4,4,0,0,0,1.77.7l2.84.61a7.75,7.75,0,0,1,3.79,1.64,3.89,3.89,0,0,1,1.15,2.94h0a4.57,4.57,0,0,1-.94,2.86,6.15,6.15,0,0,1-2.59,1.9A10,10,0,0,1,91,24,10.36,10.36,0,0,1,87,23.33Z"/><path class="cls-1" d="M101.18,4.05a2.29,2.29,0,0,1-.71-1.67A2.27,2.27,0,0,1,101.18.7a2.51,2.51,0,0,1,3.48,0,2.3,2.3,0,0,1,.7,1.68,2.32,2.32,0,0,1-.7,1.67,2.46,2.46,0,0,1-3.48,0Zm-.56,2.86h4.58V23.66h-4.58Z"/><path class="cls-1" d="M111.2,23.33a5.89,5.89,0,0,1-2.54-1.87,5.6,5.6,0,0,1-1.1-2.77v-.14H112l0,.14a2.48,2.48,0,0,0,1,1.53,3.61,3.61,0,0,0,2.12.55,4.28,4.28,0,0,0,1.48-.22,2.1,2.1,0,0,0,.95-.6,1.4,1.4,0,0,0,.34-.93v0a1.35,1.35,0,0,0-.49-1.08,4.14,4.14,0,0,0-1.72-.67l-2.84-.61a7.12,7.12,0,0,1-3.67-1.72A4.13,4.13,0,0,1,108,11.83v0A4.54,4.54,0,0,1,108.82,9a5.63,5.63,0,0,1,2.45-1.82A9.83,9.83,0,0,1,115,6.56a9.14,9.14,0,0,1,3.78.71,5.85,5.85,0,0,1,2.39,1.92,4.81,4.81,0,0,1,.88,2.67V12h-4.2l0-.13A2.24,2.24,0,0,0,117,10.4a3.06,3.06,0,0,0-2-.6,3.77,3.77,0,0,0-1.36.22,2.09,2.09,0,0,0-.89.6,1.54,1.54,0,0,0-.31.94v0a1.38,1.38,0,0,0,.5,1.08,4,4,0,0,0,1.77.7l2.84.61a7.75,7.75,0,0,1,3.79,1.64,3.86,3.86,0,0,1,1.15,2.94h0a4.51,4.51,0,0,1-.94,2.86,6.12,6.12,0,0,1-2.58,1.9,10,10,0,0,1-3.81.68A10.27,10.27,0,0,1,111.2,23.33Z"/><path class="cls-1" d="M133.09,23.27a4.76,4.76,0,0,1-2.7-4.41v0a4.27,4.27,0,0,1,1.71-3.59,8.83,8.83,0,0,1,4.82-1.51l6.53-.4v2.84l-5.84.39a3.67,3.67,0,0,0-2,.61,1.71,1.71,0,0,0-.69,1.42v0a1.72,1.72,0,0,0,.7,1.45,3.1,3.1,0,0,0,1.9.52,4.15,4.15,0,0,0,1.82-.39,3.21,3.21,0,0,0,1.26-1.1,2.71,2.71,0,0,0,.46-1.55v-5.1a2.25,2.25,0,0,0-.7-1.75,3,3,0,0,0-2.05-.64,3.49,3.49,0,0,0-2,.53,2.11,2.11,0,0,0-.92,1.33l0,.14h-4.19l0-.18a5.3,5.3,0,0,1,1-2.76,5.92,5.92,0,0,1,2.5-1.88,9.7,9.7,0,0,1,3.8-.68,9.29,9.29,0,0,1,3.77.7,5.72,5.72,0,0,1,2.47,2,5,5,0,0,1,.88,2.95V23.66h-4.56V21.17H141a5.56,5.56,0,0,1-1.22,1.47,5,5,0,0,1-1.68.95,6.15,6.15,0,0,1-2,.33A6.27,6.27,0,0,1,133.09,23.27Z"/><path class="cls-1" d="M148.56,6.91h4.56V9.66h.1a5.18,5.18,0,0,1,1.94-2.27,5.73,5.73,0,0,1,3.17-.83,5.46,5.46,0,0,1,4.27,1.67,6.6,6.6,0,0,1,1.51,4.61V23.66h-4.56V13.8a3.78,3.78,0,0,0-.78-2.55,2.86,2.86,0,0,0-2.3-.91,3.29,3.29,0,0,0-1.77.47,3.12,3.12,0,0,0-1.16,1.3,4.18,4.18,0,0,0-.42,1.92v9.63h-4.56Z"/><path class="cls-1" d="M169.56,23a6.58,6.58,0,0,1-2.36-3,12,12,0,0,1-.82-4.67h0a11.92,11.92,0,0,1,.82-4.68,6.61,6.61,0,0,1,2.36-3,6.33,6.33,0,0,1,3.63-1,5.65,5.65,0,0,1,3.14.87,5.49,5.49,0,0,1,2,2.38h.09V1.11H183V23.66h-4.57V20.8h-.09a5.31,5.31,0,0,1-2,2.35,5.71,5.71,0,0,1-3.15.85A6.29,6.29,0,0,1,169.56,23Zm7.13-3.33a3.87,3.87,0,0,0,1.3-1.71,6.8,6.8,0,0,0,.46-2.63h0a6.54,6.54,0,0,0-.47-2.61,3.87,3.87,0,0,0-1.3-1.71,3.46,3.46,0,0,0-3.91,0,3.79,3.79,0,0,0-1.29,1.69,7,7,0,0,0-.45,2.64h0a7,7,0,0,0,.45,2.63,3.7,3.7,0,0,0,1.28,1.71,3.27,3.27,0,0,0,2,.6A3.32,3.32,0,0,0,176.69,19.62Z"/><path class="cls-1" d="M193,4.05a2.29,2.29,0,0,1-.71-1.67A2.27,2.27,0,0,1,193,.7a2.4,2.4,0,0,1,1.75-.7,2.35,2.35,0,0,1,1.73.7,2.26,2.26,0,0,1,.7,1.68,2.28,2.28,0,0,1-.7,1.67,2.33,2.33,0,0,1-1.73.72A2.38,2.38,0,0,1,193,4.05Zm-.55,2.86h4.58V23.66h-4.58Z"/><path class="cls-1" d="M200.09,6.91h4.57V9.66h.09a5.18,5.18,0,0,1,1.94-2.27,5.73,5.73,0,0,1,3.17-.83,5.46,5.46,0,0,1,4.27,1.67,6.6,6.6,0,0,1,1.51,4.61V23.66h-4.56V13.8a3.78,3.78,0,0,0-.78-2.55,2.86,2.86,0,0,0-2.3-.91,3.29,3.29,0,0,0-1.77.47,3.18,3.18,0,0,0-1.16,1.3,4.18,4.18,0,0,0-.41,1.92v9.63h-4.57Z"/><path class="cls-1" d="M221.48,23.33a5.89,5.89,0,0,1-2.54-1.87,5.6,5.6,0,0,1-1.1-2.77v-.14h4.45l0,.14a2.52,2.52,0,0,0,1,1.53,3.63,3.63,0,0,0,2.12.55,4.37,4.37,0,0,0,1.49-.22,2.12,2.12,0,0,0,.94-.6,1.35,1.35,0,0,0,.34-.93v0a1.32,1.32,0,0,0-.49-1.08,4.14,4.14,0,0,0-1.72-.67l-2.84-.61a7.16,7.16,0,0,1-3.67-1.72,4.17,4.17,0,0,1-1.24-3.09v0A4.54,4.54,0,0,1,219.1,9a5.63,5.63,0,0,1,2.45-1.82,9.85,9.85,0,0,1,3.72-.65,9.12,9.12,0,0,1,3.77.71,5.79,5.79,0,0,1,2.39,1.92,4.81,4.81,0,0,1,.88,2.67V12h-4.2l0-.13a2.24,2.24,0,0,0-.83-1.49,3,3,0,0,0-2-.6,3.69,3.69,0,0,0-1.36.22,2,2,0,0,0-.89.6,1.49,1.49,0,0,0-.32.94v0a1.38,1.38,0,0,0,.5,1.08,4.1,4.1,0,0,0,1.77.7l2.84.61a7.71,7.71,0,0,1,3.79,1.64,3.86,3.86,0,0,1,1.15,2.94h0a4.51,4.51,0,0,1-.94,2.86,6.05,6.05,0,0,1-2.58,1.9,10,10,0,0,1-3.81.68A10.27,10.27,0,0,1,221.48,23.33Z"/><path class="cls-1" d="M235.63,4.05a2.29,2.29,0,0,1-.71-1.67A2.27,2.27,0,0,1,235.63.7a2.4,2.4,0,0,1,1.75-.7,2.35,2.35,0,0,1,1.73.7,2.26,2.26,0,0,1,.7,1.68,2.28,2.28,0,0,1-.7,1.67,2.33,2.33,0,0,1-1.73.72A2.38,2.38,0,0,1,235.63,4.05Zm-.55,2.86h4.58V23.66h-4.58Z"/><path class="cls-1" d="M246.52,28.84a7.1,7.1,0,0,1-2.72-1.72,4.48,4.48,0,0,1-1.22-2.42l0-.14H247l.05.11a2.4,2.4,0,0,0,1.17,1.08,5,5,0,0,0,2.31.47,3.87,3.87,0,0,0,2.69-.84,2.92,2.92,0,0,0,.92-2.24V20.56h-.09a4.79,4.79,0,0,1-1.2,1.52,5.32,5.32,0,0,1-1.76,1,6.83,6.83,0,0,1-2.21.35,6.46,6.46,0,0,1-3.63-1,6.35,6.35,0,0,1-2.35-2.87,11,11,0,0,1-.82-4.46h0a11.5,11.5,0,0,1,.83-4.58,6.55,6.55,0,0,1,2.38-2.92,6.43,6.43,0,0,1,3.65-1,5.86,5.86,0,0,1,2.17.39,5.24,5.24,0,0,1,1.73,1.11A5.64,5.64,0,0,1,254,9.77h.11V6.91h4.56V23.19a5.55,5.55,0,0,1-1,3.27,6.49,6.49,0,0,1-2.83,2.21,10.86,10.86,0,0,1-4.35.8A11.6,11.6,0,0,1,246.52,28.84Zm5.89-9.36a3.83,3.83,0,0,0,1.29-1.68,6.83,6.83,0,0,0,.46-2.6h0a6.67,6.67,0,0,0-.46-2.57,3.78,3.78,0,0,0-1.3-1.68,3.27,3.27,0,0,0-2-.6,3.39,3.39,0,0,0-2,.59,3.71,3.71,0,0,0-1.29,1.67,6.77,6.77,0,0,0-.46,2.59h0a6.83,6.83,0,0,0,.46,2.6,3.69,3.69,0,0,0,1.29,1.68,3.33,3.33,0,0,0,2,.6A3.28,3.28,0,0,0,252.41,19.48Z"/><path class="cls-1" d="M261.8,1.11h4.56V9.8h.09a5.14,5.14,0,0,1,2-2.4,5.75,5.75,0,0,1,3.18-.84,5.85,5.85,0,0,1,3.14.81,5.28,5.28,0,0,1,2,2.27,8,8,0,0,1,.71,3.5V23.66h-4.58V14.08a4.15,4.15,0,0,0-.83-2.74,2.92,2.92,0,0,0-2.39-1,3.11,3.11,0,0,0-1.74.48,3.28,3.28,0,0,0-1.16,1.31,4.38,4.38,0,0,0-.41,1.93v9.6H261.8Z"/><path class="cls-1" d="M282.92,22.83A4.9,4.9,0,0,1,281.58,19V10.34h-2.33V6.91h2.33V2.81h4.61v4.1h3.06v3.43h-3.06v8.13a2.1,2.1,0,0,0,.52,1.63,2.29,2.29,0,0,0,1.56.46l.54,0c.16,0,.3,0,.44-.06v3.35l-.93.12c-.37,0-.79.05-1.27.05A6.17,6.17,0,0,1,282.92,22.83Z"/></g></g></svg>