<svg xmlns="http://www.w3.org/2000/svg" viewBox="0 0 199.27 67.87"><defs><style>.cls-1{fill:#fff;}</style></defs><g id="Layer_2" data-name="Layer 2"><g id="Layer_1-2" data-name="Layer 1"><path class="cls-1" d="M0,1.11H8.61a12,12,0,0,1,5.79,1.3A8.7,8.7,0,0,1,18.08,6.2a13.19,13.19,0,0,1,1.28,6.07v0a13.69,13.69,0,0,1-1.27,6.12,8.88,8.88,0,0,1-3.68,3.89,11.7,11.7,0,0,1-5.8,1.35H0ZM8.05,19.75a7,7,0,0,0,3.55-.84,5.44,5.44,0,0,0,2.2-2.5,10,10,0,0,0,.75-4.1v0a9.31,9.31,0,0,0-.77-4,5.43,5.43,0,0,0-2.22-2.46A6.91,6.91,0,0,0,8.05,5H4.72V19.75Z"/><path class="cls-1" d="M25.23,23a7.18,7.18,0,0,1-2.84-3,10,10,0,0,1-1-4.63h0a10.08,10.08,0,0,1,1-4.64,7.35,7.35,0,0,1,2.81-3,8.2,8.2,0,0,1,4.25-1.07,8.37,8.37,0,0,1,4.25,1,7,7,0,0,1,2.76,2.93,9.54,9.54,0,0,1,1,4.42v1.43H23.64v-2.9H35.28l-2.17,2.71V14.42A5.94,5.94,0,0,0,32.66,12a3.4,3.4,0,0,0-1.26-1.49,3.73,3.73,0,0,0-3.75,0A3.41,3.41,0,0,0,26.37,12a5.7,5.7,0,0,0-.46,2.43V16.2a5.46,5.46,0,0,0,.46,2.36,3.31,3.31,0,0,0,1.32,1.51,3.82,3.82,0,0,0,2,.52,4.06,4.06,0,0,0,1.63-.29,3.43,3.43,0,0,0,1.12-.75,2.42,2.42,0,0,0,.6-.93l0-.09H37.3l0,.17a6.25,6.25,0,0,1-.73,1.86A6.61,6.61,0,0,1,35,22.28a7.17,7.17,0,0,1-2.27,1.25,9.5,9.5,0,0,1-3.13.47A8.77,8.77,0,0,1,25.23,23Z"/><path class="cls-1" d="M43,22.94a7.24,7.24,0,0,1-2.87-3,10,10,0,0,1-1-4.64v0a9.83,9.83,0,0,1,1-4.63,7.17,7.17,0,0,1,2.87-3,8.55,8.55,0,0,1,4.35-1.06,8.68,8.68,0,0,1,4,.85A6.63,6.63,0,0,1,54,9.72,6.48,6.48,0,0,1,55,13v.11H50.75l0-.14a3.58,3.58,0,0,0-1-2,3.07,3.07,0,0,0-2.25-.81,3.14,3.14,0,0,0-1.93.62,3.9,3.9,0,0,0-1.26,1.76,7.54,7.54,0,0,0-.45,2.75h0a7.66,7.66,0,0,0,.45,2.79,3.77,3.77,0,0,0,1.26,1.75,3.23,3.23,0,0,0,1.95.6,3.15,3.15,0,0,0,2.21-.77,3.47,3.47,0,0,0,1-2l0-.14H55v.09A6.59,6.59,0,0,1,54,20.84a6.67,6.67,0,0,1-2.61,2.31,8.43,8.43,0,0,1-3.9.85A8.73,8.73,0,0,1,43,22.94Z"/><path class="cls-1" d="M60.44,23a7.2,7.2,0,0,1-2.85-3,10.13,10.13,0,0,1-1-4.63h0a10.21,10.21,0,0,1,1-4.64,7.42,7.42,0,0,1,2.81-3,8.22,8.22,0,0,1,4.26-1.07,8.33,8.33,0,0,1,4.24,1,7,7,0,0,1,2.76,2.93,9.54,9.54,0,0,1,1,4.42v1.43H58.84v-2.9H70.48l-2.17,2.71V14.42A5.94,5.94,0,0,0,67.86,12a3.27,3.27,0,0,0-1.26-1.49,3.45,3.45,0,0,0-5,1.52,5.7,5.7,0,0,0-.46,2.43V16.2a5.46,5.46,0,0,0,.46,2.36,3.43,3.43,0,0,0,1.32,1.51,3.86,3.86,0,0,0,2,.52,4,4,0,0,0,1.62-.29,3.48,3.48,0,0,0,1.13-.75,2.39,2.39,0,0,0,.59-.93l0-.09H72.5l0,.17a6,6,0,0,1-.73,1.86,6.61,6.61,0,0,1-1.48,1.72A7.12,7.12,0,0,1,68,23.53a9.56,9.56,0,0,1-3.14.47A8.76,8.76,0,0,1,60.44,23Z"/><path class="cls-1" d="M75,6.91h4.57V9.66h.09a5.18,5.18,0,0,1,1.94-2.27,5.73,5.73,0,0,1,3.17-.83A5.46,5.46,0,0,1,89,8.23a6.6,6.6,0,0,1,1.51,4.61V23.66H86V13.8a3.83,3.83,0,0,0-.77-2.55,2.9,2.9,0,0,0-2.31-.91,3.29,3.29,0,0,0-1.77.47A3.18,3.18,0,0,0,80,12.11,4.18,4.18,0,0,0,79.55,14v9.63H75Z"/><path class="cls-1" d="M96,22.83A4.9,4.9,0,0,1,94.61,19V10.34H92.28V6.91h2.33V2.81h4.61v4.1h3.06v3.43H99.22v8.13a2.1,2.1,0,0,0,.52,1.63,2.29,2.29,0,0,0,1.56.46l.54,0c.16,0,.31,0,.44-.06v3.35l-.93.12c-.37,0-.79.05-1.27.05A6.17,6.17,0,0,1,96,22.83Z"/><path class="cls-1" d="M104.8,6.91h4.56V9.83h.09a4.58,4.58,0,0,1,1.36-2.41,3.63,3.63,0,0,1,2.46-.86,5.39,5.39,0,0,1,.71.05,4,4,0,0,1,.6.12v4a2.84,2.84,0,0,0-.72-.2,5.61,5.61,0,0,0-.94-.07,4,4,0,0,0-1.92.44,2.91,2.91,0,0,0-1.22,1.28,4.58,4.58,0,0,0-.42,2.06v9.38H104.8Z"/><path class="cls-1" d="M118.09,23.27a4.76,4.76,0,0,1-2.7-4.41v0a4.27,4.27,0,0,1,1.71-3.59,8.83,8.83,0,0,1,4.82-1.51l6.53-.4v2.84l-5.84.39a3.59,3.59,0,0,0-2,.61,1.71,1.71,0,0,0-.69,1.42v0a1.72,1.72,0,0,0,.7,1.45,3.1,3.1,0,0,0,1.9.52,4.15,4.15,0,0,0,1.82-.39,3.21,3.21,0,0,0,1.26-1.1,2.71,2.71,0,0,0,.46-1.55v-5.1a2.25,2.25,0,0,0-.7-1.75,3,3,0,0,0-2-.64,3.49,3.49,0,0,0-2,.53,2.11,2.11,0,0,0-.92,1.33l0,.14h-4.19l0-.18a5.3,5.3,0,0,1,1-2.76,5.92,5.92,0,0,1,2.5-1.88,9.7,9.7,0,0,1,3.8-.68,9.29,9.29,0,0,1,3.77.7,5.72,5.72,0,0,1,2.47,2,5,5,0,0,1,.88,2.95V23.66h-4.56V21.17H126a5.56,5.56,0,0,1-1.22,1.47,5,5,0,0,1-1.68.95,6.15,6.15,0,0,1-2,.33A6.27,6.27,0,0,1,118.09,23.27Z"/><path class="cls-1" d="M133.67,1.11h4.56V23.66h-4.56Z"/><path class="cls-1" d="M142,4.05a2.26,2.26,0,0,1-.72-1.67A2.24,2.24,0,0,1,142,.7a2.5,2.5,0,0,1,3.47,0,2.26,2.26,0,0,1,.7,1.68,2.28,2.28,0,0,1-.7,1.67,2.45,2.45,0,0,1-3.47,0Zm-.56,2.86H146V23.66h-4.58Z"/><path class="cls-1" d="M152,23.33a6,6,0,0,1-2.54-1.87,5.59,5.59,0,0,1-1.09-2.77l0-.14h4.46l0,.14a2.47,2.47,0,0,0,1,1.53,3.65,3.65,0,0,0,2.13.55,4.31,4.31,0,0,0,1.48-.22,2.16,2.16,0,0,0,1-.6,1.39,1.39,0,0,0,.33-.93v0a1.34,1.34,0,0,0-.48-1.08,4.26,4.26,0,0,0-1.72-.67l-2.85-.61A7.2,7.2,0,0,1,150,14.92a4.16,4.16,0,0,1-1.23-3.09v0A4.54,4.54,0,0,1,149.59,9,5.51,5.51,0,0,1,152,7.21a9.8,9.8,0,0,1,3.71-.65,9.06,9.06,0,0,1,3.77.71,5.72,5.72,0,0,1,2.39,1.92,4.82,4.82,0,0,1,.89,2.67V12h-4.21v-.13a2.25,2.25,0,0,0-.84-1.49,3,3,0,0,0-2-.6,3.77,3.77,0,0,0-1.36.22,2,2,0,0,0-.89.6,1.48,1.48,0,0,0-.31.94v0a1.37,1.37,0,0,0,.5,1.08,4.05,4.05,0,0,0,1.76.7l2.85.61a7.75,7.75,0,0,1,3.79,1.64,3.89,3.89,0,0,1,1.14,2.94h0a4.56,4.56,0,0,1-.93,2.86,6.15,6.15,0,0,1-2.59,1.9,10,10,0,0,1-3.8.68A10.32,10.32,0,0,1,152,23.33Z"/><path class="cls-1" d="M168.7,23a7.18,7.18,0,0,1-2.84-3,10,10,0,0,1-1-4.63h0a10.08,10.08,0,0,1,1-4.64,7.39,7.39,0,0,1,2.8-3,9.09,9.09,0,0,1,8.5,0,7,7,0,0,1,2.77,2.93,9.54,9.54,0,0,1,1,4.42v1.43h-13.8v-2.9h11.64l-2.17,2.71V14.42a5.78,5.78,0,0,0-.46-2.46,3.31,3.31,0,0,0-1.25-1.49A3.51,3.51,0,0,0,173,10a3.46,3.46,0,0,0-1.88.51A3.41,3.41,0,0,0,169.84,12a5.7,5.7,0,0,0-.46,2.43V16.2a5.46,5.46,0,0,0,.46,2.36,3.31,3.31,0,0,0,1.32,1.51,3.82,3.82,0,0,0,2,.52,4.06,4.06,0,0,0,1.63-.29,3.43,3.43,0,0,0,1.12-.75,2.54,2.54,0,0,0,.6-.93l0-.09h4.19l-.05.17a6,6,0,0,1-.74,1.86,6.39,6.39,0,0,1-1.47,1.72,7.17,7.17,0,0,1-2.27,1.25,9.5,9.5,0,0,1-3.13.47A8.77,8.77,0,0,1,168.7,23Z"/><path class="cls-1" d="M185.81,23a6.58,6.58,0,0,1-2.36-3,12,12,0,0,1-.83-4.67h0a11.91,11.91,0,0,1,.83-4.68,6.61,6.61,0,0,1,2.36-3,6.33,6.33,0,0,1,3.63-1,5.68,5.68,0,0,1,3.14.87,5.49,5.49,0,0,1,2,2.38h.09V1.11h4.57V23.66H194.7V20.8h-.09a5.31,5.31,0,0,1-2,2.35,5.71,5.71,0,0,1-3.15.85A6.29,6.29,0,0,1,185.81,23Zm7.13-3.33a3.87,3.87,0,0,0,1.3-1.71,6.8,6.8,0,0,0,.46-2.63h0a6.54,6.54,0,0,0-.47-2.61,3.87,3.87,0,0,0-1.3-1.71,3.46,3.46,0,0,0-3.91,0,3.79,3.79,0,0,0-1.29,1.69,7,7,0,0,0-.45,2.64h0a7,7,0,0,0,.45,2.63A3.7,3.7,0,0,0,189,19.62a3.27,3.27,0,0,0,2,.6A3.3,3.3,0,0,0,192.94,19.62Z"/><path class="cls-1" d="M24.55,61.35a7.2,7.2,0,0,1-2.85-3,10.13,10.13,0,0,1-1-4.63h0a10.21,10.21,0,0,1,1-4.64,7.35,7.35,0,0,1,2.81-3A8.22,8.22,0,0,1,28.77,45,8.35,8.35,0,0,1,33,46a7.1,7.1,0,0,1,2.76,2.93,9.54,9.54,0,0,1,1,4.42v1.43H23v-2.9H34.59l-2.17,2.71V52.82A5.94,5.94,0,0,0,32,50.36a3.27,3.27,0,0,0-1.26-1.49,3.45,3.45,0,0,0-5,1.52,5.7,5.7,0,0,0-.46,2.43V54.6A5.46,5.46,0,0,0,25.68,57,3.43,3.43,0,0,0,27,58.47a3.83,3.83,0,0,0,2.05.52,4,4,0,0,0,1.62-.29A3.59,3.59,0,0,0,31.8,58a2.43,2.43,0,0,0,.59-.92l0-.1h4.19l0,.17A6,6,0,0,1,35.83,59a6.61,6.61,0,0,1-1.48,1.72,7.12,7.12,0,0,1-2.26,1.25A9.56,9.56,0,0,1,29,62.4,8.74,8.74,0,0,1,24.55,61.35Z"/><path class="cls-1" d="M43,53.71l-5.2-8.4h5.14l3,5.65H46l3-5.65h5L48.7,53.59l5.19,8.47h-5l-3.19-5.8h-.09l-3.14,5.8H37.7Z"/><path class="cls-1" d="M58.53,61.34a7.24,7.24,0,0,1-2.87-3,10,10,0,0,1-1-4.64v0a9.83,9.83,0,0,1,1-4.63,7.17,7.17,0,0,1,2.87-3A8.55,8.55,0,0,1,62.89,45a8.68,8.68,0,0,1,4,.85,6.63,6.63,0,0,1,2.62,2.31,6.48,6.48,0,0,1,1,3.26v.11H66.25l0-.14a3.58,3.58,0,0,0-1-2A3.07,3.07,0,0,0,63,48.54a3.14,3.14,0,0,0-1.93.62,3.9,3.9,0,0,0-1.26,1.76,7.54,7.54,0,0,0-.45,2.75h0a7.62,7.62,0,0,0,.45,2.79A3.77,3.77,0,0,0,61,58.22a3.23,3.23,0,0,0,1.95.6,3.15,3.15,0,0,0,2.21-.77,3.47,3.47,0,0,0,1-2l0-.14h4.25V56a6.59,6.59,0,0,1-1.07,3.28,6.67,6.67,0,0,1-2.61,2.31,8.43,8.43,0,0,1-3.9.85A8.73,8.73,0,0,1,58.53,61.34Z"/><path class="cls-1" d="M72.83,39.51h4.56V48.2h.09a5.16,5.16,0,0,1,2-2.4A5.72,5.72,0,0,1,82.62,45a5.91,5.91,0,0,1,3.15.81,5.32,5.32,0,0,1,2,2.27,8,8,0,0,1,.71,3.5V62.06H83.92V52.48a4.1,4.1,0,0,0-.83-2.74,3,3,0,0,0-2.39-1,3.16,3.16,0,0,0-1.74.48,3.35,3.35,0,0,0-1.16,1.31,4.38,4.38,0,0,0-.41,1.93v9.6H72.83Z"/><path class="cls-1" d="M93.46,61.67a4.78,4.78,0,0,1-2.69-4.41v0a4.27,4.27,0,0,1,1.71-3.59,8.8,8.8,0,0,1,4.82-1.51l6.53-.4v2.84L98,55a3.7,3.7,0,0,0-2,.61A1.73,1.73,0,0,0,95.3,57v0a1.69,1.69,0,0,0,.7,1.44,3.09,3.09,0,0,0,1.89.52,4.12,4.12,0,0,0,1.82-.39A3.17,3.17,0,0,0,101,57.5a2.79,2.79,0,0,0,.46-1.55v-5.1a2.25,2.25,0,0,0-.71-1.75,3,3,0,0,0-2-.64,3.47,3.47,0,0,0-2,.53,2.17,2.17,0,0,0-.93,1.33l0,.14H91.52v-.18a5.23,5.23,0,0,1,1-2.75,5.92,5.92,0,0,1,2.5-1.89A9.79,9.79,0,0,1,98.88,45a9.41,9.41,0,0,1,3.76.7,5.75,5.75,0,0,1,2.48,2,5,5,0,0,1,.88,3V62.06h-4.56V59.57h-.1A5.56,5.56,0,0,1,100.12,61a4.93,4.93,0,0,1-1.67,1,6.23,6.23,0,0,1-2,.33A6.32,6.32,0,0,1,93.46,61.67Z"/><path class="cls-1" d="M108.94,45.31h4.56v2.75h.09a5.25,5.25,0,0,1,1.94-2.27A5.73,5.73,0,0,1,118.7,45,5.49,5.49,0,0,1,123,46.63a6.65,6.65,0,0,1,1.5,4.61V62.06h-4.56V52.2a3.83,3.83,0,0,0-.77-2.55,2.9,2.9,0,0,0-2.31-.91,3.14,3.14,0,0,0-2.93,1.77,4.31,4.31,0,0,0-.41,1.92v9.63h-4.56Z"/><path class="cls-1" d="M131.2,67.24a7.05,7.05,0,0,1-2.72-1.71,4.56,4.56,0,0,1-1.23-2.43l0-.14h4.45l.05.11a2.49,2.49,0,0,0,1.17,1.08,5,5,0,0,0,2.31.47,3.85,3.85,0,0,0,2.69-.84,2.92,2.92,0,0,0,.92-2.24V59h-.09a4.65,4.65,0,0,1-1.2,1.52,5.32,5.32,0,0,1-1.76,1,6.53,6.53,0,0,1-2.21.35,6.46,6.46,0,0,1-3.63-1A6.38,6.38,0,0,1,127.57,58a11,11,0,0,1-.82-4.47h0a11.32,11.32,0,0,1,.84-4.58,6.22,6.22,0,0,1,6-3.94,5.86,5.86,0,0,1,2.17.39,5.24,5.24,0,0,1,1.73,1.11,5.64,5.64,0,0,1,1.19,1.71h.11V45.31h4.57V61.59a5.55,5.55,0,0,1-1,3.27,6.49,6.49,0,0,1-2.83,2.21,10.86,10.86,0,0,1-4.35.8A11.54,11.54,0,0,1,131.2,67.24Zm5.88-9.36a3.83,3.83,0,0,0,1.29-1.68,6.83,6.83,0,0,0,.46-2.6h0a6.67,6.67,0,0,0-.46-2.57,3.78,3.78,0,0,0-1.3-1.68,3.27,3.27,0,0,0-1.95-.6,3.36,3.36,0,0,0-2,.59,3.66,3.66,0,0,0-1.3,1.67,6.78,6.78,0,0,0-.45,2.59h0a6.83,6.83,0,0,0,.45,2.6,3.64,3.64,0,0,0,1.3,1.68,3.3,3.3,0,0,0,2,.6A3.24,3.24,0,0,0,137.08,57.88Z"/><path class="cls-1" d="M149.58,61.35a7.2,7.2,0,0,1-2.85-3,10.13,10.13,0,0,1-1-4.63h0a10.21,10.21,0,0,1,1-4.64,7.42,7.42,0,0,1,2.81-3A8.22,8.22,0,0,1,153.8,45,8.33,8.33,0,0,1,158,46a7.1,7.1,0,0,1,2.76,2.93,9.41,9.41,0,0,1,1,4.42v1.43H148v-2.9h11.64l-2.17,2.71V52.82a5.94,5.94,0,0,0-.45-2.46,3.27,3.27,0,0,0-1.26-1.49,3.47,3.47,0,0,0-1.86-.5,3.31,3.31,0,0,0-3.17,2,5.7,5.7,0,0,0-.46,2.43V54.6a5.46,5.46,0,0,0,.46,2.36A3.43,3.43,0,0,0,152,58.47a3.86,3.86,0,0,0,2.05.52,4,4,0,0,0,1.62-.29,3.48,3.48,0,0,0,1.13-.75,2.43,2.43,0,0,0,.59-.92l0-.1h4.19l0,.17a6,6,0,0,1-.73,1.86,6.61,6.61,0,0,1-1.48,1.72,7.12,7.12,0,0,1-2.26,1.25,9.56,9.56,0,0,1-3.14.47A8.76,8.76,0,0,1,149.58,61.35Z"/><path class="cls-1" d="M167.07,61.73a5.89,5.89,0,0,1-2.54-1.87,5.59,5.59,0,0,1-1.09-2.77l0-.14h4.46l0,.14a2.47,2.47,0,0,0,1,1.53,3.65,3.65,0,0,0,2.13.55A4.59,4.59,0,0,0,172.5,59a2.27,2.27,0,0,0,.95-.61,1.39,1.39,0,0,0,.33-.93v0a1.34,1.34,0,0,0-.48-1.08,4.26,4.26,0,0,0-1.72-.67L168.73,55a7.16,7.16,0,0,1-3.67-1.72,4.16,4.16,0,0,1-1.23-3.09v0a4.54,4.54,0,0,1,.87-2.78,5.51,5.51,0,0,1,2.45-1.82,9.8,9.8,0,0,1,3.71-.65,9.06,9.06,0,0,1,3.77.71A5.72,5.72,0,0,1,177,47.59a4.82,4.82,0,0,1,.89,2.67v.16H173.7v-.13a2.25,2.25,0,0,0-.84-1.49,3,3,0,0,0-2-.6,3.73,3.73,0,0,0-1.36.22,2,2,0,0,0-.89.61,1.43,1.43,0,0,0-.31.93v0a1.35,1.35,0,0,0,.5,1.08,4.05,4.05,0,0,0,1.76.7l2.85.61A7.75,7.75,0,0,1,177.2,54,3.89,3.89,0,0,1,178.34,57h0a4.56,4.56,0,0,1-.93,2.86,6.15,6.15,0,0,1-2.59,1.9,10,10,0,0,1-3.8.68A10.32,10.32,0,0,1,167.07,61.73Z"/></g></g></svg>