<svg xmlns="http://www.w3.org/2000/svg" viewBox="0 0 100.56 23.33"><defs><style>.cls-1{fill:#fff;}</style></defs><g id="Layer_2" data-name="Layer 2"><g id="Layer_1-2" data-name="Layer 1"><path class="cls-1" d="M5.08,21.92a9.4,9.4,0,0,1-3.76-4A13.89,13.89,0,0,1,0,11.59H0A13.62,13.62,0,0,1,1.31,5.37a9.35,9.35,0,0,1,3.74-4A11.25,11.25,0,0,1,10.77,0a11.13,11.13,0,0,1,4.79,1A9.12,9.12,0,0,1,19,3.6a8.39,8.39,0,0,1,1.67,3.79l.05.23H15.92l0-.17A5,5,0,0,0,14,4.91,5.5,5.5,0,0,0,10.78,4a5.64,5.64,0,0,0-3.19.89,5.56,5.56,0,0,0-2,2.58,10.35,10.35,0,0,0-.71,4.08h0a10.5,10.5,0,0,0,.75,4.17A6,6,0,0,0,7.7,18.4a5.67,5.67,0,0,0,3.25.93,6.14,6.14,0,0,0,2.71-.57,4.48,4.48,0,0,0,2.59-4l0-.31H11.12V10.88h9.76v2.59a10.9,10.9,0,0,1-1.2,5.28,8.18,8.18,0,0,1-3.43,3.39,11.33,11.33,0,0,1-5.37,1.19A11.38,11.38,0,0,1,5.08,21.92Z"/><path class="cls-1" d="M25.48,22.55a4.76,4.76,0,0,1-2.7-4.41v0a4.27,4.27,0,0,1,1.71-3.59A8.74,8.74,0,0,1,29.31,13l6.53-.41v2.84L30,15.84a3.67,3.67,0,0,0-2,.61,1.72,1.72,0,0,0-.69,1.43v0A1.7,1.7,0,0,0,28,19.35a3.05,3.05,0,0,0,1.89.53,4.16,4.16,0,0,0,1.82-.4A3.21,3.21,0,0,0,33,18.38a2.71,2.71,0,0,0,.46-1.55v-5.1a2.26,2.26,0,0,0-.7-1.75,3,3,0,0,0-2.05-.64,3.49,3.49,0,0,0-2,.53,2.11,2.11,0,0,0-.92,1.33l0,.14H23.53l0-.18a5.23,5.23,0,0,1,1-2.75,5.85,5.85,0,0,1,2.5-1.89,9.7,9.7,0,0,1,3.8-.68,9.46,9.46,0,0,1,3.77.7,5.72,5.72,0,0,1,2.47,2A5,5,0,0,1,38,11.45V22.94H33.45V20.45h-.09a5.26,5.26,0,0,1-1.22,1.47,5.18,5.18,0,0,1-1.68,1,6.41,6.41,0,0,1-2,.32A6.3,6.3,0,0,1,25.48,22.55Z"/><path class="cls-1" d="M41,6.19h4.57V9h.09a4.63,4.63,0,0,1,1.76-2.3,5,5,0,0,1,2.93-.86,5.29,5.29,0,0,1,2.11.41A4.27,4.27,0,0,1,54,7.42a4.54,4.54,0,0,1,.92,1.88H55a5,5,0,0,1,1.13-1.84,5.39,5.39,0,0,1,1.8-1.19,5.81,5.81,0,0,1,2.27-.43,5.72,5.72,0,0,1,2.88.71,4.92,4.92,0,0,1,1.92,2,6.08,6.08,0,0,1,.69,3V22.94H61.12V12.64a3.21,3.21,0,0,0-.7-2.23,2.59,2.59,0,0,0-2-.79,2.88,2.88,0,0,0-1.51.4,2.72,2.72,0,0,0-1,1.1,3.58,3.58,0,0,0-.36,1.65V22.94h-4.4V12.5a3,3,0,0,0-.71-2.12,2.63,2.63,0,0,0-2-.76,2.72,2.72,0,0,0-1.51.42,2.88,2.88,0,0,0-1,1.13,3.65,3.65,0,0,0-.36,1.66V22.94H41Z"/><path class="cls-1" d="M71.8,22.23a7.2,7.2,0,0,1-2.85-3,10.1,10.1,0,0,1-1-4.63h0A10.13,10.13,0,0,1,69,10a7.32,7.32,0,0,1,2.81-3A8.22,8.22,0,0,1,76,5.84a8.35,8.35,0,0,1,4.24,1A7.1,7.1,0,0,1,83,9.81a9.54,9.54,0,0,1,1,4.42v1.43H70.2V12.77H81.84l-2.17,2.7V13.7a5.94,5.94,0,0,0-.45-2.46A3.27,3.27,0,0,0,78,9.75a3.51,3.51,0,0,0-1.87-.5,3.43,3.43,0,0,0-1.88.52,3.39,3.39,0,0,0-1.28,1.5,5.76,5.76,0,0,0-.46,2.43v1.78a5.46,5.46,0,0,0,.46,2.36,3.43,3.43,0,0,0,1.32,1.51,3.84,3.84,0,0,0,2,.53,4,4,0,0,0,1.62-.3,3.59,3.59,0,0,0,1.13-.75,2.43,2.43,0,0,0,.59-.92l0-.1h4.19l0,.17a6,6,0,0,1-.73,1.86,6.61,6.61,0,0,1-1.48,1.72,7.12,7.12,0,0,1-2.26,1.25,9.56,9.56,0,0,1-3.14.47A8.74,8.74,0,0,1,71.8,22.23Z"/><path class="cls-1" d="M89.29,22.61a5.89,5.89,0,0,1-2.54-1.87A5.55,5.55,0,0,1,85.66,18l0-.14h4.45l0,.14a2.49,2.49,0,0,0,1,1.53,3.56,3.56,0,0,0,2.12.55,4.61,4.61,0,0,0,1.49-.21,2.05,2.05,0,0,0,.94-.61A1.35,1.35,0,0,0,96,18.3v0a1.34,1.34,0,0,0-.48-1.08,4.26,4.26,0,0,0-1.72-.67L91,15.92a7.08,7.08,0,0,1-3.67-1.72,4.16,4.16,0,0,1-1.23-3.09v0a4.59,4.59,0,0,1,.86-2.78,5.6,5.6,0,0,1,2.46-1.82,9.76,9.76,0,0,1,3.71-.65,9.09,9.09,0,0,1,3.77.71,5.79,5.79,0,0,1,2.39,1.92,4.81,4.81,0,0,1,.88,2.67v.16h-4.2v-.13a2.29,2.29,0,0,0-.84-1.49,3,3,0,0,0-2-.6,3.73,3.73,0,0,0-1.36.22,2,2,0,0,0-.89.61,1.43,1.43,0,0,0-.31.93v0a1.35,1.35,0,0,0,.5,1.08,4.05,4.05,0,0,0,1.76.7l2.84.61a7.76,7.76,0,0,1,3.79,1.64,3.86,3.86,0,0,1,1.15,2.94h0a4.51,4.51,0,0,1-.94,2.86A6,6,0,0,1,97,22.6a10,10,0,0,1-3.81.68A10.31,10.31,0,0,1,89.29,22.61Z"/></g></g></svg>