<svg xmlns="http://www.w3.org/2000/svg" viewBox="0 0 141.48 22.89"><defs><style>.cls-1{fill:#fff;}</style></defs><g id="Layer_2" data-name="Layer 2"><g id="Layer_1-2" data-name="Layer 1"><path class="cls-1" d="M0,0H4.72V22.55H0Z"/><path class="cls-1" d="M8.08,5.8h4.56V8.55h.09a5.25,5.25,0,0,1,1.94-2.27,5.75,5.75,0,0,1,3.17-.83,5.49,5.49,0,0,1,4.28,1.67,6.65,6.65,0,0,1,1.5,4.61V22.55H19.06V12.69a3.84,3.84,0,0,0-.77-2.55A2.9,2.9,0,0,0,16,9.23,3.14,3.14,0,0,0,13.05,11a4.31,4.31,0,0,0-.41,1.92v9.63H8.08Z"/><path class="cls-1" d="M29.46,22.22a6,6,0,0,1-2.54-1.87,5.59,5.59,0,0,1-1.09-2.77l0-.14h4.46l0,.14a2.44,2.44,0,0,0,1,1.53,3.65,3.65,0,0,0,2.13.55,4.59,4.59,0,0,0,1.48-.21,2.27,2.27,0,0,0,1-.61,1.39,1.39,0,0,0,.33-.93v0a1.34,1.34,0,0,0-.48-1.08A4.26,4.26,0,0,0,34,16.14l-2.85-.61a7.2,7.2,0,0,1-3.67-1.72,4.16,4.16,0,0,1-1.23-3.09v0a4.54,4.54,0,0,1,.87-2.78A5.51,5.51,0,0,1,29.54,6.1a9.8,9.8,0,0,1,3.71-.65A9.06,9.06,0,0,1,37,6.16a5.72,5.72,0,0,1,2.39,1.92,4.82,4.82,0,0,1,.89,2.67v.16H36.09v-.13a2.25,2.25,0,0,0-.84-1.49,3,3,0,0,0-2-.6,3.77,3.77,0,0,0-1.36.22,2,2,0,0,0-.89.61,1.43,1.43,0,0,0-.31.93v0a1.35,1.35,0,0,0,.5,1.08,4.05,4.05,0,0,0,1.76.7l2.85.61a7.75,7.75,0,0,1,3.79,1.64,3.89,3.89,0,0,1,1.14,2.94h0a4.56,4.56,0,0,1-.93,2.86,6.15,6.15,0,0,1-2.59,1.9,10,10,0,0,1-3.8.68A10.32,10.32,0,0,1,29.46,22.22Z"/><path class="cls-1" d="M45.55,22.13a4.81,4.81,0,0,1-2-2.16,7.72,7.72,0,0,1-.67-3.36V5.8h4.56v9.86a3.82,3.82,0,0,0,.77,2.54,2.86,2.86,0,0,0,2.31.91,3.11,3.11,0,0,0,2.93-1.77,4.37,4.37,0,0,0,.41-1.92V5.8h4.56V22.55H53.89V19.78h-.11a5.11,5.11,0,0,1-1.92,2.28,5.8,5.8,0,0,1-3.19.83A6,6,0,0,1,45.55,22.13Z"/><path class="cls-1" d="M61.42,5.8H66V8.72h.1a4.51,4.51,0,0,1,1.36-2.41,3.59,3.59,0,0,1,2.45-.86,5.55,5.55,0,0,1,.72,0,3.58,3.58,0,0,1,.59.12v4a2.62,2.62,0,0,0-.72-.2,5.49,5.49,0,0,0-.93-.07,4,4,0,0,0-1.93.44,2.89,2.89,0,0,0-1.21,1.28A4.45,4.45,0,0,0,66,13.17v9.38H61.42Z"/><path class="cls-1" d="M74.71,22.16A4.78,4.78,0,0,1,72,17.75v0a4.27,4.27,0,0,1,1.71-3.59,8.8,8.8,0,0,1,4.82-1.51l6.53-.4v2.84l-5.85.39a3.7,3.7,0,0,0-2,.61,1.73,1.73,0,0,0-.68,1.42v0a1.69,1.69,0,0,0,.7,1.44,3.09,3.09,0,0,0,1.89.52A4.12,4.12,0,0,0,81,19.09,3.17,3.17,0,0,0,82.23,18a2.79,2.79,0,0,0,.46-1.55v-5.1A2.25,2.25,0,0,0,82,9.59a3,3,0,0,0-2-.64,3.47,3.47,0,0,0-2,.53A2.17,2.17,0,0,0,77,10.81L77,11H72.77v-.18a5.32,5.32,0,0,1,1-2.75,5.92,5.92,0,0,1,2.5-1.89,9.77,9.77,0,0,1,3.8-.68,9.43,9.43,0,0,1,3.77.7,5.75,5.75,0,0,1,2.48,2,5,5,0,0,1,.88,3V22.55H82.69V20.06h-.1a5.56,5.56,0,0,1-1.21,1.47,5,5,0,0,1-1.68.95,6.19,6.19,0,0,1-2,.33A6.32,6.32,0,0,1,74.71,22.16Z"/><path class="cls-1" d="M90.19,5.8h4.56V8.55h.09a5.25,5.25,0,0,1,1.94-2.27A5.75,5.75,0,0,1,100,5.45a5.49,5.49,0,0,1,4.28,1.67,6.65,6.65,0,0,1,1.5,4.61V22.55h-4.56V12.69a3.84,3.84,0,0,0-.77-2.55,2.9,2.9,0,0,0-2.31-.91A3.14,3.14,0,0,0,95.16,11a4.31,4.31,0,0,0-.41,1.92v9.63H90.19Z"/><path class="cls-1" d="M111.88,21.83a7.18,7.18,0,0,1-2.87-3,10,10,0,0,1-1-4.64v0a9.83,9.83,0,0,1,1-4.63,7.14,7.14,0,0,1,2.86-3,8.6,8.6,0,0,1,4.35-1.06,8.76,8.76,0,0,1,4,.85,6.67,6.67,0,0,1,2.61,2.31,6.49,6.49,0,0,1,1,3.27V12h-4.25v-.14a3.64,3.64,0,0,0-1-2,3.43,3.43,0,0,0-4.18-.19,3.92,3.92,0,0,0-1.27,1.76,7.55,7.55,0,0,0-.44,2.75h0A7.63,7.63,0,0,0,113.1,17a3.78,3.78,0,0,0,1.27,1.75,3.18,3.18,0,0,0,1.94.6,3.13,3.13,0,0,0,2.21-.77,3.54,3.54,0,0,0,1.06-2l0-.14h4.25v.09a6.58,6.58,0,0,1-1.06,3.28A6.77,6.77,0,0,1,120.18,22a8.43,8.43,0,0,1-3.9.85A8.66,8.66,0,0,1,111.88,21.83Z"/><path class="cls-1" d="M129.28,21.84a7.12,7.12,0,0,1-2.84-3,10,10,0,0,1-1-4.63h0a10.08,10.08,0,0,1,1-4.64,7.33,7.33,0,0,1,2.8-3,9.09,9.09,0,0,1,8.5,0,7.12,7.12,0,0,1,2.77,2.93,9.53,9.53,0,0,1,1,4.42v1.43H127.69V12.38h11.64l-2.17,2.7V13.31a5.93,5.93,0,0,0-.46-2.46,3.31,3.31,0,0,0-1.25-1.49,3.51,3.51,0,0,0-1.87-.5,3.37,3.37,0,0,0-3.17,2,5.85,5.85,0,0,0-.46,2.43v1.78a5.61,5.61,0,0,0,.46,2.36A3.43,3.43,0,0,0,131.73,19a3.88,3.88,0,0,0,2.05.52,4.06,4.06,0,0,0,1.63-.29,3.54,3.54,0,0,0,1.12-.75,2.43,2.43,0,0,0,.59-.92l0-.1h4.18l0,.17a6,6,0,0,1-.74,1.86,6.39,6.39,0,0,1-1.47,1.72,7.17,7.17,0,0,1-2.27,1.25,9.5,9.5,0,0,1-3.13.47A8.77,8.77,0,0,1,129.28,21.84Z"/></g></g></svg>