<svg xmlns="http://www.w3.org/2000/svg" viewBox="0 0 307.81 29.13"><defs><style>.cls-1{fill:#fff;}</style></defs><g id="Layer_2" data-name="Layer 2"><g id="Layer_1-2" data-name="Layer 1"><path class="cls-1" d="M5.1,22.63a9.42,9.42,0,0,1-3.77-4A13.48,13.48,0,0,1,0,12.39v0a13.44,13.44,0,0,1,1.34-6.2,9.62,9.62,0,0,1,3.78-4A11.34,11.34,0,0,1,10.89.72a11.23,11.23,0,0,1,5.78,1.42,9.63,9.63,0,0,1,3.77,4,13.57,13.57,0,0,1,1.33,6.2v0a13.57,13.57,0,0,1-1.33,6.2,9.58,9.58,0,0,1-3.76,4,11.25,11.25,0,0,1-5.79,1.43A11.3,11.3,0,0,1,5.1,22.63Zm9-3.53a6.08,6.08,0,0,0,2.08-2.66,10.27,10.27,0,0,0,.74-4.05v0A10.26,10.26,0,0,0,16.2,8.3a6,6,0,0,0-2.11-2.65,5.51,5.51,0,0,0-3.2-.93,5.56,5.56,0,0,0-3.21.93A6,6,0,0,0,5.57,8.29a10.27,10.27,0,0,0-.74,4.07v0a10.26,10.26,0,0,0,.74,4.06,6.06,6.06,0,0,0,2.1,2.66,5.58,5.58,0,0,0,3.22.94A5.5,5.5,0,0,0,14.12,19.1Z"/><path class="cls-1" d="M23.2,6.91h4.61l2.53,12.42h.1l3-12.42h4.37l3,12.42h.09L43.41,6.91h4.5L43.47,23.66H38.61l-3-11.85h-.1l-3,11.85h-4.8Z"/><path class="cls-1" d="M49.69,6.91h4.56V9.66h.09a5.25,5.25,0,0,1,1.94-2.27,5.75,5.75,0,0,1,3.17-.83,5.49,5.49,0,0,1,4.28,1.67,6.65,6.65,0,0,1,1.5,4.61V23.66H60.67V13.8a3.83,3.83,0,0,0-.77-2.55,2.9,2.9,0,0,0-2.31-.91,3.28,3.28,0,0,0-1.76.47,3.21,3.21,0,0,0-1.17,1.3A4.31,4.31,0,0,0,54.25,14v9.63H49.69Z"/><path class="cls-1" d="M71.34,23a7.18,7.18,0,0,1-2.84-3,10,10,0,0,1-1-4.63h0a10.08,10.08,0,0,1,1-4.64,7.39,7.39,0,0,1,2.8-3,9.09,9.09,0,0,1,8.5,0,7,7,0,0,1,2.77,2.93,9.54,9.54,0,0,1,1,4.42v1.43H69.75v-2.9H81.39l-2.17,2.71V14.42A5.94,5.94,0,0,0,78.77,12a3.4,3.4,0,0,0-1.26-1.49,3.51,3.51,0,0,0-1.87-.5,3.46,3.46,0,0,0-1.88.51A3.41,3.41,0,0,0,72.48,12,5.7,5.7,0,0,0,72,14.42V16.2a5.46,5.46,0,0,0,.46,2.36,3.31,3.31,0,0,0,1.32,1.51,3.82,3.82,0,0,0,2,.52,4.06,4.06,0,0,0,1.63-.29,3.43,3.43,0,0,0,1.12-.75,2.42,2.42,0,0,0,.6-.93l0-.09h4.19l0,.17a6,6,0,0,1-.74,1.86,6.39,6.39,0,0,1-1.47,1.72,7.17,7.17,0,0,1-2.27,1.25,9.5,9.5,0,0,1-3.13.47A8.77,8.77,0,0,1,71.34,23Z"/><path class="cls-1" d="M85.89,6.91h4.56V9.83h.1a4.51,4.51,0,0,1,1.36-2.41,3.59,3.59,0,0,1,2.45-.86,5.55,5.55,0,0,1,.72.05,3.82,3.82,0,0,1,.59.12v4a2.84,2.84,0,0,0-.72-.2A5.49,5.49,0,0,0,94,10.5a4,4,0,0,0-1.93.44,2.89,2.89,0,0,0-1.21,1.28,4.45,4.45,0,0,0-.43,2.06v9.38H85.89Z"/><path class="cls-1" d="M100.48,23.33a5.89,5.89,0,0,1-2.54-1.87,5.6,5.6,0,0,1-1.1-2.77v-.14h4.45l0,.14a2.52,2.52,0,0,0,1,1.53,3.63,3.63,0,0,0,2.12.55,4.37,4.37,0,0,0,1.49-.22,2.12,2.12,0,0,0,.94-.6,1.35,1.35,0,0,0,.34-.93v0a1.32,1.32,0,0,0-.49-1.08,4.14,4.14,0,0,0-1.72-.67l-2.84-.61a7.16,7.16,0,0,1-3.67-1.72,4.17,4.17,0,0,1-1.24-3.09v0A4.54,4.54,0,0,1,98.1,9a5.63,5.63,0,0,1,2.45-1.82,9.85,9.85,0,0,1,3.72-.65,9.12,9.12,0,0,1,3.77.71,5.79,5.79,0,0,1,2.39,1.92,4.81,4.81,0,0,1,.88,2.67V12h-4.2l0-.13a2.24,2.24,0,0,0-.83-1.49,3,3,0,0,0-2-.6,3.69,3.69,0,0,0-1.36.22,2,2,0,0,0-.89.6,1.49,1.49,0,0,0-.32.94v0a1.38,1.38,0,0,0,.5,1.08,4.1,4.1,0,0,0,1.77.7l2.84.61a7.71,7.71,0,0,1,3.79,1.64,3.86,3.86,0,0,1,1.15,2.94h0a4.51,4.51,0,0,1-.94,2.86,6.05,6.05,0,0,1-2.58,1.9,10,10,0,0,1-3.81.68A10.27,10.27,0,0,1,100.48,23.33Z"/><path class="cls-1" d="M114.11,1.11h4.56V9.8h.1a5.09,5.09,0,0,1,2-2.4,5.75,5.75,0,0,1,3.18-.84,5.89,5.89,0,0,1,3.14.81,5.26,5.26,0,0,1,2,2.27,8,8,0,0,1,.71,3.5V23.66H125.2V14.08a4.15,4.15,0,0,0-.82-2.74,2.94,2.94,0,0,0-2.4-1,3.16,3.16,0,0,0-1.74.48,3.25,3.25,0,0,0-1.15,1.31,4.25,4.25,0,0,0-.42,1.93v9.6h-4.56Z"/><path class="cls-1" d="M133.34,4.05a2.26,2.26,0,0,1-.72-1.67A2.24,2.24,0,0,1,133.34.7a2.5,2.5,0,0,1,3.47,0,2.27,2.27,0,0,1,.71,1.68,2.29,2.29,0,0,1-.71,1.67,2.45,2.45,0,0,1-3.47,0Zm-.56,2.86h4.58V23.66h-4.58Z"/><path class="cls-1" d="M140.41,6.91H145V9.83h.11a5.7,5.7,0,0,1,1.19-1.75A5.18,5.18,0,0,1,148,7a5.91,5.91,0,0,1,2.18-.39,6.37,6.37,0,0,1,3.65,1,6.61,6.61,0,0,1,2.36,3,12,12,0,0,1,.83,4.68h0a12,12,0,0,1-.82,4.67,6.6,6.6,0,0,1-2.33,3A6.24,6.24,0,0,1,150.25,24a6.06,6.06,0,0,1-2.2-.39,5.35,5.35,0,0,1-1.77-1.1,5.9,5.9,0,0,1-1.22-1.71H145v8.32h-4.56Zm10.25,12.71a3.82,3.82,0,0,0,1.27-1.71,7,7,0,0,0,.45-2.63h0a7,7,0,0,0-.46-2.64,3.77,3.77,0,0,0-1.28-1.69,3.23,3.23,0,0,0-1.95-.6,3.26,3.26,0,0,0-2,.61,3.89,3.89,0,0,0-1.31,1.71,6.74,6.74,0,0,0-.47,2.62v0a6.54,6.54,0,0,0,.48,2.61,4,4,0,0,0,1.31,1.71,3.5,3.5,0,0,0,3.92,0Z"/><path class="cls-1" d="M167.76,23.27a4.76,4.76,0,0,1-2.7-4.41v0a4.27,4.27,0,0,1,1.71-3.59,8.83,8.83,0,0,1,4.82-1.51l6.53-.4v2.84l-5.84.39a3.7,3.7,0,0,0-2,.61,1.71,1.71,0,0,0-.69,1.42v0a1.71,1.71,0,0,0,.71,1.45,3.09,3.09,0,0,0,1.89.52A4.15,4.15,0,0,0,174,20.2a3.14,3.14,0,0,0,1.26-1.1,2.71,2.71,0,0,0,.46-1.55v-5.1a2.25,2.25,0,0,0-.7-1.75,3,3,0,0,0-2.05-.64,3.49,3.49,0,0,0-2,.53,2.15,2.15,0,0,0-.92,1.33l0,.14h-4.19l0-.18a5.3,5.3,0,0,1,1-2.76,6,6,0,0,1,2.5-1.88,9.7,9.7,0,0,1,3.8-.68,9.26,9.26,0,0,1,3.77.7,5.67,5.67,0,0,1,2.47,2,5,5,0,0,1,.89,2.95V23.66h-4.57V21.17h-.09a5.56,5.56,0,0,1-1.22,1.47,5,5,0,0,1-1.68.95,6.15,6.15,0,0,1-2,.33A6.3,6.3,0,0,1,167.76,23.27Z"/><path class="cls-1" d="M183.23,6.91h4.57V9.66h.09a5.18,5.18,0,0,1,1.94-2.27A5.73,5.73,0,0,1,193,6.56a5.46,5.46,0,0,1,4.27,1.67,6.6,6.6,0,0,1,1.51,4.61V23.66h-4.56V13.8a3.83,3.83,0,0,0-.77-2.55,2.9,2.9,0,0,0-2.31-.91,3.26,3.26,0,0,0-1.76.47,3.21,3.21,0,0,0-1.17,1.3A4.18,4.18,0,0,0,187.8,14v9.63h-4.57Z"/><path class="cls-1" d="M204.23,23a6.57,6.57,0,0,1-2.35-3,11.78,11.78,0,0,1-.83-4.67h0a11.73,11.73,0,0,1,.83-4.68,6.59,6.59,0,0,1,2.35-3,6.33,6.33,0,0,1,3.63-1,5.65,5.65,0,0,1,3.14.87,5.43,5.43,0,0,1,2,2.38h.09V1.11h4.57V23.66h-4.57V20.8H213a5.31,5.31,0,0,1-2,2.35,5.7,5.7,0,0,1-3.14.85A6.3,6.3,0,0,1,204.23,23Zm7.13-3.33a3.8,3.8,0,0,0,1.3-1.71,6.8,6.8,0,0,0,.46-2.63h0a6.73,6.73,0,0,0-.46-2.61A4,4,0,0,0,211.35,11a3.18,3.18,0,0,0-1.94-.61,3.27,3.27,0,0,0-2,.6,3.77,3.77,0,0,0-1.28,1.69,6.81,6.81,0,0,0-.46,2.64h0a7,7,0,0,0,.45,2.63,3.76,3.76,0,0,0,1.28,1.71,3.32,3.32,0,0,0,2,.6A3.27,3.27,0,0,0,211.36,19.62Z"/><path class="cls-1" d="M227.45,1.11h8.61a12,12,0,0,1,5.79,1.3,8.64,8.64,0,0,1,3.68,3.79,13.06,13.06,0,0,1,1.28,6.07v0a13.56,13.56,0,0,1-1.27,6.12,8.88,8.88,0,0,1-3.68,3.89,11.7,11.7,0,0,1-5.8,1.35h-8.61Zm8.05,18.64a6.93,6.93,0,0,0,3.55-.84,5.39,5.39,0,0,0,2.2-2.5,10,10,0,0,0,.75-4.1v0a9.31,9.31,0,0,0-.77-4A5.47,5.47,0,0,0,239,5.85,6.92,6.92,0,0,0,235.5,5h-3.33V19.75Z"/><path class="cls-1" d="M255.34,1.11h4.18V5.48h-1.44l-5.64,18.18h-5Zm-2.46,13.55h10.51l1.16,3.53H251.72Zm5.29-9.18V1.11h2.74l7.86,22.55h-5Z"/><path class="cls-1" d="M274.37,22.63a9.51,9.51,0,0,1-3.78-4,13.61,13.61,0,0,1-1.32-6.21v0a13.44,13.44,0,0,1,1.33-6.2,9.62,9.62,0,0,1,3.78-4A11.38,11.38,0,0,1,280.16.72a11.26,11.26,0,0,1,5.78,1.42,9.61,9.61,0,0,1,3.76,4,13.44,13.44,0,0,1,1.33,6.2v0a13.44,13.44,0,0,1-1.33,6.2,9.56,9.56,0,0,1-3.75,4,12.48,12.48,0,0,1-11.58,0Zm9-3.53a6.1,6.1,0,0,0,2.09-2.66,10.28,10.28,0,0,0,.73-4.05v0a10.08,10.08,0,0,0-.74-4.06,5.91,5.91,0,0,0-2.1-2.65,6,6,0,0,0-6.41,0,5.88,5.88,0,0,0-2.11,2.64,10.09,10.09,0,0,0-.75,4.07v0a10.08,10.08,0,0,0,.75,4.06,6,6,0,0,0,2.1,2.66,5.56,5.56,0,0,0,3.22.94A5.47,5.47,0,0,0,283.38,19.1Z"/><path class="cls-1" d="M296.54,23.33A5.89,5.89,0,0,1,294,21.46a5.59,5.59,0,0,1-1.09-2.77l0-.14h4.45l0,.14a2.47,2.47,0,0,0,1,1.53,3.63,3.63,0,0,0,2.12.55,4.34,4.34,0,0,0,1.49-.22,2.07,2.07,0,0,0,.94-.6,1.35,1.35,0,0,0,.34-.93v0a1.34,1.34,0,0,0-.48-1.08,4.26,4.26,0,0,0-1.72-.67l-2.85-.61a7.16,7.16,0,0,1-3.67-1.72,4.16,4.16,0,0,1-1.23-3.09v0A4.59,4.59,0,0,1,294.16,9a5.6,5.6,0,0,1,2.46-1.82,9.76,9.76,0,0,1,3.71-.65,9.09,9.09,0,0,1,3.77.71,5.79,5.79,0,0,1,2.39,1.92,4.9,4.9,0,0,1,.89,2.67V12h-4.21v-.13a2.29,2.29,0,0,0-.84-1.49,3,3,0,0,0-2-.6A3.73,3.73,0,0,0,299,10a2,2,0,0,0-.89.6,1.48,1.48,0,0,0-.31.94v0a1.35,1.35,0,0,0,.5,1.08,4.05,4.05,0,0,0,1.76.7l2.85.61a7.67,7.67,0,0,1,3.78,1.64,3.86,3.86,0,0,1,1.15,2.94h0a4.56,4.56,0,0,1-.93,2.86,6.15,6.15,0,0,1-2.59,1.9,10,10,0,0,1-3.81.68A10.31,10.31,0,0,1,296.54,23.33Z"/></g></g></svg>