<svg xmlns="http://www.w3.org/2000/svg" viewBox="0 0 74.95 22.89"><defs><style>.cls-1{fill:#fff;}</style></defs><g id="Layer_2" data-name="Layer 2"><g id="Layer_1-2" data-name="Layer 1"><path class="cls-1" d="M6.53,3.89H0V0H17.78V3.89H11.25V22.55H6.53Z"/><path class="cls-1" d="M19.61,21.85a7.07,7.07,0,0,1-2.88-3,9.92,9.92,0,0,1-1-4.68v0a9.79,9.79,0,0,1,1-4.65,7.33,7.33,0,0,1,2.9-3,8.71,8.71,0,0,1,4.36-1,8.87,8.87,0,0,1,4.38,1,7.21,7.21,0,0,1,2.9,3,9.78,9.78,0,0,1,1,4.66v0a10,10,0,0,1-1,4.69,7.11,7.11,0,0,1-2.88,3,8.91,8.91,0,0,1-4.39,1A8.93,8.93,0,0,1,19.61,21.85ZM26,18.71A3.84,3.84,0,0,0,27.21,17a7.62,7.62,0,0,0,.45-2.79v0a7.59,7.59,0,0,0-.46-2.76,3.83,3.83,0,0,0-1.27-1.75A3.19,3.19,0,0,0,24,9a3.07,3.07,0,0,0-1.91.61,3.91,3.91,0,0,0-1.28,1.75,7.51,7.51,0,0,0-.45,2.75v0A7.85,7.85,0,0,0,20.8,17a3.8,3.8,0,0,0,1.28,1.75,3.23,3.23,0,0,0,2,.6A3.14,3.14,0,0,0,26,18.71Z"/><path class="cls-1" d="M37.94,21.85a7.15,7.15,0,0,1-2.89-3,10,10,0,0,1-1-4.68v0a9.79,9.79,0,0,1,1-4.65,7.33,7.33,0,0,1,2.9-3,8.71,8.71,0,0,1,4.36-1,8.89,8.89,0,0,1,4.38,1,7.21,7.21,0,0,1,2.9,3,9.78,9.78,0,0,1,1,4.66v0a10,10,0,0,1-1,4.69,7.19,7.19,0,0,1-2.89,3,8.88,8.88,0,0,1-4.39,1A8.92,8.92,0,0,1,37.94,21.85Zm6.34-3.14A3.84,3.84,0,0,0,45.54,17,7.63,7.63,0,0,0,46,14.17v0a7.6,7.6,0,0,0-.45-2.76,3.91,3.91,0,0,0-1.27-1.75A3.19,3.19,0,0,0,42.33,9a3.12,3.12,0,0,0-1.92.61,4,4,0,0,0-1.27,1.75,7.51,7.51,0,0,0-.45,2.75v0A7.85,7.85,0,0,0,39.13,17a3.73,3.73,0,0,0,1.28,1.75,3.23,3.23,0,0,0,2,.6A3.14,3.14,0,0,0,44.28,18.71Z"/><path class="cls-1" d="M53.09,0h4.57V22.55H53.09Z"/><path class="cls-1" d="M63.68,22.22a5.89,5.89,0,0,1-2.54-1.87,5.59,5.59,0,0,1-1.09-2.77l0-.14h4.45l0,.14a2.44,2.44,0,0,0,1,1.53,3.63,3.63,0,0,0,2.12.55,4.61,4.61,0,0,0,1.49-.21,2.17,2.17,0,0,0,.94-.61,1.35,1.35,0,0,0,.34-.93v0a1.34,1.34,0,0,0-.48-1.08,4.26,4.26,0,0,0-1.72-.67l-2.85-.61a7.16,7.16,0,0,1-3.67-1.72,4.16,4.16,0,0,1-1.23-3.09v0a4.59,4.59,0,0,1,.86-2.78A5.6,5.6,0,0,1,63.76,6.1a9.76,9.76,0,0,1,3.71-.65,9.06,9.06,0,0,1,3.77.71,5.72,5.72,0,0,1,2.39,1.92,4.9,4.9,0,0,1,.89,2.67v.16H70.31v-.13a2.25,2.25,0,0,0-.84-1.49,3,3,0,0,0-2-.6,3.73,3.73,0,0,0-1.36.22,2,2,0,0,0-.89.61,1.43,1.43,0,0,0-.31.93v0a1.35,1.35,0,0,0,.5,1.08,4.05,4.05,0,0,0,1.76.7l2.85.61A7.67,7.67,0,0,1,73.8,14.5,3.86,3.86,0,0,1,75,17.44h0A4.56,4.56,0,0,1,74,20.31a6.15,6.15,0,0,1-2.59,1.9,10,10,0,0,1-3.81.68A10.31,10.31,0,0,1,63.68,22.22Z"/></g></g></svg>