<?xml version="1.0" encoding="utf-8"?>
<!-- Generator: Adobe Illustrator 25.3.1, SVG Export Plug-In . SVG Version: 6.00 Build 0)  -->
<svg version="1.1" xmlns="http://www.w3.org/2000/svg" xmlns:xlink="http://www.w3.org/1999/xlink" x="0px" y="0px"
	 viewBox="0 0 440 139" style="enable-background:new 0 0 440 139;" xml:space="preserve">
<style type="text/css">
	.st0{fill:url(#SVGID_1_);}
	.st1{clip-path:url(#SVGID_3_);fill:url(#SVGID_4_);}
</style>
<g id="Layer_2">
</g>
<g id="Layer_1">
	<linearGradient id="SVGID_1_" gradientUnits="userSpaceOnUse" x1="4.9734" y1="66.6922" x2="434.812" y2="66.6922">
		<stop  offset="0.2963" style="stop-color:#D9E1E2"/>
		<stop  offset="1" style="stop-color:#D9E1E2"/>
	</linearGradient>
	<path class="st0" d="M22.5,69.8c0,6,0,11.9,0,17.9c0,0.8,0.1,1.8,0.5,2.2c4.8,4.9,12.4,6.5,18.1,3.5c4.3-2.3,6.7-6.1,8.4-10.5
		c2.4-6.6,2.5-13.4,1.7-20.2c-0.6-5.2-2-10.1-5.3-14.4c-5.9-7.8-16.4-7.8-22.1,0.2c-0.7,1-1.2,2.4-1.2,3.6
		C22.5,58,22.5,63.9,22.5,69.8 M22.5,46.9c1.2-1.1,2.2-2,3.1-2.9C37,33.6,55,37.4,61.5,51.7c5.6,12.1,5.3,24.5-1.6,36.1
		c-7.8,13.1-24.1,15.4-35.8,5.6c-0.4-0.3-0.8-0.7-1.2-1c-1.8,5.6,0.5,18.8,4.6,25.6c-0.7,0.1-1.3,0.2-2,0.2c-4.6,0-9.3-0.1-13.9,0
		c-1.8,0-2.2-0.5-2.2-2.2C9.7,99.4,10,82.9,10,66.4c0-4.1-0.5-8.3-1.4-12.4c-0.5-2.5-2.3-4.7-3.6-7.3c5.5-2.7,11.3-5.5,17.5-8.5
		V46.9z M198.6,98.4h-18.3c-0.8-4-1.5-8.1-2.3-12.1c-2.2-11.2-4.5-22.4-6.8-33.5c-0.3-1.6-1-3.2-1.7-4.7c-2.3-4.8-6.9-6.5-11.6-4
		c-1.8,0.9-3.3,2.4-4.8,3.7c-0.5,0.4-0.7,1.4-0.7,2.1c0,10.9,0,21.8,0.2,32.7c0.1,5.9,1.7,10.8,4.8,15.7h-18.1c0-0.7,0-1.4,0-2.1
		c0.2-9.6,0.4-19.2,0.5-28.9c0.1-7.2,0.1-14.4-5.5-20.4c6-2.9,11.8-5.8,18.1-8.8v8.5c1.1-1.2,1.9-2,2.6-2.7
		c5.4-5.5,13.8-7.4,20.3-4.6c4.1,1.7,6.4,5,7.6,9c2,6.7,3.5,13.5,5.1,20.2c1.2,5.3,2.2,10.7,3.5,15.9
		C192.5,89.6,194.5,94.3,198.6,98.4 M249.6,50.2c-4.6,4.5-7.8,9.8-8.9,16.2c-1.1,6.5-0.5,12.7,3.1,18.4c4.5,7.1,15.2,8.8,21.7,3.5
		c0.8-0.6,1.3-1.2,0.9-2.3c-4.6-12.5-9.2-25-13.9-37.5c-1.3-3.4-3.6-6.1-7.5-6.8c-1.6-0.3-3.3-0.2-5.4-0.3c2.9-1.9,5.7-2.8,8.7-3
		c9.7-0.7,15.1,2.7,18.6,11.8c4.1,10.8,8.1,21.7,12.2,32.6c2,5.4,3.8,10.9,7.8,15.7c-5.4,0-10.4,0-15.4-0.1c-0.4,0-1-0.8-1.2-1.3
		c-1-2.7-1.8-5.4-2.8-8.4c-0.4,0.5-0.8,0.9-1,1.3c-4.9,7.7-12,10.3-20.7,9c-13.6-2-20.8-13.9-16.9-27.7c2.1-7.5,6.9-13.1,13.2-17.4
		c2.3-1.6,4.9-2.9,7.3-4.3C249.4,49.8,249.5,50,249.6,50.2 M389.8,68.2c0.9-1.4,1.6-2.9,2.6-4.3c3.9-5.3,9.3-8.6,15-11.7
		c2-1.1,3.9-2.3,5.6-3.7c3.4-3,2.6-6.8-1.8-8.2c-5.1-1.6-9.9-0.7-14.1,2.6c-5.9,4.5-8.4,10.9-9.1,18c-0.7,6.9,0.4,13.4,5,19
		c3.8,4.7,8.9,7.3,14.8,8.2c5.2,0.8,10.2,0.3,15-2c6.4-3,10.2-8.1,11.9-14.9c0.4,2.1-0.4,6.2-1.9,9.9c-5.2,12.5-17.9,19.9-31.2,18.1
		c-14-1.9-24.2-11.9-26-25.6c-2.2-16.6,7.4-30.7,23.6-34.6c6.7-1.6,13.4-1.1,19.7,1.7c4,1.8,7.6,4.3,7.3,9.4
		c-0.2,4.8-3.8,7.1-7.7,8.6c-2.6,1-5.4,1.8-8.2,2.4c-7.1,1.6-14.1,3.3-20.2,7.5C390,68.4,389.9,68.3,389.8,68.2 M131.2,70.4
		c-0.4,8.9-3.7,16.5-10.7,22.1c-10.1,8.2-21.4,9.1-32.8,3.5c-11.2-5.5-16.3-15.2-16.2-27.6c0.3-17.9,14.7-31.2,32.7-30.3
		c4.2,0.2,8.2,1,11.9,2.9c3.6,1.8,6.5,4.4,6.4,8.8c-0.1,4.3-3.1,6.9-6.8,8.3c-3.9,1.5-8.1,2.6-12.2,3.6c-6.1,1.4-12,3.3-17.7,6.6
		c0.9-1.5,1.7-3.1,2.8-4.5c3.9-5.2,9.2-8.5,14.8-11.5c1.8-1,3.6-2.1,5.2-3.3c1.6-1.2,3-2.8,2.5-5.1c-0.5-2.3-2.4-3.3-4.4-3.8
		c-5.3-1.3-10.1-0.1-14.3,3.5c-9.8,8.2-11.9,28.5-1.3,38.4c10.2,9.5,28,8.3,36.1-2.7c1-1.3,1.7-2.8,2.4-4.3
		C130.3,73.4,130.7,71.9,131.2,70.4 M345,71.7c-0.2,4.4-1.5,8.3-3.4,12c-6,11.2-18.1,17.3-30.5,15.4c-12.9-2-22.5-11.2-25-23.8
		c-2.6-13.4,3.1-26.7,14.4-33.2c4.4-2.6,9.3-3.8,14.4-4c8.2-0.2,16,1.2,23.2,5.3c0.6,0.3,1.3,1.1,1.3,1.7c0.1,5.4,0.1,10.8-0.3,16.3
		c-0.4-0.9-0.8-1.8-1.2-2.7c-3-6.4-6.9-12.1-13.1-15.9c-11.4-7-23.5-2-26.8,11c-3,11.7,1,23.8,10,30.3c10.6,7.6,26.6,5.3,33.4-4.9
		C342.7,76.8,343.7,74.3,345,71.7 M347.7,24.1c5.9-2.9,11.6-5.7,17.8-8.8c0,1.1,0,1.8,0,2.5c0,20.7,0,41.3,0.1,62
		c0,3.1,0.3,6.3,1,9.3c0.8,3.2,2.2,6.2,3.4,9.3c0,0-0.5,0.1-0.9,0.1c-4.8,0-9.7-0.1-14.5,0c-1.8,0-2.2-0.5-2.2-2.2
		c0.3-17.5,0.6-35.1,0.7-52.6c0.1-5.3-0.2-10.5-2.6-15.4C349.7,26.9,348.7,25.6,347.7,24.1 M224.5,98.1c-4.8,0.4-9.2-0.5-13.2-3.2
		c-6.4-4.4-8.8-11.1-9-18.4c-0.3-11.3-0.2-22.7-0.2-34.1c0-0.8,0-1.7,0-2.8H195c-0.1-0.2-0.1-0.4-0.2-0.6
		c8.5-2.8,15.4-7.5,19.7-15.8v15.3h10c0,0.3,0,0.6,0,0.9c-3.2,0.6-6.5,0-9.7,0.4c0,0.7-0.1,1.3-0.1,1.9c0,11.4-0.1,22.7,0.1,34.1
		c0,3.5,0.4,7,1.1,10.5C216.9,91.4,218.8,96.2,224.5,98.1"/>
	<g>
		<defs>
			<path id="SVGID_2_" d="M-105.8-77.1l7.8,13.6h-15.7L-105.8-77.1z M-122.3-58.6h33l-16.5-28.5L-122.3-58.6z M-75.5-108.6l-44,7.8
				l-5.8-4l-7,1.2l5.8,4L-130-99l-5.8-4l-7,1.2l5.8,4l-3.7,0.7l-5.8-4l-7,1.2l8.6,6l-6.1,8.7l7-1.2l4-5.7l3.7-0.7l-4,5.7l7-1.2
				l4-5.7l3.6-0.6l-4,5.7l7-1.2l4-5.7l44.1-7.8l-1.2,5.2l16-10.3l-18.6-4.2L-75.5-108.6z M-109.7-133.3h-12.6l10.2,7.4l-3.9,12
				l1.7-1.2l0,0l0,0l8.5-6.2l10.2,7.4l-3.9-12l10.2-7.4h-12.6l-3.9-12L-109.7-133.3z M-160.5-100.7c0-30.2,24.5-54.7,54.7-54.7
				s54.7,24.5,54.7,54.7c0,30.2-24.5,54.7-54.7,54.7S-160.5-70.5-160.5-100.7 M-105.7-166L-105.7-166L-105.7-166l-4,6.7l-4.7-6.2
				l-3,7.1l-5.5-5.5l-2,7.5l-6.1-4.7l-1,7.7l-6.7-3.9l0,7.8l-7-2.9l1,7.4l-7.3-1.9l1.9,7.3l-7.5-1l2.9,6.9l-7.5,0l3.8,6.5l-7.4,1
				l4.7,6.1l-7.6,2l5.5,5.5l-7.3,3l6.2,4.8l-6.8,4l0,0l0,0l6.8,4l-6.2,4.8l7.3,3l-5.5,5.5l7.6,2l-4.7,6.1l7.4,1l-3.8,6.5l7.5,0
				l-2.9,6.9l7.5-1l-1.9,7.3l7.3-1.9l-1,7.4l7-2.9l0,7.8l6.7-3.9l1,7.7l6.1-4.7l2,7.5l5.5-5.5l3,7.1l4.7-6.2l3.9,6.7l0-0.1l0,0.1
				l3.9-6.7l4.7,6.2l3-7.1l5.5,5.5l2-7.5l6.1,4.7l1-7.7l6.7,3.9l0-7.8l7,2.9l-1-7.4l7.3,1.9l-1.9-7.3l7.5,1l-2.9-6.9l7.5,0l-3.8-6.5
				l7.4-1l-4.7-6.1l7.6-2l-5.5-5.5l7.3-3l-6.2-4.8l6.8-4l0,0l0,0l-6.8-4l6.2-4.8l-7.3-3l5.5-5.5l-7.6-2l4.7-6.1l-7.4-1l3.8-6.5
				l-7.5,0l2.9-6.9l-7.5,1l1.9-7.3l-7.3,1.9l1-7.4l-7,2.9l0-7.8l-6.7,3.9l-1-7.7l-6.1,4.7l-2-7.5l-5.5,5.5l-3-7.1l-4.7,6.2
				L-105.7-166z"/>
		</defs>
		<clipPath id="SVGID_3_">
			<use xlink:href="#SVGID_2_"  style="overflow:visible;"/>
		</clipPath>
		
			<linearGradient id="SVGID_4_" gradientUnits="userSpaceOnUse" x1="-321.8169" y1="345.4496" x2="-320.7977" y2="345.4496" gradientTransform="matrix(128.3328 0 0 -128.3328 41128.5078 44231.832)">
			<stop  offset="0" style="stop-color:#8B9290"/>
			<stop  offset="0.2628" style="stop-color:#8E9593"/>
			<stop  offset="0.471" style="stop-color:#979F9D"/>
			<stop  offset="0.6603" style="stop-color:#A7AFAE"/>
			<stop  offset="0.8374" style="stop-color:#BEC5C5"/>
			<stop  offset="1" style="stop-color:#D9E1E2"/>
		</linearGradient>
		<rect x="-171.2" y="-166" class="st1" width="130.8" height="130.6"/>
	</g>
</g>
</svg>
