<?xml version="1.0" encoding="utf-8"?>
<!-- Generator: Adobe Illustrator 25.3.1, SVG Export Plug-In . SVG Version: 6.00 Build 0)  -->
<svg version="1.1" id="Layer_1" xmlns="http://www.w3.org/2000/svg" xmlns:xlink="http://www.w3.org/1999/xlink" x="0px" y="0px"
	 viewBox="0 0 534 139" style="enable-background:new 0 0 534 139;" xml:space="preserve">
<style type="text/css">
	.st0{clip-path:url(#SVGID_2_);fill:url(#SVGID_3_);}
	.st1{fill:#8B9290;}
</style>
<g id="Layer_2_1_">
</g>
<g>
	<defs>
		<path id="SVGID_1_" d="M458.5,93.4l8,13.9h-16L458.5,93.4z M441.6,112.3h33.8l-16.9-29.2L441.6,112.3z M489.5,61.2l-45,7.9
			l-5.9-4.1l-7.1,1.3l5.9,4.1l-3.7,0.6l-5.9-4.1l-7.1,1.3l5.9,4.1l-3.8,0.7l-5.9-4.1l-7.1,1.3l8.8,6.1l-6.2,8.9l7.1-1.3l4.1-5.8
			l3.8-0.7l-4.1,5.8l7.1-1.3l4.1-5.8l3.7-0.6l-4.1,5.8l7.1-1.3l4.1-5.8l45.1-8l-1.2,5.3l16.4-10.6l-19-4.3L489.5,61.2z M454.5,35.9
			h-12.9l10.4,7.6l-4,12.3l1.7-1.3l0,0l0-0.1l8.7-6.3l10.5,7.6l-4-12.3l10.4-7.6h-12.9l-4-12.2L454.5,35.9z M402.6,69.3
			c0-30.9,25-55.9,55.9-55.9s55.9,25,55.9,55.9c0,30.9-25,55.9-55.9,55.9S402.6,100.1,402.6,69.3 M458.5,2.6L458.5,2.6l-4,6.8
			l-4.8-6.3l-3,7.3l-5.6-5.6l-2,7.6l-6.3-4.8l-1,7.9l-6.9-4v8l-7.1-2.9l1,7.6l-7.4-2l2,7.4l-7.7-1l2.9,7.1l-7.7,0l3.9,6.7l-7.5,1
			l4.8,6.2l-7.7,2.1l5.6,5.6l-7.4,3.1l6.3,4.9l-7,4l0,0h0l7,4l-6.3,4.9l7.4,3.1l-5.6,5.6l7.7,2.1l-4.8,6.2l7.5,1l-3.9,6.7l7.7,0
			l-2.9,7.1l7.7-1l-2,7.4l7.4-2l-1,7.6l7.1-2.9v8l6.9-4l1,7.9l6.3-4.8l2,7.6l5.6-5.6l3,7.3l4.8-6.3l4,6.8l0-0.1l0,0.1l4-6.8l4.8,6.3
			l3-7.3l5.6,5.6l2-7.6l6.3,4.8l1-7.9l6.9,4v-8l7.1,2.9l-1-7.6l7.4,2l-2-7.4l7.7,1l-2.9-7.1l7.7,0l-3.9-6.7l7.5-1l-4.8-6.2l7.7-2.1
			l-5.6-5.6l7.4-3.1l-6.3-4.9l7-4h0l0,0l-7-4l6.3-4.9l-7.4-3.1l5.6-5.6l-7.7-2.1l4.8-6.2l-7.5-1l3.9-6.7l-7.7,0l2.9-7.1l-7.7,1
			l2-7.4l-7.4,2l1-7.6l-7.1,2.9v-8l-6.9,4l-1-7.9l-6.3,4.8l-2-7.6l-5.6,5.6l-3-7.3l-4.8,6.3L458.5,2.6L458.5,2.6z"/>
	</defs>
	<clipPath id="SVGID_2_">
		<use xlink:href="#SVGID_1_"  style="overflow:visible;"/>
	</clipPath>
	
		<linearGradient id="SVGID_3_" gradientUnits="userSpaceOnUse" x1="-626.0632" y1="602.6155" x2="-622.0267" y2="602.6155" gradientTransform="matrix(33.1259 0 0 -33.1259 21130.625 20031.4609)">
		<stop  offset="0" style="stop-color:#8B9290"/>
		<stop  offset="0.2666" style="stop-color:#8E9593"/>
		<stop  offset="0.4739" style="stop-color:#979E9D"/>
		<stop  offset="0.6612" style="stop-color:#A7AEAD"/>
		<stop  offset="0.8356" style="stop-color:#BDC5C5"/>
		<stop  offset="1" style="stop-color:#D9E1E2"/>
	</linearGradient>
	<rect x="391.7" y="2.5" class="st0" width="133.7" height="133.5"/>
</g>
<path class="st1" d="M43,81.3c-1.3,3.7-3.4,6.8-7,8.7c-4.7,2.6-11.1,1.2-15-2.9c-0.4-0.4-0.4-1.2-0.4-1.9c0-5,0-10,0-14.9
	c0-4.9-0.1-9.8,0-14.8c0-1,0.4-2.2,1-3c4.8-6.6,13.5-6.6,18.4-0.1c2.7,3.6,3.9,7.7,4.4,12C45.1,70.1,45,75.8,43,81.3 M51.7,85.3
	c5.8-9.6,6-19.9,1.3-30c-5.5-11.9-20.5-15-29.9-6.4c-0.8,0.7-1.6,1.5-2.6,2.4V44c-5.2,2.5-10,4.9-14.6,7.1c1.1,2.2,2.6,4.1,3,6.1
	c0.7,3.4,1.2,6.9,1.2,10.3c0,13.7-0.2,27.4-0.4,41.1c0,1.5,0.4,1.9,1.8,1.9c3.9-0.1,7.7,0,11.6,0c0.5,0,1-0.1,1.6-0.1
	c-3.4-5.7-5.4-16.7-3.9-21.3c0.4,0.3,0.7,0.6,1,0.8C31.6,98.1,45.2,96.1,51.7,85.3 M102.1,89.3c5.8-4.7,8.6-11,8.9-18.4
	c-0.4,1.2-0.7,2.5-1.3,3.7c-0.6,1.3-1.2,2.5-2,3.6c-6.8,9.2-21.5,10.2-30.1,2.3c-8.9-8.2-7.1-25.1,1.1-32c3.5-2.9,7.5-3.9,11.9-2.9
	c1.7,0.4,3.3,1.2,3.7,3.2c0.4,1.9-0.7,3.2-2.1,4.2c-1.4,1-2.8,2-4.3,2.8c-4.7,2.5-9.1,5.3-12.3,9.6c-0.9,1.2-1.6,2.5-2.3,3.8
	c4.7-2.7,9.6-4.3,14.7-5.5c3.4-0.8,6.9-1.7,10.2-3c3.1-1.2,5.5-3.3,5.6-6.9c0.1-3.7-2.4-5.8-5.3-7.3c-3.1-1.6-6.4-2.2-9.9-2.4
	c-15-0.8-27,10.3-27.2,25.2c-0.1,10.3,4.2,18.4,13.5,23C84.3,96.8,93.7,96.1,102.1,89.3 M167.2,94.1c-3.5-3.3-5.1-7.3-6.1-11.5
	c-1.1-4.4-1.8-8.9-2.9-13.3c-1.3-5.6-2.6-11.3-4.2-16.8c-1-3.3-3-6.1-6.3-7.5c-5.5-2.3-12.5-0.7-16.9,3.8c-0.6,0.6-1.2,1.3-2.2,2.3
	V44c-5.2,2.5-10,4.9-15,7.4c4.7,5,4.7,11,4.6,17c-0.1,8-0.3,16-0.4,24.1c0,0.6,0,1.2,0,1.7h15.1c-2.6-4-4-8.1-4-13
	c-0.1-9.1-0.1-18.1-0.1-27.2c0-0.6,0.2-1.4,0.6-1.8c1.3-1.1,2.5-2.3,4-3.1c4-2.1,7.8-0.7,9.7,3.3c0.6,1.2,1.1,2.5,1.4,3.9
	c1.9,9.3,3.8,18.6,5.7,27.9c0.7,3.3,1.3,6.7,1.9,10.1H167.2z M188.8,45c0-0.3,0-0.5,0-0.8h-8.3V31.5c-3.6,6.9-9.3,10.8-16.4,13.2
	c0.1,0.2,0.1,0.3,0.2,0.5h5.9c0,1,0,1.7,0,2.4c0,9.5-0.1,18.9,0.2,28.4c0.2,6.1,2.1,11.7,7.5,15.4c3.3,2.3,7,3,11,2.7
	c-4.8-1.6-6.4-5.6-7.2-9.9c-0.6-2.9-0.9-5.8-0.9-8.7c-0.1-9.5-0.1-18.9,0-28.4c0-0.5,0.1-1,0.1-1.6C183.4,45,186.2,45.6,188.8,45
	 M240.7,94.2c-3.3-4-4.8-8.6-6.5-13.1c-3.4-9.1-6.7-18.1-10.2-27.2c-2.9-7.6-7.4-10.4-15.5-9.8c-2.5,0.2-4.9,1-7.3,2.5
	c1.8,0.1,3.2,0,4.5,0.2c3.2,0.6,5.1,2.8,6.2,5.7c3.9,10.4,7.7,20.8,11.6,31.2c0.3,0.9-0.1,1.4-0.7,1.9c-5.4,4.4-14.3,3.1-18.1-2.9
	c-3-4.7-3.5-10-2.6-15.3c0.9-5.3,3.6-9.7,7.4-13.5c-0.1-0.1-0.1-0.3-0.2-0.4c-2,1.2-4.1,2.3-6.1,3.6c-5.3,3.6-9.2,8.2-11,14.5
	c-3.2,11.5,2.7,21.4,14.1,23.1c7.2,1.1,13.2-1.1,17.3-7.5c0.2-0.3,0.5-0.6,0.9-1.1c0.8,2.5,1.6,4.7,2.4,7c0.2,0.4,0.6,1,1,1.1
	C232.1,94.2,236.2,94.2,240.7,94.2 M286.3,81.9c1.6-3.1,2.7-6.4,2.9-10c-1.1,2.1-1.9,4.3-3.1,6.1c-5.7,8.5-19,10.5-27.8,4.1
	c-7.5-5.4-10.8-15.5-8.4-25.2c2.7-10.8,12.9-14.9,22.3-9.1c5.2,3.2,8.4,7.9,10.9,13.3c0.4,0.8,0.7,1.5,1,2.3
	c0.3-4.6,0.3-9.1,0.3-13.6c0-0.5-0.6-1.1-1.1-1.4c-6-3.5-12.5-4.6-19.3-4.4c-4.3,0.1-8.3,1.2-12,3.3c-9.4,5.4-14.2,16.5-12,27.7
	c2.1,10.5,10.1,18.1,20.8,19.8C271.1,96.3,281.2,91.3,286.3,81.9 M309.2,94.2c0.4,0,0.8-0.1,0.8-0.1c-1-2.6-2.2-5.1-2.8-7.7
	c-0.6-2.5-0.9-5.1-0.9-7.7c-0.1-17.2-0.1-34.4-0.1-51.6v-2.1c-5.2,2.5-9.9,4.9-14.8,7.3c0.8,1.3,1.7,2.3,2.3,3.5
	c2,4,2.2,8.4,2.2,12.8c-0.1,14.6-0.4,29.2-0.6,43.8c0,1.5,0.4,1.9,1.8,1.9C301.1,94.1,305.1,94.2,309.2,94.2 M362.3,79.7
	c1.3-3.1,2-6.5,1.6-8.3c-1.5,5.7-4.6,9.9-9.9,12.4c-4,1.9-8.2,2.3-12.5,1.6c-4.9-0.8-9.1-2.9-12.3-6.8c-3.8-4.6-4.7-10.1-4.1-15.8
	c0.6-5.9,2.7-11.2,7.5-15c3.5-2.7,7.5-3.4,11.8-2.1c3.7,1.1,4.3,4.3,1.5,6.8c-1.4,1.2-3,2.2-4.7,3.1c-4.7,2.5-9.2,5.3-12.5,9.7
	c-0.8,1.1-1.5,2.4-2.2,3.6c0.1,0.1,0.2,0.2,0.3,0.3c5.1-3.5,10.9-4.9,16.8-6.2c2.3-0.5,4.6-1.2,6.8-2c3.3-1.3,6.3-3.2,6.4-7.2
	c0.2-4.2-2.7-6.3-6.1-7.8c-5.3-2.4-10.9-2.7-16.4-1.4c-13.5,3.2-21.5,15-19.7,28.8c1.5,11.4,10,19.8,21.7,21.4
	C347.4,96.2,357.9,90.1,362.3,79.7"/>
</svg>
