<svg xmlns="http://www.w3.org/2000/svg" viewBox="0 0 124.25 29.47"><defs><style>.cls-1{fill:#fff;}</style></defs><g id="Layer_2" data-name="Layer 2"><g id="Layer_1-2" data-name="Layer 1"><path class="cls-1" d="M0,1.11H4.72V19.77h9.86v3.89H0Z"/><path class="cls-1" d="M20,23a7.2,7.2,0,0,1-2.85-3,10.13,10.13,0,0,1-1-4.63h0a10.21,10.21,0,0,1,1-4.64,7.42,7.42,0,0,1,2.81-3,8.22,8.22,0,0,1,4.26-1.07,8.33,8.33,0,0,1,4.24,1,7.12,7.12,0,0,1,2.77,2.93,9.53,9.53,0,0,1,1,4.42v1.43H18.38v-2.9H30l-2.18,2.71V14.42A5.94,5.94,0,0,0,27.39,12a3.27,3.27,0,0,0-1.26-1.49,3.47,3.47,0,0,0-1.86-.5,3.31,3.31,0,0,0-3.17,2,5.7,5.7,0,0,0-.46,2.43V16.2a5.46,5.46,0,0,0,.46,2.36,3.43,3.43,0,0,0,1.32,1.51,3.86,3.86,0,0,0,2,.52,4,4,0,0,0,1.62-.29,3.48,3.48,0,0,0,1.13-.75,2.39,2.39,0,0,0,.59-.93l0-.09H32L32,18.7a6,6,0,0,1-.73,1.86,6.43,6.43,0,0,1-1.48,1.72,7.12,7.12,0,0,1-2.26,1.25,9.54,9.54,0,0,1-3.13.47A8.77,8.77,0,0,1,20,23Z"/><path class="cls-1" d="M36.55,23.27a4.78,4.78,0,0,1-2.69-4.41v0a4.27,4.27,0,0,1,1.71-3.59,8.83,8.83,0,0,1,4.82-1.51l6.53-.4v2.84l-5.84.39a3.67,3.67,0,0,0-2,.61,1.71,1.71,0,0,0-.69,1.42v0a1.7,1.7,0,0,0,.7,1.45,3.09,3.09,0,0,0,1.89.52,4.09,4.09,0,0,0,1.82-.39,3.17,3.17,0,0,0,1.27-1.1,2.71,2.71,0,0,0,.46-1.55v-5.1a2.25,2.25,0,0,0-.7-1.75,3,3,0,0,0-2-.64,3.49,3.49,0,0,0-2,.53,2.11,2.11,0,0,0-.92,1.33l0,.14H34.61v-.18a5.38,5.38,0,0,1,1-2.76,6,6,0,0,1,2.5-1.88A9.79,9.79,0,0,1,42,6.56a9.21,9.21,0,0,1,3.76.7,5.7,5.7,0,0,1,2.48,2,5,5,0,0,1,.88,2.95V23.66H44.53V21.17h-.09a5.76,5.76,0,0,1-1.22,1.47,5,5,0,0,1-1.68.95,6.15,6.15,0,0,1-2,.33A6.34,6.34,0,0,1,36.55,23.27Z"/><path class="cls-1" d="M52,6.91h4.56V9.83h.1a4.51,4.51,0,0,1,1.36-2.41,3.59,3.59,0,0,1,2.45-.86,5.55,5.55,0,0,1,.72.05,3.58,3.58,0,0,1,.59.12v4a2.73,2.73,0,0,0-.72-.2,5.49,5.49,0,0,0-.93-.07,4,4,0,0,0-1.93.44A2.89,2.89,0,0,0,57,12.22a4.45,4.45,0,0,0-.43,2.06v9.38H52Z"/><path class="cls-1" d="M63.67,6.91h4.56V9.66h.1a5.18,5.18,0,0,1,1.94-2.27,5.73,5.73,0,0,1,3.17-.83,5.46,5.46,0,0,1,4.27,1.67,6.6,6.6,0,0,1,1.51,4.61V23.66H74.66V13.8a3.78,3.78,0,0,0-.78-2.55,2.86,2.86,0,0,0-2.3-.91,3.29,3.29,0,0,0-1.77.47,3.12,3.12,0,0,0-1.16,1.3A4.18,4.18,0,0,0,68.23,14v9.63H63.67Z"/><path class="cls-1" d="M82.74,4.05A2.29,2.29,0,0,1,82,2.38,2.27,2.27,0,0,1,82.74.7,2.39,2.39,0,0,1,84.48,0a2.36,2.36,0,0,1,1.74.7,2.26,2.26,0,0,1,.7,1.68,2.28,2.28,0,0,1-.7,1.67,2.34,2.34,0,0,1-1.74.72A2.37,2.37,0,0,1,82.74,4.05Zm-.55,2.86h4.58V23.66H82.19Z"/><path class="cls-1" d="M89.81,6.91h4.57V9.66h.09a5.18,5.18,0,0,1,1.94-2.27,5.73,5.73,0,0,1,3.17-.83,5.46,5.46,0,0,1,4.27,1.67,6.6,6.6,0,0,1,1.51,4.61V23.66H100.8V13.8a3.78,3.78,0,0,0-.78-2.55,2.86,2.86,0,0,0-2.3-.91,3.29,3.29,0,0,0-1.77.47,3.12,3.12,0,0,0-1.16,1.3A4.18,4.18,0,0,0,94.38,14v9.63H89.81Z"/><path class="cls-1" d="M112.07,28.84a7,7,0,0,1-2.72-1.72,4.57,4.57,0,0,1-1.23-2.42l0-.14h4.46l0,.11a2.47,2.47,0,0,0,1.18,1.08,5,5,0,0,0,2.31.47,3.89,3.89,0,0,0,2.69-.84,2.92,2.92,0,0,0,.92-2.24V20.56h-.1a4.75,4.75,0,0,1-1.19,1.52,5.47,5.47,0,0,1-1.77,1,6.78,6.78,0,0,1-2.21.35,6.45,6.45,0,0,1-3.62-1,6.29,6.29,0,0,1-2.35-2.87,11,11,0,0,1-.83-4.46h0a11.32,11.32,0,0,1,.84-4.58,6.55,6.55,0,0,1,2.38-2.92,6.42,6.42,0,0,1,3.64-1,5.87,5.87,0,0,1,2.18.39,5.19,5.19,0,0,1,1.72,1.11,5.5,5.5,0,0,1,1.2,1.71h.11V6.91h4.56V23.19a5.55,5.55,0,0,1-1,3.27,6.55,6.55,0,0,1-2.83,2.21,10.9,10.9,0,0,1-4.35.8A11.6,11.6,0,0,1,112.07,28.84ZM118,19.48a3.83,3.83,0,0,0,1.29-1.68,6.64,6.64,0,0,0,.46-2.6h0a6.48,6.48,0,0,0-.46-2.57A3.83,3.83,0,0,0,118,10.94a3.27,3.27,0,0,0-2-.6,3.37,3.37,0,0,0-2,.59,3.8,3.8,0,0,0-1.3,1.67,6.78,6.78,0,0,0-.45,2.59h0a6.83,6.83,0,0,0,.45,2.6,3.78,3.78,0,0,0,1.3,1.68,3.31,3.31,0,0,0,2,.6A3.23,3.23,0,0,0,118,19.48Z"/></g></g></svg>