<?xml version="1.0" encoding="utf-8"?>
<!-- Generator: Adobe Illustrator 25.2.0, SVG Export Plug-In . SVG Version: 6.00 Build 0)  -->
<svg version="1.1" xmlns="http://www.w3.org/2000/svg" xmlns:xlink="http://www.w3.org/1999/xlink" x="0px" y="0px"
	 viewBox="0 0 612 792" style="enable-background:new 0 0 612 792;" xml:space="preserve">
<style type="text/css">
	.st0{display:none;}
	.st1{display:inline;}
	.st2{fill:#13B792;}
</style>
<g id="Layer_2" class="st0">
	<g id="zo7uqI_1_" class="st1">
		
			<image style="overflow:visible;" width="822" height="1016" id="zo7uqI_2_" xlink:href="CA3670CF04C0B6F4.jpg"  transform="matrix(1 0 0 1 -170.0629 -172.0396)">
		</image>
	</g>
</g>
<g id="Layer_1">
	<g>
		<path class="st2" d="M152.6,421.1c6.8-5.7,11.2-13.6,15-21.5c4.1-8.8,8.1-17.7,12.4-26.4c9.1-18.1,19.1-35.8,30-52.9
			c11.2-17.6,23.5-34.5,35.9-51.2c12.2-16.4,24.8-32.6,36.5-49.4c5.8-8.3,11.4-16.7,16.6-25.4c5.1-8.5,10.3-17.2,14.1-26.5
			c0.9-2.2,1.6-4.5,2.1-6.9c0.7-3.1-4.1-4.5-4.8-1.3c-1,4.7-3,9-5.1,13.2c-2.3,4.5-4.7,8.9-7.2,13.3c-5,8.7-10.4,17.1-16.1,25.4
			c-11.4,16.7-23.7,32.8-35.8,49c-12.5,16.6-24.8,33.4-36.2,50.7c-11.1,16.9-21.3,34.4-30.5,52.3c-4.6,8.9-9,17.9-13.1,27.1
			c-3.5,7.8-6.9,16-12.6,22.5c-1.4,1.6-2.9,3.1-4.6,4.5c-1,0.9-0.9,2.6,0,3.5C150.1,422.1,151.6,421.9,152.6,421.1L152.6,421.1z"/>
		<path class="st2" d="M456.8,417c-17.7-6-36.5-7.8-55.1-8.4c-19.5-0.6-39-0.3-58.5-0.3c-20.1,0-40.2-0.1-60.3-0.1
			c-20,0-40-0.1-60-0.1s-40-0.1-60-0.1c-2.5,0-5,0-7.5,0c-3.2,0-3.2,5,0,5c40,0.1,80,0.1,119.9,0.2c19.8,0,39.6,0.1,59.4,0.1
			c19.7,0,39.3-0.1,59,0.2c20.8,0.3,41.8,1.7,61.7,8.4C458.6,422.9,459.9,418.1,456.8,417L456.8,417z"/>
		<path class="st2" d="M307.8,144.3c6.8,19.9,15.9,38.9,25.6,57.5c9.7,18.6,19.9,37,28.8,56c4.4,9.4,8.5,19,12,28.8
			c3.7,10.2,6.5,20.7,9.6,31.1c3.1,10.5,6.5,21,11.3,30.8c4.9,10,11.1,19.2,17.5,28.3c6.8,9.7,13.6,19.3,20.4,28.9
			c5.2,7.3,11,15.3,19.7,18.6c2.1,0.8,4.3,1.2,6.5,1.2c3.2,0.1,3.2-4.9,0-5c-8.6-0.2-14.9-7.6-19.5-14c-6.7-9.2-13.1-18.6-19.7-27.9
			c-6.3-9-12.7-17.9-17.9-27.5c-5.1-9.5-8.8-19.5-12-29.8c-3.2-10.3-5.9-20.7-9.3-30.9c-3.3-9.8-7.2-19.4-11.4-28.8
			c-8.5-18.9-18.5-37.1-28.2-55.4c-9.6-18.2-18.9-36.6-26.1-55.9c-0.9-2.4-1.7-4.8-2.6-7.2C311.6,139.9,306.8,141.2,307.8,144.3
			L307.8,144.3z"/>
		<path class="st2" d="M152.2,239.1c9.4,17.2,18.8,34.5,28.1,51.7c9.3,17.1,18.6,34.3,28.1,51.4c9.4,17,19,34,28.7,50.9
			c9.6,16.8,19.3,33.6,29.1,50.4c9.8,17,19.7,34,29.5,50.9c1.2,2.1,2.4,4.2,3.7,6.3c1.6,2.8,5.9,0.3,4.3-2.5
			c-9.8-17-19.7-34-29.5-50.9c-9.7-16.8-19.5-33.6-29.1-50.4c-9.7-16.9-19.3-33.8-28.8-50.8c-9.5-17-18.8-34.2-28.1-51.3
			c-9.4-17.2-18.8-34.5-28.1-51.7c-1.2-2.1-2.3-4.3-3.5-6.4C154.9,233.7,150.6,236.3,152.2,239.1L152.2,239.1z"/>
		<path class="st2" d="M461.7,251.6c-19.9-4.3-40.3-3.8-60.5-3.3c-10.1,0.2-20.3,0.4-30.4,0c-10-0.4-20-1.4-29.9-2.5
			c-20.1-2.3-40.1-5.5-60.3-7.4c-10-0.9-20-1.5-30.1-1.5c-10.1,0-20.1,0.9-30.1,2.2c-10,1.3-19.8,2-29.8,0.4
			c-9.6-1.5-18.9-4.1-28.6-5.1c-2.4-0.2-4.9-0.4-7.3-0.4c-3.2,0-3.2,5,0,5c9.7,0,19,2.3,28.5,4.2c4.9,1,9.8,1.8,14.7,2.1
			c5,0.4,10,0.1,14.9-0.4c10-1,19.9-2.5,29.9-2.9c10-0.4,20.1,0,30.1,0.7c20.1,1.5,40,4.6,59.9,7.1c9.9,1.2,19.9,2.4,29.9,3
			c10.1,0.7,20.2,0.8,30.3,0.7c20-0.3,40.1-1.6,60,1.5c2.5,0.4,5,0.9,7.5,1.4C463.6,257.1,464.9,252.3,461.7,251.6L461.7,251.6z"/>
		<path class="st2" d="M453.5,251.2c-12.3,12.1-23.2,25.8-32.1,40.6c-4.7,7.7-8.6,15.8-12.6,23.9c-4.1,8.4-8.4,16.5-13.7,24.3
			c-5.2,7.7-10.9,15.1-16.3,22.6c-5.5,7.6-11,15.3-16.3,23.1c-10.8,15.6-21.3,31.5-31.7,47.5c-10.3,16-20.5,32-30.7,48.1
			c-1.2,2-2.5,4-3.7,5.9c-1.7,2.7,2.6,5.2,4.3,2.5c10.1-16,20.2-32,30.5-48c10.3-15.9,20.7-31.8,31.4-47.4
			c5.4-7.8,10.8-15.6,16.4-23.4c5.4-7.6,11-15,16.4-22.5c5.4-7.5,10.2-15.2,14.4-23.4c4.2-8.2,8-16.6,12.5-24.6
			c8.3-14.9,18.5-28.8,30.4-41.1c1.5-1.5,3-3,4.5-4.5C459.3,252.5,455.8,249,453.5,251.2L453.5,251.2z"/>
		<path class="st2" d="M330.3,117.6c-5.9-3.3-12.1-0.3-17.4,2.7c-2.6,1.5-5.1,2.8-8,3.5c-2.9,0.7-5.9,0.8-8.8,0.3
			c-1.3-0.2-2.7,0.4-3.1,1.7c-0.3,1.2,0.4,2.8,1.7,3.1c6.2,1.1,12.4,0.1,18-2.8c4.2-2.2,10-7.1,15-4.2
			C330.5,123.5,333.1,119.2,330.3,117.6L330.3,117.6z"/>
		<path class="st2" d="M306.5,103.3c1.8,13.9,3.5,27.8,5.3,41.7c0.2,1.3,1,2.5,2.5,2.5c1.2,0,2.7-1.2,2.5-2.5
			c-1.8-13.9-3.5-27.8-5.3-41.7c-0.2-1.3-1-2.5-2.5-2.5C307.8,100.8,306.4,101.9,306.5,103.3L306.5,103.3z"/>
		<path class="st2" d="M461.5,254.4c14.8-6.8,28.3-16.6,39.3-28.6c2.2-2.4-1.4-5.9-3.5-3.5C486.5,234,473.5,243.4,459,250
			c-1.2,0.6-1.5,2.3-0.9,3.4C458.8,254.7,460.3,254.9,461.5,254.4L461.5,254.4z"/>
		<path class="st2" d="M489.6,234.1c-1.1-7.3-7.1-13.5-14.2-15.1c-1.3-0.3-2.8,0.4-3.1,1.7c-0.3,1.3,0.4,2.8,1.7,3.1
			c0.8,0.2,1.5,0.4,2.3,0.7c0.1,0,0.2,0.1,0.3,0.1c-0.3-0.1-0.3-0.1-0.2-0.1c0.2,0.1,0.3,0.2,0.5,0.2c0.3,0.2,0.7,0.3,1,0.5
			c0.4,0.2,0.7,0.4,1,0.7c0.2,0.1,0.3,0.2,0.5,0.3c0.4,0.3-0.3-0.3,0.1,0.1c0.6,0.5,1.1,1,1.7,1.6c0.3,0.3,0.5,0.6,0.8,0.9
			c0.4,0.5-0.3-0.4,0.1,0.1c0.1,0.2,0.2,0.3,0.3,0.5c0.4,0.6,0.8,1.3,1.2,2c0.1,0.2,0.2,0.3,0.2,0.5c0.1,0.3,0.3,0.4,0,0.1
			c0.2,0.3,0.3,0.7,0.4,1.1c0.3,0.8,0.4,1.6,0.6,2.4c0.2,1.3,1.9,2.1,3.1,1.7C489.2,236.7,489.8,235.5,489.6,234.1L489.6,234.1z"/>
		<path class="st2" d="M498.1,252.3c-2.5-7.7-8.6-13.9-16.3-16.5c-1.2-0.4-2.8,0.5-3.1,1.7c-0.3,1.4,0.4,2.6,1.7,3.1
			c0.4,0.1,0.8,0.3,1.2,0.4c0.7,0.3-0.4-0.2,0.2,0.1c0.2,0.1,0.4,0.2,0.6,0.3c0.8,0.4,1.5,0.8,2.3,1.3c0.4,0.2,0.7,0.5,1.1,0.7
			c0.2,0.1,0.4,0.3,0.5,0.4c-0.3-0.2-0.1,0,0.1,0.1c0.7,0.5,1.3,1.1,1.9,1.8c0.6,0.6,1.1,1.2,1.7,1.9c0.4,0.6-0.3-0.4,0.1,0.2
			c0.1,0.2,0.3,0.4,0.4,0.5c0.2,0.4,0.5,0.7,0.7,1.1c0.5,0.7,0.9,1.5,1.2,2.3c0,0.1,0.3,0.7,0.1,0.2c0.1,0.2,0.1,0.3,0.2,0.5
			c0.2,0.4,0.3,0.9,0.5,1.3c0.4,1.2,1.8,2.2,3.1,1.7C497.6,255,498.5,253.7,498.1,252.3L498.1,252.3z"/>
		<path class="st2" d="M446,417.8c3.5,0.2,6.4,2.5,8.9,4.7c3.1,2.6,6.1,5.3,9.4,7.7c6.6,4.7,13.9,8.4,21.3,11.8
			c4.4,1.9,8.8,3.8,13.2,5.6c1.2,0.5,2.7-0.6,3.1-1.7c0.4-1.4-0.5-2.6-1.7-3.1c-7.6-3.1-15.2-6.3-22.5-10.2c-3.7-2-7.2-4.1-10.6-6.5
			c-3.2-2.3-6-4.9-9-7.4c-3.5-3-7.3-5.5-12-5.7C442.8,412.6,442.8,417.6,446,417.8L446,417.8z"/>
		<path class="st2" d="M471.6,439.7c-0.5,4-0.6,8.1-0.4,12.1c0.8-0.8,1.7-1.7,2.5-2.5c-2.5-0.2-5-0.4-7.6-0.6
			c0.7,1.3,1.4,2.5,2.2,3.8c6.4-10.8,13.2-22.2,24.1-29.1c1.4-0.9,1.8-3.5,0-4.3c-2.6-1.2-5.2-2.4-7.8-3.6c-2.3-1.1-5.4-2.9-7.7-0.8
			c-2.1,1.8-1.4,5.3-1.4,7.8c0,3,0,6,0,9c0,3.2,5,3.2,5,0c0-2.3,0-4.7,0-7c0-1,0-2,0-3c0-0.3,0.2-3.3,0-3.4c0,0-0.8,0.5-0.8,0.7
			c0,0,1.1,0.4,1.1,0.4c1,0.4,1.9,0.9,2.9,1.3c2.1,1,4.2,1.9,6.3,2.9c0-1.4,0-2.9,0-4.3c-11.6,7.4-19,19.3-25.9,30.9
			c-1,1.7,0.3,3.6,2.2,3.8c2.5,0.2,5,0.4,7.6,0.6c1.3,0.1,2.6-1.2,2.5-2.5c-0.2-4,0-8.1,0.4-12.1c0.2-1.3-1.3-2.5-2.5-2.5
			C472.6,437.2,471.7,438.4,471.6,439.7L471.6,439.7z"/>
		<path class="st2" d="M297.8,495c0.4,10.1,0.4,20.2-0.2,30.3c-0.5,8.4-2.4,18.2,2.7,25.7c1.8,2.7,6.1,0.2,4.3-2.5
			c-2.2-3.3-2.7-7.1-2.7-11c0-4.4,0.5-8.8,0.7-13.2c0.5-9.8,0.5-19.5,0.1-29.3C302.6,491.8,297.6,491.8,297.8,495L297.8,495z"/>
		<path class="st2" d="M284.2,528.9c-0.8-1.3-1.3-2.6-1.4-4.1c-1.1,0.8-2.1,1.6-3.2,2.4c7.3,2.9,14.9,5,22.6,6.2c2,0.3,4,0.6,6,0.8
			c1.9,0.2,3.8,0.6,5.7,0.5c4.9-0.2,4.2-6.4,3.9-9.8c-0.1-1.7-1.5-2.8-3.2-2.4c-10.6,2.3-21.1,4.6-31.7,6.9
			c-3.1,0.7-1.8,5.5,1.3,4.8c10.6-2.3,21.1-4.6,31.7-6.9c-1.1-0.8-2.1-1.6-3.2-2.4c0.1,1.7,0,3.4,0.1,5c0,0.2,0,0.3,0,0.5
			c0.1,0.4,0.4,0.1,0.8-0.7c-0.1-0.1-1-0.1-1.1-0.1c-0.9-0.1-1.7-0.1-2.6-0.2c-3.3-0.3-6.5-0.8-9.7-1.4c-6.6-1.3-13.1-3.2-19.4-5.7
			c-1.5-0.6-3.2,0.9-3.2,2.4c0.1,2.4,0.7,4.6,2,6.6C281.6,534.1,285.9,531.6,284.2,528.9L284.2,528.9z"/>
		<path class="st2" d="M151.6,409.7c-13,6.4-25.7,13.3-38.1,20.9c-2.7,1.7-0.2,6,2.5,4.3c12.4-7.5,25.1-14.5,38.1-20.9
			c1.2-0.6,1.5-2.3,0.9-3.4C154.3,409.4,152.8,409.1,151.6,409.7L151.6,409.7z"/>
		<path class="st2" d="M109,411.9c4.8,3.2,9.9,5.9,15.2,8.2c1.2,0.5,2.7,0.4,3.4-0.9c0.6-1.1,0.4-2.9-0.9-3.4
			c-5.3-2.3-10.4-5-15.2-8.2c-1.1-0.7-2.8-0.2-3.4,0.9C107.4,409.7,107.8,411.1,109,411.9L109,411.9z"/>
		<path class="st2" d="M124.7,422.4c-0.5,2.9,0,5.7,1.5,8.3c1.3,2.3,3.3,4.2,5.7,5.4c1.4,0.7,2.8,1.1,4.3,1.2c1,0.1,2.1,0.1,2.9-0.7
			c0.7-0.7,1.1-1.9,1.1-2.9c0-3.3-3-5.7-5.9-6.6c-0.6-0.2-1.2-0.3-1.8-0.5c-0.3-0.1-0.6-0.2-0.9-0.3c-0.1-0.1-0.3-0.1-0.4-0.2
			c-0.1,0-0.1-0.1-0.2-0.1c-0.2-0.1-0.1,0,0.2,0.1c-0.2-0.2-0.6-0.3-0.8-0.4c-0.1-0.1-0.2-0.2-0.4-0.2c-0.4-0.3,0.4,0.4,0.1,0
			c-0.1-0.1-0.2-0.2-0.3-0.3c-0.3-0.3,0.3,0.5,0.1,0.1c0-0.1-0.1-0.3-0.2-0.4c0.2,0.4,0.2,0.5,0.1,0.2c0-0.1-0.1-0.2-0.1-0.3
			c-0.3-1.3-1.8-2.2-3.1-1.7c-1.3,0.4-2.1,1.7-1.7,3.1c0.9,3.2,4,4.5,6.9,5.3c0.3,0.1,0.6,0.2,0.9,0.3c0.2,0,0.3,0.1,0.4,0.1
			c0.1,0,0.6,0.3,0.2,0.1c-0.3-0.2,0.2,0.1,0.2,0.1c0.2,0.1,0.3,0.2,0.4,0.3c0.1,0.1,0.3,0.2,0.4,0.3c0.1,0.1,0.1,0.1-0.2-0.1
			c0.1,0.1,0.1,0.1,0.2,0.2c0.1,0.1,0.2,0.2,0.4,0.3c0.1,0.1,0.1,0.1,0.2,0.2c0.1,0.2,0.1,0.2,0,0c-0.1-0.2-0.1-0.2,0,0
			c0,0.1,0.1,0.1,0.1,0.2c0,0.1,0.3,0.6,0.1,0.2c-0.2-0.4,0,0.1,0,0.2c0.1,0.2,0-0.6,0-0.1c0,0.2,0.2-0.6,0-0.1
			c-0.1,0.2,0,0.1,0.1-0.3c0,0.1-0.1,0.2-0.2,0.3c0.7-0.4,1.4-0.8,2.2-1.2c-0.2,0-1-0.1-1.1,0c0.1,0,0.2,0,0.3,0
			c-0.1,0-0.2,0-0.3-0.1c-0.2,0-0.3-0.1-0.5-0.1c-0.3-0.1-0.6-0.2-0.9-0.3c-0.1,0-0.7-0.2-0.3-0.1c0.4,0.1-0.1-0.1-0.2-0.1
			c-0.3-0.2-0.6-0.3-0.9-0.5c-0.1-0.1-0.8-0.4-0.8-0.5c0.3,0.2,0.3,0.3,0.1,0.1c-0.1-0.1-0.1-0.1-0.2-0.2c-0.1-0.1-0.2-0.2-0.4-0.3
			c-0.3-0.2-0.5-0.5-0.7-0.8c-0.1-0.1-0.2-0.3-0.3-0.4c0.5,0.4,0.1,0.2,0,0c-0.2-0.3-0.4-0.6-0.6-0.9c-0.2-0.3-0.3-0.6-0.5-0.9
			c-0.3-0.5,0.2,0.5,0,0c-0.1-0.2-0.1-0.3-0.2-0.5c-0.1-0.3-0.2-0.7-0.3-1c0-0.2-0.1-0.4-0.1-0.5c-0.1-0.5,0,0.6,0,0
			c0-0.3,0-0.6,0-1c0-0.2,0-0.3,0-0.5c0-0.1,0-0.2,0-0.3c-0.1,0.4-0.1,0.5,0,0.2c0.2-1.3-0.3-2.8-1.7-3.1
			C126.6,420.4,124.9,421,124.7,422.4L124.7,422.4z"/>
		<path class="st2" d="M123.5,414.7c-0.1-1.2-0.4-2.3-1.1-3.4c-0.6-1-1.5-1.8-2.4-2.5c-1.8-1.2-4.2-1.7-6.3-1.1
			c-1.3,0.4-2.2,1.8-1.7,3.1c0.4,1.3,1.7,2.1,3.1,1.7c0.2-0.1,0.4-0.1,0.7-0.1c-0.2,0-0.4,0.1-0.7,0.1c0.4,0,0.8,0,1.2,0
			c-0.2,0-0.4-0.1-0.7-0.1c0.5,0.1,1,0.2,1.4,0.4c-0.2-0.1-0.4-0.2-0.6-0.3c0.5,0.2,0.9,0.4,1.3,0.7c-0.2-0.1-0.3-0.3-0.5-0.4
			c0.4,0.3,0.7,0.6,1,1c-0.1-0.2-0.3-0.3-0.4-0.5c0.3,0.3,0.5,0.7,0.7,1.1c-0.1-0.2-0.2-0.4-0.3-0.6c0.2,0.4,0.3,0.8,0.3,1.2
			c0-0.2-0.1-0.4-0.1-0.7c0,0.1,0,0.2,0,0.3c0.1,0.7,0.2,1.3,0.7,1.8c0.4,0.4,1.1,0.8,1.8,0.7c0.6,0,1.3-0.2,1.8-0.7
			C123.2,416,123.6,415.3,123.5,414.7L123.5,414.7z"/>
		<path class="st2" d="M115.4,221.9c6.6,2,12.4,5.9,18.3,9.5c6,3.6,12.4,6.8,19.5,7.4c1.3,0.1,2.5-1.2,2.5-2.5
			c0-1.5-1.1-2.4-2.5-2.5c-6.6-0.6-12.4-4-18-7.3c-5.9-3.6-11.8-7.4-18.5-9.4C113.6,216.1,112.3,221,115.4,221.9L115.4,221.9z"/>
		<path class="st2" d="M132.1,212c0.3,3.5-0.3,6.9-2,10.1c-1.7,3.1-4,5.7-5.6,8.8c-3,5.5-3.6,13,2,17.1c1.1,0.8,2.8,0.2,3.4-0.9
			c0.7-1.3,0.2-2.6-0.9-3.4c-1.7-1.3-2-3.8-1.7-5.7c0.3-2.7,1.8-5.1,3.3-7.3c1.8-2.7,3.8-5.4,5-8.5c1.3-3.2,1.8-6.7,1.5-10.1
			c-0.1-1.3-1.1-2.5-2.5-2.5C133.4,209.5,132,210.7,132.1,212L132.1,212z"/>
	</g>
</g>
</svg>
