<svg xmlns="http://www.w3.org/2000/svg" viewBox="0 0 105.98 22.89"><defs><style>.cls-1{fill:#fff;}</style></defs><g id="Layer_2" data-name="Layer 2"><g id="Layer_1-2" data-name="Layer 1"><path class="cls-1" d="M0,0H4.91L8.47,16.16h.09L12.72,0h4.14L21,16.16h.09L24.67,0h4.91l-6,22.55H19L14.84,7.45h-.09l-4.16,15.1H6Z"/><path class="cls-1" d="M31.65,22.16A4.76,4.76,0,0,1,29,17.75v0a4.27,4.27,0,0,1,1.71-3.59,8.83,8.83,0,0,1,4.82-1.51l6.54-.4v2.84l-5.85.39a3.7,3.7,0,0,0-2,.61,1.71,1.71,0,0,0-.69,1.42v0A1.7,1.7,0,0,0,34.19,19a3.09,3.09,0,0,0,1.89.52,4.15,4.15,0,0,0,1.82-.39A3.14,3.14,0,0,0,39.16,18a2.71,2.71,0,0,0,.46-1.55v-5.1a2.25,2.25,0,0,0-.7-1.75,3,3,0,0,0-2-.64,3.5,3.5,0,0,0-2,.53,2.15,2.15,0,0,0-.92,1.33l0,.14H29.7l0-.18a5.23,5.23,0,0,1,1-2.75,5.92,5.92,0,0,1,2.5-1.89,9.74,9.74,0,0,1,3.8-.68,9.43,9.43,0,0,1,3.77.7,5.67,5.67,0,0,1,2.47,2,5,5,0,0,1,.89,3V22.55H39.62V20.06h-.09a5.56,5.56,0,0,1-1.22,1.47,5,5,0,0,1-1.68.95,6.15,6.15,0,0,1-2,.33A6.3,6.3,0,0,1,31.65,22.16Z"/><path class="cls-1" d="M47.23,0H51.8V22.55H47.23Z"/><path class="cls-1" d="M55,0h4.57V22.55H55Z"/><path class="cls-1" d="M65.84,21.84a7.18,7.18,0,0,1-2.84-3,10,10,0,0,1-1-4.63h0a10.08,10.08,0,0,1,1-4.64,7.39,7.39,0,0,1,2.8-3,9.09,9.09,0,0,1,8.5,0,7.06,7.06,0,0,1,2.77,2.93,9.54,9.54,0,0,1,1,4.42v1.43H64.25V12.38H75.89l-2.17,2.7V13.31a5.94,5.94,0,0,0-.45-2.46A3.4,3.4,0,0,0,72,9.36a3.51,3.51,0,0,0-1.87-.5,3.38,3.38,0,0,0-1.88.52A3.33,3.33,0,0,0,67,10.88a5.7,5.7,0,0,0-.46,2.43v1.78A5.46,5.46,0,0,0,67,17.45,3.31,3.31,0,0,0,68.3,19a3.82,3.82,0,0,0,2,.52A4.06,4.06,0,0,0,72,19.19a3.43,3.43,0,0,0,1.12-.75,2.46,2.46,0,0,0,.6-.92l0-.1h4.19l0,.17a6,6,0,0,1-.74,1.86,6.39,6.39,0,0,1-1.47,1.72,7.17,7.17,0,0,1-2.27,1.25,9.5,9.5,0,0,1-3.13.47A8.77,8.77,0,0,1,65.84,21.84Z"/><path class="cls-1" d="M82.92,21.72a4.9,4.9,0,0,1-1.34-3.86V9.23H79.25V5.8h2.33V1.7h4.61V5.8h3.06V9.23H86.19v8.13A2.08,2.08,0,0,0,86.71,19a2.29,2.29,0,0,0,1.56.46,4.44,4.44,0,0,0,.54,0l.44-.05v3.34l-.93.12c-.37,0-.79.05-1.27.05A6.17,6.17,0,0,1,82.92,21.72Z"/><path class="cls-1" d="M94.71,22.22a6,6,0,0,1-2.54-1.87,5.59,5.59,0,0,1-1.09-2.77l0-.14h4.46l0,.14a2.44,2.44,0,0,0,1,1.53,3.65,3.65,0,0,0,2.13.55,4.59,4.59,0,0,0,1.48-.21,2.27,2.27,0,0,0,1-.61,1.39,1.39,0,0,0,.33-.93v0a1.34,1.34,0,0,0-.48-1.08,4.26,4.26,0,0,0-1.72-.67l-2.84-.61a7.19,7.19,0,0,1-3.68-1.72,4.16,4.16,0,0,1-1.23-3.09v0a4.54,4.54,0,0,1,.87-2.78A5.51,5.51,0,0,1,94.79,6.1a9.8,9.8,0,0,1,3.71-.65,9.06,9.06,0,0,1,3.77.71,5.72,5.72,0,0,1,2.39,1.92,4.82,4.82,0,0,1,.89,2.67v.16h-4.21v-.13a2.25,2.25,0,0,0-.84-1.49,3,3,0,0,0-2-.6,3.77,3.77,0,0,0-1.36.22,2,2,0,0,0-.89.61,1.43,1.43,0,0,0-.31.93v0a1.35,1.35,0,0,0,.5,1.08,4.05,4.05,0,0,0,1.76.7l2.85.61a7.75,7.75,0,0,1,3.79,1.64A3.89,3.89,0,0,1,106,17.44h0a4.56,4.56,0,0,1-.93,2.86,6.15,6.15,0,0,1-2.59,1.9,10,10,0,0,1-3.8.68A10.32,10.32,0,0,1,94.71,22.22Z"/></g></g></svg>