<svg xmlns="http://www.w3.org/2000/svg" viewBox="0 0 109.45 29.17"><defs><style>.cls-1{fill:#fff;}</style></defs><g id="Layer_2" data-name="Layer 2"><g id="Layer_1-2" data-name="Layer 1"><path class="cls-1" d="M0,1.11H4.72V23.66H0Z"/><path class="cls-1" d="M10.64,23a6.58,6.58,0,0,1-2.36-3,12,12,0,0,1-.83-4.67h0a11.91,11.91,0,0,1,.83-4.68,6.61,6.61,0,0,1,2.36-3,6.33,6.33,0,0,1,3.63-1,5.68,5.68,0,0,1,3.14.87,5.49,5.49,0,0,1,2,2.38h.09V1.11h4.56V23.66H19.53V20.8h-.09a5.31,5.31,0,0,1-2,2.35,5.71,5.71,0,0,1-3.15.85A6.29,6.29,0,0,1,10.64,23Zm7.13-3.33a3.87,3.87,0,0,0,1.3-1.71,6.8,6.8,0,0,0,.46-2.63h0a6.54,6.54,0,0,0-.47-2.61A3.94,3.94,0,0,0,17.76,11a3.21,3.21,0,0,0-2-.61,3.29,3.29,0,0,0-2,.6,3.77,3.77,0,0,0-1.28,1.69,7,7,0,0,0-.45,2.64h0a7.21,7.21,0,0,0,.44,2.63,3.78,3.78,0,0,0,1.29,1.71,3.27,3.27,0,0,0,2,.6A3.32,3.32,0,0,0,17.77,19.62Z"/><path class="cls-1" d="M30.36,23a7.12,7.12,0,0,1-2.84-3,10,10,0,0,1-1-4.63h0a10.08,10.08,0,0,1,1-4.64,7.33,7.33,0,0,1,2.8-3,8.22,8.22,0,0,1,4.26-1.07,8.33,8.33,0,0,1,4.24,1,7.12,7.12,0,0,1,2.77,2.93,9.53,9.53,0,0,1,1,4.42v1.43H28.77v-2.9H40.41l-2.18,2.71V14.42A5.94,5.94,0,0,0,37.78,12a3.27,3.27,0,0,0-1.26-1.49,3.47,3.47,0,0,0-1.86-.5,3.31,3.31,0,0,0-3.17,2A5.7,5.7,0,0,0,31,14.42V16.2a5.46,5.46,0,0,0,.46,2.36,3.43,3.43,0,0,0,1.32,1.51,3.86,3.86,0,0,0,2,.52,4,4,0,0,0,1.62-.29,3.48,3.48,0,0,0,1.13-.75,2.39,2.39,0,0,0,.59-.93l0-.09h4.19l0,.17a6.28,6.28,0,0,1-.74,1.86,6.43,6.43,0,0,1-1.48,1.72,7.12,7.12,0,0,1-2.26,1.25,9.54,9.54,0,0,1-3.13.47A8.77,8.77,0,0,1,30.36,23Z"/><path class="cls-1" d="M44.91,6.91h4.56V9.66h.09A5.25,5.25,0,0,1,51.5,7.39a5.73,5.73,0,0,1,3.17-.83A5.49,5.49,0,0,1,59,8.23a6.65,6.65,0,0,1,1.5,4.61V23.66H55.89V13.8a3.83,3.83,0,0,0-.77-2.55,2.9,2.9,0,0,0-2.31-.91,3.26,3.26,0,0,0-1.76.47,3.21,3.21,0,0,0-1.17,1.3A4.31,4.31,0,0,0,49.47,14v9.63H44.91Z"/><path class="cls-1" d="M65.88,22.83A4.87,4.87,0,0,1,64.53,19V10.34H62.2V6.91h2.33V2.81h4.61v4.1H72.2v3.43H69.14v8.13a2.1,2.1,0,0,0,.52,1.63,2.29,2.29,0,0,0,1.56.46l.55,0c.15,0,.3,0,.43-.06v3.35l-.93.12c-.37,0-.79.05-1.27.05A6.14,6.14,0,0,1,65.88,22.83Z"/><path class="cls-1" d="M75.35,4.05a2.29,2.29,0,0,1-.71-1.67A2.27,2.27,0,0,1,75.35.7,2.39,2.39,0,0,1,77.09,0a2.36,2.36,0,0,1,1.74.7,2.26,2.26,0,0,1,.7,1.68,2.28,2.28,0,0,1-.7,1.67,2.34,2.34,0,0,1-1.74.72A2.37,2.37,0,0,1,75.35,4.05ZM74.8,6.91h4.58V23.66H74.8Z"/><path class="cls-1" d="M85,22.83A4.9,4.9,0,0,1,83.61,19V10.34H81.28V6.91h2.33V2.81h4.61v4.1h3.06v3.43H88.22v8.13a2.1,2.1,0,0,0,.52,1.63,2.29,2.29,0,0,0,1.56.46l.54,0c.16,0,.31,0,.44-.06v3.35l-.93.12c-.37,0-.79.05-1.27.05A6.17,6.17,0,0,1,85,22.83Z"/><path class="cls-1" d="M95.12,29.11c-.41,0-.76-.09-1-.14V25.58l.64.1a6,6,0,0,0,.89.05,3.27,3.27,0,0,0,1.63-.34,2.08,2.08,0,0,0,.89-1.19l.19-.54L92.42,6.91h5l3.78,14-.61-.91h.86l-.61.91,3.76-14h4.83L103.7,24a8.88,8.88,0,0,1-1.65,3.12,5.39,5.39,0,0,1-2.38,1.63,10.27,10.27,0,0,1-3.25.47C96,29.17,95.54,29.15,95.12,29.11Z"/></g></g></svg>