<svg xmlns="http://www.w3.org/2000/svg" viewBox="0 0 120.69 29.17"><defs><style>.cls-1{fill:#fff;}</style></defs><g id="Layer_2" data-name="Layer 2"><g id="Layer_1-2" data-name="Layer 1"><path class="cls-1" d="M4.43,23.26A7.2,7.2,0,0,1,1.29,21,6.18,6.18,0,0,1,0,17.44l0-.25H4.45l0,.17a2.84,2.84,0,0,0,.79,1.51,4.26,4.26,0,0,0,1.65,1,6.86,6.86,0,0,0,2.3.35,6.39,6.39,0,0,0,2.26-.35,3.28,3.28,0,0,0,1.46-1,2.36,2.36,0,0,0,.51-1.51h0a2.08,2.08,0,0,0-.9-1.79,8,8,0,0,0-3-1.07L7.19,14a10,10,0,0,1-5-2.25A5.45,5.45,0,0,1,.47,7.58v0A6,6,0,0,1,1.59,4,7.34,7.34,0,0,1,4.64,1.58,10.89,10.89,0,0,1,9.08.72a11.28,11.28,0,0,1,4.51.82,7,7,0,0,1,3,2.3A6.4,6.4,0,0,1,17.72,7.3v.28H13.28l0-.19a2.67,2.67,0,0,0-.66-1.51,3.67,3.67,0,0,0-1.45-1,5.66,5.66,0,0,0-2.06-.35A5.66,5.66,0,0,0,7,4.91a3,3,0,0,0-1.34,1A2.33,2.33,0,0,0,5.2,7.28v0A2,2,0,0,0,6.11,9a7.43,7.43,0,0,0,2.84,1l2.39.49a10.73,10.73,0,0,1,5.2,2.22A5.42,5.42,0,0,1,18.19,17v0a6.45,6.45,0,0,1-1.09,3.76A7,7,0,0,1,14,23.18a12.43,12.43,0,0,1-4.89.87A12.74,12.74,0,0,1,4.43,23.26Z"/><path class="cls-1" d="M23.89,23a7.12,7.12,0,0,1-2.84-3,10,10,0,0,1-1-4.63h0a10.08,10.08,0,0,1,1-4.64,7.33,7.33,0,0,1,2.8-3,8.22,8.22,0,0,1,4.26-1.07,8.33,8.33,0,0,1,4.24,1,7.06,7.06,0,0,1,2.77,2.93,9.53,9.53,0,0,1,1,4.42v1.43H22.3v-2.9H33.94l-2.17,2.71V14.42A5.93,5.93,0,0,0,31.31,12a3.27,3.27,0,0,0-1.26-1.49,3.45,3.45,0,0,0-1.86-.5A3.31,3.31,0,0,0,25,12a5.85,5.85,0,0,0-.46,2.43V16.2A5.61,5.61,0,0,0,25,18.56a3.43,3.43,0,0,0,1.32,1.51,3.88,3.88,0,0,0,2.05.52A4.06,4.06,0,0,0,30,20.3a3.54,3.54,0,0,0,1.12-.75,2.39,2.39,0,0,0,.59-.93l0-.09H36l0,.17a6,6,0,0,1-.74,1.86,6.57,6.57,0,0,1-1.47,1.72,7.17,7.17,0,0,1-2.27,1.25A9.54,9.54,0,0,1,28.3,24,8.77,8.77,0,0,1,23.89,23Z"/><path class="cls-1" d="M41.69,22.94a7.18,7.18,0,0,1-2.87-3,10,10,0,0,1-1-4.64v0a9.83,9.83,0,0,1,1-4.63,7.11,7.11,0,0,1,2.87-3,8.55,8.55,0,0,1,4.35-1.06,8.71,8.71,0,0,1,4,.85,6.7,6.7,0,0,1,2.62,2.31,6.58,6.58,0,0,1,1,3.26v.11H49.41l0-.14a3.64,3.64,0,0,0-1-2,3.07,3.07,0,0,0-2.25-.81,3.14,3.14,0,0,0-1.93.62,3.92,3.92,0,0,0-1.27,1.76,7.77,7.77,0,0,0-.44,2.75h0a7.89,7.89,0,0,0,.44,2.79,3.78,3.78,0,0,0,1.27,1.75,3.22,3.22,0,0,0,1.94.6,3.17,3.17,0,0,0,2.22-.77,3.59,3.59,0,0,0,1-2l0-.14h4.25v.09a6.58,6.58,0,0,1-1.06,3.28A6.77,6.77,0,0,1,50,23.15a8.43,8.43,0,0,1-3.9.85A8.71,8.71,0,0,1,41.69,22.94Z"/><path class="cls-1" d="M58.44,23.24a4.81,4.81,0,0,1-2-2.16,7.72,7.72,0,0,1-.67-3.36V6.91h4.56v9.86a3.82,3.82,0,0,0,.77,2.54,2.86,2.86,0,0,0,2.31.91,3.27,3.27,0,0,0,1.77-.47,3.18,3.18,0,0,0,1.16-1.3,4.37,4.37,0,0,0,.41-1.92V6.91h4.56V23.66H66.78V20.89h-.11a5.11,5.11,0,0,1-1.92,2.28,5.78,5.78,0,0,1-3.19.83A6,6,0,0,1,58.44,23.24Z"/><path class="cls-1" d="M74.31,6.91h4.57V9.83H79a4.51,4.51,0,0,1,1.36-2.41,3.59,3.59,0,0,1,2.45-.86,5.55,5.55,0,0,1,.72.05,3.58,3.58,0,0,1,.59.12v4a2.64,2.64,0,0,0-.71-.2,5.69,5.69,0,0,0-.94-.07,4,4,0,0,0-1.92.44,2.85,2.85,0,0,0-1.22,1.28,4.58,4.58,0,0,0-.42,2.06v9.38H74.31Z"/><path class="cls-1" d="M86.59,4.05a2.25,2.25,0,0,1-.71-1.67A2.23,2.23,0,0,1,86.59.7a2.5,2.5,0,0,1,3.47,0,2.27,2.27,0,0,1,.71,1.68,2.29,2.29,0,0,1-.71,1.67,2.45,2.45,0,0,1-3.47,0ZM86,6.91h4.58V23.66H86Z"/><path class="cls-1" d="M96.19,22.83A4.87,4.87,0,0,1,94.84,19V10.34H92.52V6.91h2.32V2.81h4.61v4.1h3.07v3.43H99.45v8.13A2.1,2.1,0,0,0,100,20.1a2.26,2.26,0,0,0,1.55.46l.55,0c.15,0,.3,0,.44-.06v3.35l-.93.12c-.37,0-.8.05-1.28.05A6.14,6.14,0,0,1,96.19,22.83Z"/><path class="cls-1" d="M106.36,29.11c-.42,0-.76-.09-1-.14V25.58l.63.1a6.25,6.25,0,0,0,.9.05,3.2,3.2,0,0,0,1.62-.34,2.09,2.09,0,0,0,.9-1.19l.18-.54-5.9-16.75h5l3.78,14-.61-.91h.86l-.61.91,3.77-14h4.83l-5.75,17a9.22,9.22,0,0,1-1.65,3.12,5.45,5.45,0,0,1-2.38,1.63,10.27,10.27,0,0,1-3.25.47C107.21,29.17,106.78,29.15,106.36,29.11Z"/></g></g></svg>