<svg xmlns="http://www.w3.org/2000/svg" viewBox="0 0 89.25 22.89"><defs><style>.cls-1{fill:#fff;}</style></defs><g id="Layer_2" data-name="Layer 2"><g id="Layer_1-2" data-name="Layer 1"><path class="cls-1" d="M0,0H5.45l6.41,16.2H12L18.34,0h5.47V22.55H19.59V7.31H17.42L22.14.62,13.39,22.55h-3L1.67.62,6.39,7.31H4.2V22.55H0Z"/><path class="cls-1" d="M30.39,21.84a7.12,7.12,0,0,1-2.84-3,10,10,0,0,1-1-4.63h0a10.08,10.08,0,0,1,1-4.64,7.33,7.33,0,0,1,2.8-3,8.22,8.22,0,0,1,4.26-1.07,8.33,8.33,0,0,1,4.24,1,7.12,7.12,0,0,1,2.77,2.93,9.53,9.53,0,0,1,1,4.42v1.43H28.8V12.38H40.44l-2.17,2.7V13.31a5.93,5.93,0,0,0-.46-2.46,3.27,3.27,0,0,0-1.26-1.49,3.47,3.47,0,0,0-5,1.52,5.85,5.85,0,0,0-.46,2.43v1.78a5.61,5.61,0,0,0,.46,2.36A3.43,3.43,0,0,0,32.84,19a3.88,3.88,0,0,0,2,.52,4.06,4.06,0,0,0,1.63-.29,3.54,3.54,0,0,0,1.12-.75,2.43,2.43,0,0,0,.59-.92l0-.1h4.18l0,.17a6,6,0,0,1-.74,1.86,6.57,6.57,0,0,1-1.47,1.72,7.17,7.17,0,0,1-2.27,1.25,9.54,9.54,0,0,1-3.13.47A8.77,8.77,0,0,1,30.39,21.84Z"/><path class="cls-1" d="M44.94,5.8H49.5V8.72h.09A4.58,4.58,0,0,1,51,6.31a3.63,3.63,0,0,1,2.46-.86,5.27,5.27,0,0,1,.71,0,4,4,0,0,1,.6.12v4a2.84,2.84,0,0,0-.72-.2,5.53,5.53,0,0,0-.94-.07,4,4,0,0,0-1.92.44,2.91,2.91,0,0,0-1.22,1.28,4.58,4.58,0,0,0-.42,2.06v9.38H44.94Z"/><path class="cls-1" d="M59.28,21.83a7.24,7.24,0,0,1-2.87-3,10,10,0,0,1-1-4.64v0a9.83,9.83,0,0,1,1-4.63,7.17,7.17,0,0,1,2.87-3,8.55,8.55,0,0,1,4.35-1.06,8.68,8.68,0,0,1,4,.85,6.63,6.63,0,0,1,2.62,2.31,6.49,6.49,0,0,1,1,3.27V12H67l0-.14a3.58,3.58,0,0,0-1-2A3.07,3.07,0,0,0,63.7,9a3.14,3.14,0,0,0-1.93.62,3.9,3.9,0,0,0-1.26,1.76,7.54,7.54,0,0,0-.45,2.75h0A7.62,7.62,0,0,0,60.51,17a3.77,3.77,0,0,0,1.26,1.75,3.23,3.23,0,0,0,1.95.6,3.16,3.16,0,0,0,2.21-.77,3.47,3.47,0,0,0,1-2l0-.14h4.25v.09a6.59,6.59,0,0,1-1.07,3.28A6.67,6.67,0,0,1,67.59,22a8.43,8.43,0,0,1-3.9.85A8.73,8.73,0,0,1,59.28,21.83Z"/><path class="cls-1" d="M73.58,0h4.56V8.69h.09a5.16,5.16,0,0,1,2-2.4,5.71,5.71,0,0,1,3.18-.84,5.89,5.89,0,0,1,3.14.81,5.32,5.32,0,0,1,2,2.27,8,8,0,0,1,.71,3.5V22.55H84.67V13a4.1,4.1,0,0,0-.83-2.74,3,3,0,0,0-2.39-1,3.16,3.16,0,0,0-1.74.48A3.35,3.35,0,0,0,78.55,11,4.38,4.38,0,0,0,78.14,13v9.6H73.58Z"/></g></g></svg>