<svg xmlns="http://www.w3.org/2000/svg" viewBox="0 0 236.39 28.36"><defs><style>.cls-1{fill:#fff;}</style></defs><g id="Layer_2" data-name="Layer 2"><g id="Layer_1-2" data-name="Layer 1"><path class="cls-1" d="M0,0H4.12L16.38,17.64l-4-3h2V0h4.7V22.55H15L2.73,4.81l4,3h-2V22.55H0Z"/><path class="cls-1" d="M22.86,0H37.62V3.89h-10v6h9.17v3.73H27.58v8.88H22.86Z"/><path class="cls-1" d="M45.8,3.89H39.27V0H57.05V3.89H50.52V22.55H45.8Z"/><path class="cls-1" d="M59.09,22.22a5.89,5.89,0,0,1-2.54-1.87,5.6,5.6,0,0,1-1.1-2.77v-.14h4.45l0,.14a2.49,2.49,0,0,0,1,1.53,3.61,3.61,0,0,0,2.12.55,4.65,4.65,0,0,0,1.49-.21,2.23,2.23,0,0,0,.94-.61,1.4,1.4,0,0,0,.34-.93v0a1.32,1.32,0,0,0-.49-1.08,4.14,4.14,0,0,0-1.72-.67l-2.84-.61a7.12,7.12,0,0,1-3.67-1.72,4.13,4.13,0,0,1-1.24-3.09v0a4.54,4.54,0,0,1,.87-2.78A5.63,5.63,0,0,1,59.16,6.1a9.85,9.85,0,0,1,3.72-.65,9.12,9.12,0,0,1,3.77.71A5.85,5.85,0,0,1,69,8.08a4.81,4.81,0,0,1,.88,2.67v.16h-4.2l0-.13a2.24,2.24,0,0,0-.83-1.49,3,3,0,0,0-2-.6,3.69,3.69,0,0,0-1.36.22,2,2,0,0,0-.9.61,1.49,1.49,0,0,0-.31.93v0a1.38,1.38,0,0,0,.5,1.08,4.1,4.1,0,0,0,1.77.7l2.84.61a7.71,7.71,0,0,1,3.79,1.64,3.86,3.86,0,0,1,1.15,2.94h0a4.51,4.51,0,0,1-.94,2.86,6.12,6.12,0,0,1-2.58,1.9,10,10,0,0,1-3.81.68A10.27,10.27,0,0,1,59.09,22.22Z"/><path class="cls-1" d="M81,22.16a4.76,4.76,0,0,1-2.7-4.41v0A4.27,4.27,0,0,1,80,14.13a8.83,8.83,0,0,1,4.82-1.51l6.53-.4v2.84l-5.84.39a3.67,3.67,0,0,0-2,.61,1.71,1.71,0,0,0-.69,1.42v0A1.7,1.7,0,0,0,83.52,19a3.05,3.05,0,0,0,1.89.52,4.15,4.15,0,0,0,1.82-.39A3.21,3.21,0,0,0,88.49,18,2.71,2.71,0,0,0,89,16.44v-5.1a2.25,2.25,0,0,0-.7-1.75,3,3,0,0,0-2-.64,3.49,3.49,0,0,0-2,.53,2.11,2.11,0,0,0-.92,1.33l0,.14H79l0-.18a5.23,5.23,0,0,1,1-2.75,5.85,5.85,0,0,1,2.5-1.89,9.7,9.7,0,0,1,3.8-.68,9.46,9.46,0,0,1,3.77.7,5.72,5.72,0,0,1,2.47,2,5,5,0,0,1,.89,3V22.55H89V20.06h-.09a5.41,5.41,0,0,1-1.22,1.47,5,5,0,0,1-1.68.95,6.15,6.15,0,0,1-2,.33A6.3,6.3,0,0,1,81,22.16Z"/><path class="cls-1" d="M96.45,5.8H101V8.55h.09a5.18,5.18,0,0,1,1.94-2.27,5.73,5.73,0,0,1,3.17-.83,5.46,5.46,0,0,1,4.27,1.67A6.6,6.6,0,0,1,112,11.73V22.55h-4.56V12.69a3.79,3.79,0,0,0-.78-2.55,2.86,2.86,0,0,0-2.3-.91,3.29,3.29,0,0,0-1.77.47,3.25,3.25,0,0,0-1.16,1.3,4.18,4.18,0,0,0-.41,1.92v9.63H96.45Z"/><path class="cls-1" d="M117.45,21.84a6.65,6.65,0,0,1-2.36-3,12,12,0,0,1-.82-4.67h0a11.92,11.92,0,0,1,.82-4.68,6.73,6.73,0,0,1,2.36-3,6.33,6.33,0,0,1,3.63-1,5.65,5.65,0,0,1,3.14.87,5.49,5.49,0,0,1,2,2.38h.09V0h4.57V22.55h-4.57V19.69h-.09a5.31,5.31,0,0,1-2,2.35,5.71,5.71,0,0,1-3.15.85A6.29,6.29,0,0,1,117.45,21.84Zm7.13-3.33a3.8,3.8,0,0,0,1.3-1.71,6.8,6.8,0,0,0,.46-2.63h0a6.73,6.73,0,0,0-.46-2.61,4,4,0,0,0-1.31-1.71,3.28,3.28,0,0,0-1.95-.61,3.24,3.24,0,0,0-2,.6,3.7,3.7,0,0,0-1.28,1.69,6.81,6.81,0,0,0-.46,2.64h0a7,7,0,0,0,.45,2.63,3.7,3.7,0,0,0,1.28,1.71,3.52,3.52,0,0,0,3.93,0Z"/><path class="cls-1" d="M144.1,27.73A7.13,7.13,0,0,1,141.38,26a4.55,4.55,0,0,1-1.22-2.43l0-.14h4.46l0,.11a2.47,2.47,0,0,0,1.18,1.08,5,5,0,0,0,2.31.47,3.87,3.87,0,0,0,2.69-.84,2.92,2.92,0,0,0,.92-2.24V19.45h-.1A4.75,4.75,0,0,1,150.43,21a5.37,5.37,0,0,1-1.77,1,6.53,6.53,0,0,1-2.21.35,6.45,6.45,0,0,1-3.62-1,6.31,6.31,0,0,1-2.35-2.86,11,11,0,0,1-.82-4.47h0a11.32,11.32,0,0,1,.83-4.58,6.55,6.55,0,0,1,2.38-2.92,6.43,6.43,0,0,1,3.65-1,5.86,5.86,0,0,1,2.17.39A5.19,5.19,0,0,1,150.41,7a5.5,5.5,0,0,1,1.2,1.71h.11V5.8h4.56V22.08a5.55,5.55,0,0,1-1,3.27,6.55,6.55,0,0,1-2.83,2.21,10.86,10.86,0,0,1-4.35.8A11.6,11.6,0,0,1,144.1,27.73ZM150,18.38a3.77,3.77,0,0,0,1.29-1.69,6.64,6.64,0,0,0,.46-2.6h0a6.48,6.48,0,0,0-.46-2.57A3.76,3.76,0,0,0,150,9.83a3.27,3.27,0,0,0-1.95-.6,3.37,3.37,0,0,0-2,.59,3.71,3.71,0,0,0-1.29,1.67,6.59,6.59,0,0,0-.46,2.59h0a6.64,6.64,0,0,0,.46,2.6,3.77,3.77,0,0,0,1.29,1.69,3.37,3.37,0,0,0,2,.59A3.29,3.29,0,0,0,150,18.38Z"/><path class="cls-1" d="M161.3,22.16a4.78,4.78,0,0,1-2.69-4.41v0a4.27,4.27,0,0,1,1.71-3.59,8.83,8.83,0,0,1,4.82-1.51l6.53-.4v2.84l-5.84.39a3.67,3.67,0,0,0-2,.61,1.71,1.71,0,0,0-.69,1.42v0a1.72,1.72,0,0,0,.7,1.44,3.09,3.09,0,0,0,1.89.52,4.09,4.09,0,0,0,1.82-.39,3.17,3.17,0,0,0,1.27-1.1,2.71,2.71,0,0,0,.46-1.55v-5.1a2.25,2.25,0,0,0-.7-1.75A3,3,0,0,0,166.53,9a3.49,3.49,0,0,0-2,.53,2.11,2.11,0,0,0-.92,1.33l0,.14h-4.19l0-.18a5.22,5.22,0,0,1,1-2.75,6,6,0,0,1,2.5-1.89,9.79,9.79,0,0,1,3.81-.68,9.38,9.38,0,0,1,3.76.7,5.7,5.7,0,0,1,2.48,2,5,5,0,0,1,.88,3V22.55h-4.56V20.06h-.09A5.6,5.6,0,0,1,168,21.53a5,5,0,0,1-1.68.95,6.15,6.15,0,0,1-2,.33A6.34,6.34,0,0,1,161.3,22.16Z"/><path class="cls-1" d="M176.78,5.8h4.56V8.61h.1a4.63,4.63,0,0,1,1.76-2.3,5,5,0,0,1,2.92-.86,5.22,5.22,0,0,1,2.11.41A4.22,4.22,0,0,1,189.82,7a4.41,4.41,0,0,1,.91,1.88h.1A5,5,0,0,1,192,7.07a5.15,5.15,0,0,1,1.8-1.19A5.81,5.81,0,0,1,196,5.45a5.75,5.75,0,0,1,2.88.71,4.9,4.9,0,0,1,1.92,2,6.15,6.15,0,0,1,.69,3V22.55H197V12.25a3.21,3.21,0,0,0-.7-2.23,2.61,2.61,0,0,0-2-.79,2.88,2.88,0,0,0-1.51.4,2.82,2.82,0,0,0-1,1.1,3.58,3.58,0,0,0-.36,1.65V22.55H187V12.11a3,3,0,0,0-.72-2.12,2.62,2.62,0,0,0-2-.76,2.78,2.78,0,0,0-1.52.42,2.87,2.87,0,0,0-1,1.13,3.66,3.66,0,0,0-.37,1.66V22.55h-4.56Z"/><path class="cls-1" d="M207.62,21.84a7.24,7.24,0,0,1-2.84-3,10,10,0,0,1-1-4.63h0a10.08,10.08,0,0,1,1-4.64,7.35,7.35,0,0,1,2.81-3,8.2,8.2,0,0,1,4.25-1.07,8.37,8.37,0,0,1,4.25,1,7.1,7.1,0,0,1,2.76,2.93,9.54,9.54,0,0,1,1,4.42v1.43H206V12.38h11.64l-2.17,2.7V13.31a5.94,5.94,0,0,0-.45-2.46,3.33,3.33,0,0,0-1.26-1.49,3.51,3.51,0,0,0-1.87-.5,3.41,3.41,0,0,0-1.88.52,3.33,3.33,0,0,0-1.28,1.5,5.7,5.7,0,0,0-.46,2.43v1.78a5.46,5.46,0,0,0,.46,2.36A3.31,3.31,0,0,0,210.08,19a3.82,3.82,0,0,0,2,.52,4.06,4.06,0,0,0,1.63-.29,3.59,3.59,0,0,0,1.13-.75,2.56,2.56,0,0,0,.59-.92l0-.1h4.19l-.05.17a6,6,0,0,1-.73,1.86,6.61,6.61,0,0,1-1.48,1.72,7.17,7.17,0,0,1-2.27,1.25,9.5,9.5,0,0,1-3.13.47A8.77,8.77,0,0,1,207.62,21.84Z"/><path class="cls-1" d="M225.12,22.22a5.89,5.89,0,0,1-2.54-1.87,5.6,5.6,0,0,1-1.1-2.77v-.14h4.45l0,.14a2.49,2.49,0,0,0,1,1.53,3.63,3.63,0,0,0,2.12.55,4.61,4.61,0,0,0,1.49-.21,2.23,2.23,0,0,0,.94-.61,1.35,1.35,0,0,0,.34-.93v0a1.32,1.32,0,0,0-.49-1.08,4.14,4.14,0,0,0-1.72-.67l-2.84-.61a7.16,7.16,0,0,1-3.67-1.72,4.16,4.16,0,0,1-1.23-3.09v0a4.53,4.53,0,0,1,.86-2.78A5.6,5.6,0,0,1,225.2,6.1a9.76,9.76,0,0,1,3.71-.65,9.09,9.09,0,0,1,3.77.71,5.79,5.79,0,0,1,2.39,1.92,4.81,4.81,0,0,1,.88,2.67v.16h-4.2l0-.13a2.24,2.24,0,0,0-.83-1.49,3,3,0,0,0-2-.6,3.73,3.73,0,0,0-1.36.22,1.91,1.91,0,0,0-.89.61,1.44,1.44,0,0,0-.32.93v0a1.38,1.38,0,0,0,.5,1.08,4.16,4.16,0,0,0,1.77.7l2.84.61a7.71,7.71,0,0,1,3.79,1.64,3.86,3.86,0,0,1,1.15,2.94h0a4.51,4.51,0,0,1-.94,2.86,6.05,6.05,0,0,1-2.58,1.9,10,10,0,0,1-3.81.68A10.31,10.31,0,0,1,225.12,22.22Z"/></g></g></svg>